#N canvas 810 77 818 750 10;
#X declare -lib mrpeach;
#N canvas 571 438 430 156 r 0;
#X obj 0 96 s of2_msgOSC;
#X obj 3 0 hsl 200 24 0 255 0 0 empty empty empty -2 -8 0 10 -258113
-1 -1 0 1;
#X floatatom 0 27 5 0 0 0 - - -;
#X obj 212 0 hsl 200 24 0 255 0 0 empty empty empty -2 -8 0 10 -258113
-1 -1 0 1;
#X floatatom 209 27 5 0 0 0 - - -;
#X obj 0 51 pack f f;
#X msg 209 48 bang;
#X msg 0 73 /contrast 1 \$1 \$2;
#X obj 0 -21 r of2_e1;
#X obj 209 -21 r of2_f1;
#X connect 1 0 2 0;
#X connect 2 0 5 0;
#X connect 3 0 4 0;
#X connect 4 0 5 1;
#X connect 4 0 6 0;
#X connect 5 0 7 0;
#X connect 6 0 2 0;
#X connect 7 0 0 0;
#X connect 8 0 1 0;
#X connect 9 0 3 0;
#X coords 0 -1 1 1 414 24 2 0 0;
#X restore -322 331 pd r;
#N canvas 241 465 430 156 g 0;
#X obj 0 96 s of2_msgOSC;
#X obj 3 0 hsl 200 24 0 255 0 0 empty empty empty -2 -8 0 10 -4034
-1 -1 0 1;
#X floatatom 0 27 5 0 0 0 - - -;
#X obj 212 0 hsl 200 24 0 255 0 0 empty empty empty -2 -8 0 10 -4034
-1 -1 0 1;
#X floatatom 209 27 5 0 0 0 - - -;
#X obj 0 51 pack f f;
#X msg 209 48 bang;
#X obj 0 -21 r of2_e2;
#X obj 209 -21 r of2_f2;
#X msg 0 73 /contrast 2 \$1 \$2;
#X connect 1 0 2 0;
#X connect 2 0 5 0;
#X connect 3 0 4 0;
#X connect 4 0 5 1;
#X connect 4 0 6 0;
#X connect 5 0 9 0;
#X connect 6 0 2 0;
#X connect 7 0 1 0;
#X connect 8 0 3 0;
#X connect 9 0 0 0;
#X coords 0 -1 1 1 414 24 2 0 0;
#X restore -322 360 pd g;
#N canvas 36 580 430 156 b 0;
#X obj 0 96 s of2_msgOSC;
#X obj 3 0 hsl 200 24 0 255 0 0 empty empty empty -2 -8 0 10 -4160
-1 -1 0 1;
#X floatatom 0 27 5 0 0 0 - - -;
#X obj 212 0 hsl 200 24 0 255 0 0 empty empty empty -2 -8 0 10 -4160
-1 -1 0 1;
#X floatatom 209 27 5 0 0 0 - - -;
#X obj 0 51 pack f f;
#X msg 209 48 bang;
#X obj 0 -21 r of2_e3;
#X obj 209 -21 r of2_f3;
#X msg 0 73 /contrast 3 \$1 \$2;
#X connect 1 0 2 0;
#X connect 2 0 5 0;
#X connect 3 0 4 0;
#X connect 4 0 5 1;
#X connect 4 0 6 0;
#X connect 5 0 9 0;
#X connect 6 0 2 0;
#X connect 7 0 1 0;
#X connect 8 0 3 0;
#X connect 9 0 0 0;
#X coords 0 -1 1 1 414 24 2 0 0;
#X restore -322 389 pd b;
#N canvas 317 363 457 135 rgb 0;
#X obj 3 0 hsl 200 24 0 255 0 0 empty empty empty -2 -8 0 10 -262144
-1 -1 0 1;
#X obj 212 0 hsl 200 24 0 255 0 0 empty empty empty -2 -8 0 10 -262144
-1 -1 0 1;
#X obj 0 54 s of2_e1;
#X obj 0 74 s of2_e2;
#X obj 0 95 s of2_e3;
#X obj 209 55 s of2_f1;
#X obj 209 76 s of2_f2;
#X obj 210 97 s of2_f3;
#X obj 0 31 t f f f;
#X obj 209 32 t f f f;
#X connect 0 0 8 0;
#X connect 1 0 9 0;
#X connect 8 0 2 0;
#X connect 8 1 3 0;
#X connect 8 2 4 0;
#X connect 9 0 5 0;
#X connect 9 1 6 0;
#X connect 9 2 7 0;
#X coords 0 -1 1 1 414 24 2 0 0;
#X restore -323 302 pd rgb;
#X text -323 66 Contraste da Máscara;
#N canvas 201 416 430 156 rgb_mascara 0;
#X obj 0 96 s of2_msgOSC;
#X obj 3 0 hsl 200 24 0 255 0 0 empty empty empty -2 -8 0 10 -262144
-1 -1 0 1;
#X floatatom 0 27 5 0 0 0 - - -;
#X obj 212 0 hsl 200 24 0 255 0 0 empty empty empty -2 -8 0 10 -262144
-1 -1 0 1;
#X floatatom 209 27 5 0 0 0 - - -;
#X obj 0 51 pack f f;
#X msg 209 48 bang;
#X msg 0 72 /contrast 0 \$1 \$2;
#X obj 0 -21 r of2_e0;
#X obj 208 -21 r of2_f0;
#X connect 1 0 2 0;
#X connect 2 0 5 0;
#X connect 3 0 4 0;
#X connect 4 0 5 1;
#X connect 4 0 6 0;
#X connect 5 0 7 0;
#X connect 6 0 2 0;
#X connect 7 0 0 0;
#X connect 8 0 1 0;
#X connect 9 0 3 0;
#X coords 0 -1 1 1 414 24 2 0 0;
#X restore -323 83 pd rgb_mascara;
#X text -321 283 Contraste da Cámara;
#N canvas 320 350 450 300 stela 0;
#X obj 0 150 s of2_msgOSC;
#X obj 3 0 hsl 200 24 1 1000 1 0 empty empty empty -2 -8 0 10 -262144
-1 -1 0 1;
#X floatatom 0 81 5 0 0 0 - - -;
#X obj 0 105 pack f;
#X msg 0 127 /stela \$1;
#X obj 0 -20 r of2_stela;
#X connect 1 0 2 0;
#X connect 2 0 3 0;
#X connect 3 0 4 0;
#X connect 4 0 0 0;
#X connect 5 0 1 0;
#X coords 0 -1 1 1 205 24 2 0 0;
#X restore -321 448 pd stela;
#X text -322 428 Stela;
#N canvas 233 194 94 132 salvar 0;
#X obj 0 0 tgl 24 0 empty empty empty 17 7 0 10 -258113 -1 -1 0 1;
#X obj 0 76 s of2_msgOSC;
#X obj 0 31 pack f;
#X msg 0 53 /save \$1;
#X obj 0 -21 r of2_save;
#X connect 0 0 2 0;
#X connect 2 0 3 0;
#X connect 3 0 1 0;
#X connect 4 0 0 0;
#X coords 0 -1 1 1 24 24 2 0 0;
#X restore 68 481 pd salvar;
#X text 98 484 Gravar;
#N canvas 953 249 373 442 reciveOSC 0;
#X obj -826 78 symbol;
#X obj -826 32 unpackOSC;
#X obj -826 9 udpreceive 8000;
#X obj -826 54 routeOSC /saved /of2_settings;
#X obj -724 125 s of2_show;
#X obj -741 102 s of2_stela;
#X obj -707 151 s of2_e0;
#X obj -690 173 s of2_f0;
#X obj -673 197 s of2_e1;
#X obj -656 221 s of2_f1;
#X obj -639 242 s of2_e2;
#X obj -622 266 s of2_f2;
#X obj -605 287 s of2_e3;
#X obj -588 311 s of2_f3;
#X obj -741 80 unpack f f f f f f f f f f;
#X obj -567 122 delay 1;
#X msg -567 146 1;
#X obj -567 166 s loadbang_1;
#X obj -826 100 outlet;
#X connect 0 0 18 0;
#X connect 1 0 3 0;
#X connect 2 0 1 0;
#X connect 3 0 0 0;
#X connect 3 1 14 0;
#X connect 14 0 5 0;
#X connect 14 1 4 0;
#X connect 14 2 6 0;
#X connect 14 3 7 0;
#X connect 14 4 8 0;
#X connect 14 5 9 0;
#X connect 14 6 10 0;
#X connect 14 7 11 0;
#X connect 14 8 12 0;
#X connect 14 9 13 0;
#X connect 14 9 15 0;
#X connect 15 0 16 0;
#X connect 16 0 17 0;
#X restore -123 8 pd reciveOSC;
#X symbolatom -123 29 40 0 0 0 - - -;
#N canvas 657 427 211 308 enviaOSC 0;
#X obj 20 -206 import mrpeach;
#X obj 18 -115 packOSC;
#X obj 0 -21 udpsend;
#X msg 11 -160 disconnect;
#X obj 0 0 tgl 15 0 empty empty connected 20 7 0 8 -24198 -1 -1 1 1
;
#X obj -19 -271 loadbang;
#X obj -19 -227 s loadbang1;
#X obj -19 -249 t b b b;
#X obj 18 -53 spigot;
#X msg 0 -182 connect localhost 9000;
#X obj 69 -114 print;
#X obj 79 0 tgl 15 0 empty empty sending 20 7 0 8 -24198 -1 -1 0 1
;
#X obj 18 -74 spigot;
#X obj 87 -20 r loadbang_1;
#X obj 18 -138 r of2_msgOSC;
#X connect 1 0 12 0;
#X connect 2 0 4 0;
#X connect 3 0 2 0;
#X connect 4 0 8 1;
#X connect 5 0 7 0;
#X connect 7 0 6 0;
#X connect 7 1 9 0;
#X connect 7 2 0 0;
#X connect 8 0 2 0;
#X connect 9 0 2 0;
#X connect 11 0 12 1;
#X connect 12 0 8 0;
#X connect 13 0 11 0;
#X connect 14 0 1 0;
#X connect 14 0 10 0;
#X coords 0 -1 1 1 135 15 2 0 0;
#X restore -323 30 pd enviaOSC;
#N canvas 1221 371 450 300 mezcla 0;
#X obj 0 100 s of2_msgOSC;
#X obj 3 0 hsl 200 24 1 1000 1 0 empty empty empty -2 -8 0 10 -262144
-1 -1 0 1;
#X floatatom 0 31 5 0 0 0 - - -;
#X obj 0 55 pack f;
#X obj 0 -30 r of2_mixture;
#X msg 0 77 /mixture \$1;
#X connect 1 0 2 0;
#X connect 2 0 3 0;
#X connect 3 0 5 0;
#X connect 4 0 1 0;
#X connect 5 0 0 0;
#X coords 0 -1 1 1 205 24 2 0 0;
#X restore -321 514 pd mezcla;
#X text -322 489 Mestura coa grabación anterior;
#N canvas 1127 641 450 300 player 0;
#X obj 0 83 s of2_msgOSC;
#X obj 0 38 pack f f;
#X obj 0 0 tgl 24 0 empty empty empty 17 7 0 10 -262144 -1 -1 0 1;
#X obj 32 0 hradio 24 1 0 10 empty empty empty 0 -8 0 10 -262144 -1
-1 0;
#X obj 32 -21 loadbang;
#X msg 0 60 /play \$1 \$2;
#X connect 1 0 5 0;
#X connect 2 0 1 0;
#X connect 3 0 1 1;
#X connect 4 0 3 0;
#X connect 5 0 0 0;
#X coords 0 -1 1 1 272 24 2 0 0;
#X restore -180 568 pd player;
#X text 97 571 Reproducir material gravado;
#X obj 135 356 s of2_msgOSC;
#X msg 136 333 /background 1;
#X text -323 111 blur;
#X text -321 157 recorte;
#N canvas 320 350 450 300 blur 0;
#X obj 0 150 s of2_msgOSC;
#X obj 3 0 hsl 200 24 1 10 1 0 empty empty empty -2 -8 0 10 -262144
-1 -1 0 1;
#X floatatom 0 81 5 0 0 0 - - -;
#X obj 0 105 pack f;
#X obj 0 -20 r of2_blur;
#X msg 0 127 /blur \$1;
#X connect 1 0 2 0;
#X connect 2 0 3 0;
#X connect 3 0 5 0;
#X connect 4 0 1 0;
#X connect 5 0 0 0;
#X coords 0 -1 1 1 205 24 2 0 0;
#X restore -322 131 pd blur;
#N canvas 320 350 450 300 recorte 0;
#X obj 0 220 s of2_msgOSC;
#X obj 3 0 hsl 200 24 0 1 0 0 empty empty empty -2 -8 0 10 -262144
-1 -1 0 0;
#X obj 0 -20 r of2_stela;
#X obj 3 28 hsl 200 24 0 1 0 0 empty empty empty -2 -8 0 10 -262144
-1 -1 19900 0;
#X obj 0 175 pack f f;
#X obj 18 146 t b f;
#X msg 0 197 /recorte \$1 \$2;
#X msg 209 77 255;
#X obj 209 55 loadbang;
#X obj 134 218 >;
#X obj 101 240 spigot;
#X obj 165 242 spigot;
#X obj 198 220 <;
#X connect 1 0 4 0;
#X connect 1 0 9 0;
#X connect 1 0 10 0;
#X connect 1 0 12 1;
#X connect 2 0 1 0;
#X connect 3 0 5 0;
#X connect 3 0 12 0;
#X connect 3 0 11 0;
#X connect 4 0 6 0;
#X connect 5 0 4 0;
#X connect 5 1 4 1;
#X connect 5 1 9 1;
#X connect 6 0 0 0;
#X connect 7 0 3 0;
#X connect 8 0 7 0;
#X connect 9 0 10 1;
#X connect 10 0 3 0;
#X connect 11 0 1 0;
#X connect 12 0 11 1;
#X coords 0 -1 1 1 205 52 2 0 0;
#X restore -322 177 pd recorte;
#X text -210 649 Interface;
#N canvas 373 556 450 300 mode 1;
#X obj 0 83 s of2_msgOSC;
#X obj 0 0 hradio 24 1 0 3 empty empty empty 0 -8 0 10 -262144 -1 -1
0;
#X obj 0 38 pack f;
#X msg 0 60 /mode \$1;
#X obj 0 -24 r c_of2_mode;
#X connect 1 0 2 0;
#X connect 2 0 3 0;
#X connect 3 0 0 0;
#X connect 4 0 1 0;
#X coords 0 -1 1 1 72 24 2 0 0;
#X restore -289 645 pd mode;
#X text -257 683 inverted;
#N canvas 1194 520 450 300 inverted 0;
#X obj 0 0 tgl 24 0 empty empty empty 17 7 0 10 -262144 -1 -1 0 1;
#X obj 0 76 s of2_msgOSC;
#X obj 0 31 pack f;
#X obj 0 -21 r c_of2_inverted;
#X msg 0 53 /inverted \$1;
#X connect 0 0 2 0;
#X connect 2 0 4 0;
#X connect 3 0 0 0;
#X connect 4 0 1 0;
#X coords 0 -1 1 1 24 24 2 0 0;
#X restore -289 678 pd inverted;
#N canvas 280 459 331 199 color 0;
#X obj 1 140 s of2_msgOSC;
#X obj 3 27 hsl 200 24 0 255 0 0 empty empty empty -2 -8 0 10 -4034
-1 -1 0 1;
#X obj 3 1 hsl 200 24 0 255 0 0 empty empty empty -2 -8 0 10 -258113
-1 -1 0 1;
#X msg -79 69 bang;
#X obj 1 95 pack f f f;
#X obj 3 53 hsl 200 24 0 255 0 0 empty empty empty -2 -8 0 10 -4160
-1 -1 0 1;
#X msg -67 95 bang;
#X msg 1 117 /color \$1 \$2 \$3;
#X obj -105 -29 r of2_colorr;
#X obj -106 -9 r of2_colorg;
#X obj -106 11 r of2_colorb;
#X connect 1 0 3 0;
#X connect 1 0 4 1;
#X connect 2 0 4 0;
#X connect 3 0 2 0;
#X connect 4 0 7 0;
#X connect 5 0 6 0;
#X connect 5 0 4 2;
#X connect 6 0 2 0;
#X connect 7 0 0 0;
#X connect 8 0 2 0;
#X connect 9 0 1 0;
#X connect 10 0 5 0;
#X coords 0 -1 1 1 205 78 2 0 0;
#X restore 247 309 pd color;
#X text 217 203 mask mode;
#N canvas 373 556 450 300 maskMode 0;
#X obj 0 83 s of2_msgOSC;
#X obj 0 0 hradio 24 1 0 3 empty empty empty 0 -8 0 10 -262144 -1 -1
0;
#X obj 0 38 pack f;
#X msg 0 60 /maskMode \$1;
#X obj 0 -24 r c_of2_mask_mode;
#X connect 1 0 2 0;
#X connect 2 0 3 0;
#X connect 3 0 0 0;
#X connect 4 0 1 0;
#X coords 0 -1 1 1 72 24 2 0 0;
#X restore 138 199 pd maskMode;
#X connect 11 0 12 0;
#X connect 19 0 18 0;
