#N canvas 1131 273 191 135 10;
#X obj -381 80 min;
#X obj -354 80 f;
#X msg -366 58 20;
#X obj -360 18 inlet;
#X obj -354 103 outlet;
#X obj -296 79 f;
#X obj -296 102 outlet;
#X obj -323 79 max;
#X msg -308 57 0;
#X obj -321 18 loadbang;
#X obj -234 12 inlet;
#X connect 0 0 1 0;
#X connect 1 0 0 1;
#X connect 1 0 4 0;
#X connect 2 0 0 1;
#X connect 3 0 0 0;
#X connect 3 0 7 0;
#X connect 5 0 6 0;
#X connect 5 0 7 1;
#X connect 7 0 5 0;
#X connect 8 0 7 1;
#X connect 9 0 8 0;
#X connect 9 0 2 0;
#X connect 10 0 8 0;
#X connect 10 0 2 0;
