#N canvas 934 97 695 890 10;
#X declare -lib mrpeach;
#X floatatom -2 -65 5 0 0 0 - - -;
#X floatatom 50 -65 5 0 0 0 - - -;
#X floatatom 103 -65 5 0 0 0 - - -;
#X obj 103 -45 route 0 1;
#X floatatom -2 40 5 0 0 0 - - -;
#X floatatom 50 40 5 0 0 0 - - -;
#X floatatom 103 40 5 0 0 0 - - -;
#X obj 103 60 route 0 1;
#X floatatom -2 145 5 0 0 0 - - -;
#X floatatom 50 145 5 0 0 0 - - -;
#X floatatom 103 145 5 0 0 0 - - -;
#X obj 103 165 route 0 1;
#X floatatom -2 250 5 0 0 0 - - -;
#X floatatom 50 250 5 0 0 0 - - -;
#X floatatom 103 250 5 0 0 0 - - -;
#X obj 103 270 route 0 1;
#X floatatom -2 355 5 0 0 0 - - -;
#X floatatom 50 355 5 0 0 0 - - -;
#X floatatom 103 355 5 0 0 0 - - -;
#X obj 103 375 route 0 1;
#X floatatom -2 460 5 0 0 0 - - -;
#X floatatom 50 460 5 0 0 0 - - -;
#X floatatom 103 460 5 0 0 0 - - -;
#X obj 103 480 route 0 1;
#X floatatom 552 580 5 0 0 0 - - -;
#X obj 451 -53 tgl 36 0 empty empty empty 17 7 0 10 -262144 -1 -1 0
1;
#X obj 529 34 s of2_mode;
#X obj 451 -77 t b b;
#X obj 451 -99 bng 15 250 50 0 empty empty empty 17 7 0 10 -262144
-1 -1;
#X msg 529 13 1;
#X text 561 13 Mode Sierpinski;
#X obj 490 58 s of2_threshold;
#X msg 490 36 128;
#X floatatom -2 566 5 0 0 0 - - -;
#X floatatom 50 566 5 0 0 0 - - -;
#X floatatom 103 566 5 0 0 0 - - -;
#X obj 103 586 route 0 1;
#X floatatom -2 671 5 0 0 0 - - -;
#X floatatom 50 671 5 0 0 0 - - -;
#X floatatom 103 671 5 0 0 0 - - -;
#X obj 103 691 route 0 1;
#X obj 391 376 s of2_sierpinski_toggle_1_8;
#X obj 367 350 s of2_sierpinski_toggle_1_7;
#X obj 314 277 s of2_sierpinski_toggle_1_3;
#X obj 292 253 s of2_sierpinski_toggle_1_2;
#X obj 477 491 s of2_sierpinski_average_0_1;
#X obj 275 231 s of2_sierpinski_toggle_1_1;
#X obj 349 326 s of2_sierpinski_toggle_1_12;
#X obj 413 401 s of2_sierpinski_toggle_1_13;
#X obj 330 301 s of2_sierpinski_toggle_1_4;
#X obj 500 556 VHPdataReceive 1 8;
#X obj -2 -88 VHPdataReceive 2 51;
#X obj -2 17 VHPdataReceive 2 53;
#X obj -2 122 VHPdataReceive 2 56;
#X obj -2 227 VHPdataReceive 2 91;
#X obj -2 332 VHPdataReceive 2 86;
#X obj -2 437 VHPdataReceive 2 89;
#X obj -2 543 VHPdataReceive 1 7;
#X obj -2 648 VHPdataReceive 2 65;
#N canvas 657 427 268 309 enviaOSC 0;
#X obj 20 -206 import mrpeach;
#X obj 18 -115 packOSC;
#X obj 0 -21 udpsend;
#X msg 11 -160 disconnect;
#X obj 0 0 tgl 15 0 empty empty connected 20 7 0 8 -24198 -1 -1 1 1
;
#X obj -19 -271 loadbang;
#X obj -19 -249 t b b b;
#X obj 18 -53 spigot;
#X obj 69 -114 print;
#X obj 79 0 tgl 15 0 empty empty sending 20 7 0 8 -24198 -1 -1 0 1
;
#X obj 18 -74 spigot;
#X obj 37 -271 inlet;
#X obj -19 -227 s of1_loadbang1;
#X msg 0 -182 connect 172.24.200.243 8000;
#X obj 87 -20 r of2_remote_loadbang_1;
#X obj 18 -138 r of2_remote_msgOSC;
#X connect 1 0 10 0;
#X connect 2 0 4 0;
#X connect 3 0 2 0;
#X connect 4 0 7 1;
#X connect 5 0 6 0;
#X connect 6 0 12 0;
#X connect 6 1 13 0;
#X connect 6 2 0 0;
#X connect 7 0 2 0;
#X connect 9 0 10 1;
#X connect 10 0 7 0;
#X connect 11 0 13 0;
#X connect 13 0 2 0;
#X connect 14 0 9 0;
#X connect 15 0 1 0;
#X connect 15 0 8 0;
#X coords 0 -1 1 1 135 15 2 0 0;
#X restore 505 132 pd enviaOSC;
#X obj 505 104 bng 24 250 50 0 empty empty empty 17 7 0 10 -262144
-1 -1;
#X msg 128 -2 0;
#X msg 128 -23 bang;
#X obj 269 607 s of2_remote_msgOSC;
#X msg 128 82 bang;
#X msg 128 103 1;
#X msg 128 186 bang;
#X msg 128 291 bang;
#X msg 128 396 bang;
#X msg 128 501 bang;
#X msg 128 607 bang;
#X msg 128 712 bang;
#X msg 128 207 2;
#X msg 128 312 3;
#X msg 128 417 4;
#X msg 128 522 5;
#X msg 128 628 6;
#X msg 128 733 7;
#X msg 269 585 /triggerVideo \$1;
#X floatatom 553 629 5 0 0 0 - - -;
#X obj 501 605 VHPdataReceive 1 8;
#X connect 2 0 3 0;
#X connect 3 1 62 0;
#X connect 6 0 7 0;
#X connect 7 1 64 0;
#X connect 10 0 11 0;
#X connect 11 1 66 0;
#X connect 14 0 15 0;
#X connect 15 1 67 0;
#X connect 18 0 19 0;
#X connect 19 1 68 0;
#X connect 22 0 23 0;
#X connect 23 1 69 0;
#X connect 25 0 41 0;
#X connect 25 0 42 0;
#X connect 25 0 43 0;
#X connect 25 0 44 0;
#X connect 25 0 45 0;
#X connect 25 0 46 0;
#X connect 25 0 47 0;
#X connect 25 0 48 0;
#X connect 25 0 49 0;
#X connect 27 0 25 0;
#X connect 27 1 29 0;
#X connect 27 1 32 0;
#X connect 28 0 27 0;
#X connect 29 0 26 0;
#X connect 32 0 31 0;
#X connect 35 0 36 0;
#X connect 36 1 70 0;
#X connect 39 0 40 0;
#X connect 40 1 71 0;
#X connect 50 1 24 0;
#X connect 51 0 0 0;
#X connect 51 1 1 0;
#X connect 51 2 2 0;
#X connect 52 0 4 0;
#X connect 52 1 5 0;
#X connect 52 2 6 0;
#X connect 53 0 8 0;
#X connect 53 1 9 0;
#X connect 53 2 10 0;
#X connect 54 0 12 0;
#X connect 54 1 13 0;
#X connect 54 2 14 0;
#X connect 55 0 16 0;
#X connect 55 1 17 0;
#X connect 55 2 18 0;
#X connect 56 0 20 0;
#X connect 56 1 21 0;
#X connect 56 2 22 0;
#X connect 57 0 33 0;
#X connect 57 1 34 0;
#X connect 57 2 35 0;
#X connect 58 0 37 0;
#X connect 58 1 38 0;
#X connect 58 2 39 0;
#X connect 60 0 59 0;
#X connect 61 0 78 0;
#X connect 62 0 61 0;
#X connect 64 0 65 0;
#X connect 65 0 78 0;
#X connect 66 0 72 0;
#X connect 67 0 73 0;
#X connect 68 0 74 0;
#X connect 69 0 75 0;
#X connect 70 0 76 0;
#X connect 71 0 77 0;
#X connect 72 0 78 0;
#X connect 73 0 78 0;
#X connect 74 0 78 0;
#X connect 75 0 78 0;
#X connect 76 0 78 0;
#X connect 77 0 78 0;
#X connect 78 0 63 0;
#X connect 80 1 79 0;
