#N canvas 96 72 695 890 10;
#X floatatom -2 -65 5 0 0 0 - - -;
#X floatatom 50 -65 5 0 0 0 - - -;
#X floatatom 103 -65 5 0 0 0 - - -;
#X obj 103 -45 route 0 1;
#X obj 128 -24 s start_sound_0;
#X obj 103 -4 s stop_sound_0;
#X floatatom -2 40 5 0 0 0 - - -;
#X floatatom 50 40 5 0 0 0 - - -;
#X floatatom 103 40 5 0 0 0 - - -;
#X obj 103 60 route 0 1;
#X obj 128 81 s start_sound_1;
#X obj 103 101 s stop_sound_1;
#X floatatom -2 145 5 0 0 0 - - -;
#X floatatom 50 145 5 0 0 0 - - -;
#X floatatom 103 145 5 0 0 0 - - -;
#X obj 103 165 route 0 1;
#X floatatom -2 250 5 0 0 0 - - -;
#X floatatom 50 250 5 0 0 0 - - -;
#X floatatom 103 250 5 0 0 0 - - -;
#X obj 103 270 route 0 1;
#X obj 128 186 s start_sound_2;
#X obj 103 206 s stop_sound_2;
#X floatatom -2 355 5 0 0 0 - - -;
#X floatatom 50 355 5 0 0 0 - - -;
#X floatatom 103 355 5 0 0 0 - - -;
#X obj 103 375 route 0 1;
#X floatatom -2 460 5 0 0 0 - - -;
#X floatatom 50 460 5 0 0 0 - - -;
#X floatatom 103 460 5 0 0 0 - - -;
#X obj 103 480 route 0 1;
#X floatatom 492 576 5 0 0 0 - - -;
#X obj 521 609 s volume_sound_0;
#X obj 493 629 s volume_sound_1;
#X obj 468 649 s volume_sound_2;
#X obj 128 291 s start_sound_3;
#X obj 103 311 s stop_sound_3;
#X obj 128 396 s start_sound_4;
#X obj 103 416 s stop_sound_4;
#X obj 128 501 s start_sound_5;
#X obj 103 521 s stop_sound_5;
#X obj 447 668 s volume_sound_3;
#X obj 419 688 s volume_sound_4;
#X obj 394 708 s volume_sound_5;
#X obj 451 -53 tgl 36 0 empty empty empty 17 7 0 10 -262144 -1 -1 1
1;
#X obj 529 34 s of2_mode;
#X obj 451 -77 t b b;
#X obj 451 -99 bng 15 250 50 0 empty empty empty 17 7 0 10 -262144
-1 -1;
#X msg 529 13 1;
#X text 561 13 Mode Sierpinski;
#X obj 490 58 s of2_threshold;
#X msg 490 36 128;
#X floatatom -2 566 5 0 0 0 - - -;
#X floatatom 50 566 5 0 0 0 - - -;
#X floatatom 103 566 5 0 0 0 - - -;
#X obj 103 586 route 0 1;
#X floatatom -2 671 5 0 0 0 - - -;
#X floatatom 50 671 5 0 0 0 - - -;
#X floatatom 103 671 5 0 0 0 - - -;
#X obj 103 691 route 0 1;
#X obj 103 627 s stop_sound_6;
#X obj 128 712 s start_sound_7;
#X obj 103 732 s stop_sound_7;
#X obj 366 728 s volume_sound_6;
#X obj 341 748 s volume_sound_7;
#X obj 391 376 s of2_sierpinski_toggle_1_8;
#X obj 367 350 s of2_sierpinski_toggle_1_7;
#X obj 314 277 s of2_sierpinski_toggle_1_3;
#X obj 292 253 s of2_sierpinski_toggle_1_2;
#X obj 477 491 s of2_sierpinski_average_0_1;
#X obj 275 231 s of2_sierpinski_toggle_1_1;
#X obj 349 326 s of2_sierpinski_toggle_1_12;
#X obj 128 607 s start_sound_12;
#X obj 413 401 s of2_sierpinski_toggle_1_13;
#X obj 330 301 s of2_sierpinski_toggle_1_4;
#X obj 439 522 VHPdataReceive 1 8;
#X obj -2 -88 VHPdataReceive 2 51;
#X obj -2 17 VHPdataReceive 2 53;
#X obj -2 122 VHPdataReceive 2 56;
#X obj -2 227 VHPdataReceive 2 91;
#X obj -2 332 VHPdataReceive 2 86;
#X obj -2 437 VHPdataReceive 2 89;
#X obj -2 543 VHPdataReceive 1 7;
#X obj -2 648 VHPdataReceive 2 65;
#X connect 2 0 3 0;
#X connect 3 0 5 0;
#X connect 3 1 4 0;
#X connect 8 0 9 0;
#X connect 9 0 11 0;
#X connect 9 1 10 0;
#X connect 14 0 15 0;
#X connect 15 0 21 0;
#X connect 15 1 20 0;
#X connect 18 0 19 0;
#X connect 19 0 35 0;
#X connect 19 1 34 0;
#X connect 24 0 25 0;
#X connect 25 0 37 0;
#X connect 25 1 36 0;
#X connect 28 0 29 0;
#X connect 29 0 39 0;
#X connect 29 1 38 0;
#X connect 30 0 31 0;
#X connect 30 0 32 0;
#X connect 30 0 33 0;
#X connect 30 0 40 0;
#X connect 30 0 41 0;
#X connect 30 0 42 0;
#X connect 30 0 62 0;
#X connect 30 0 63 0;
#X connect 43 0 64 0;
#X connect 43 0 65 0;
#X connect 43 0 66 0;
#X connect 43 0 67 0;
#X connect 43 0 68 0;
#X connect 43 0 69 0;
#X connect 43 0 70 0;
#X connect 43 0 72 0;
#X connect 43 0 73 0;
#X connect 45 0 43 0;
#X connect 45 1 47 0;
#X connect 45 1 50 0;
#X connect 46 0 45 0;
#X connect 47 0 44 0;
#X connect 50 0 49 0;
#X connect 53 0 54 0;
#X connect 54 0 59 0;
#X connect 54 1 71 0;
#X connect 57 0 58 0;
#X connect 58 0 61 0;
#X connect 58 1 60 0;
#X connect 74 1 30 0;
#X connect 75 0 0 0;
#X connect 75 1 1 0;
#X connect 75 2 2 0;
#X connect 76 0 6 0;
#X connect 76 1 7 0;
#X connect 76 2 8 0;
#X connect 77 0 12 0;
#X connect 77 1 13 0;
#X connect 77 2 14 0;
#X connect 78 0 16 0;
#X connect 78 1 17 0;
#X connect 78 2 18 0;
#X connect 79 0 22 0;
#X connect 79 1 23 0;
#X connect 79 2 24 0;
#X connect 80 0 26 0;
#X connect 80 1 27 0;
#X connect 80 2 28 0;
#X connect 81 0 51 0;
#X connect 81 1 52 0;
#X connect 81 2 53 0;
#X connect 82 0 55 0;
#X connect 82 1 56 0;
#X connect 82 2 57 0;
