#N canvas 398 88 925 883 10;
#X declare -lib mrpeach;
#X declare -lib mrpeach;
#N canvas 571 438 430 156 r 0;
#X obj 0 96 s of2_msgOSC;
#X obj 3 0 hsl 200 24 0 255 0 0 empty empty empty -2 -8 0 10 -258113
-1 -1 0 1;
#X floatatom 0 27 5 0 0 0 - - -;
#X obj 212 0 hsl 200 24 0 255 0 0 empty empty empty -2 -8 0 10 -258113
-1 -1 0 1;
#X floatatom 209 27 5 0 0 0 - - -;
#X obj 0 51 pack f f;
#X msg 209 48 bang;
#X msg 0 73 /contrast 1 \$1 \$2;
#X obj 0 -21 r of2_e1;
#X obj 209 -21 r of2_f1;
#X connect 1 0 2 0;
#X connect 2 0 5 0;
#X connect 3 0 4 0;
#X connect 4 0 5 1;
#X connect 4 0 6 0;
#X connect 5 0 7 0;
#X connect 6 0 2 0;
#X connect 7 0 0 0;
#X connect 8 0 1 0;
#X connect 9 0 3 0;
#X coords 0 -1 1 1 414 24 2 0 0;
#X restore -322 346 pd r;
#N canvas 241 465 430 156 g 0;
#X obj 0 96 s of2_msgOSC;
#X obj 3 0 hsl 200 24 0 255 0 0 empty empty empty -2 -8 0 10 -4034
-1 -1 0 1;
#X floatatom 0 27 5 0 0 0 - - -;
#X obj 212 0 hsl 200 24 0 255 0 0 empty empty empty -2 -8 0 10 -4034
-1 -1 0 1;
#X floatatom 209 27 5 0 0 0 - - -;
#X obj 0 51 pack f f;
#X msg 209 48 bang;
#X obj 0 -21 r of2_e2;
#X obj 209 -21 r of2_f2;
#X msg 0 73 /contrast 2 \$1 \$2;
#X connect 1 0 2 0;
#X connect 2 0 5 0;
#X connect 3 0 4 0;
#X connect 4 0 5 1;
#X connect 4 0 6 0;
#X connect 5 0 9 0;
#X connect 6 0 2 0;
#X connect 7 0 1 0;
#X connect 8 0 3 0;
#X connect 9 0 0 0;
#X coords 0 -1 1 1 414 24 2 0 0;
#X restore -322 375 pd g;
#N canvas 36 580 430 156 b 0;
#X obj 0 96 s of2_msgOSC;
#X obj 3 0 hsl 200 24 0 255 0 0 empty empty empty -2 -8 0 10 -4160
-1 -1 0 1;
#X floatatom 0 27 5 0 0 0 - - -;
#X obj 212 0 hsl 200 24 0 255 0 0 empty empty empty -2 -8 0 10 -4160
-1 -1 0 1;
#X floatatom 209 27 5 0 0 0 - - -;
#X obj 0 51 pack f f;
#X msg 209 48 bang;
#X obj 0 -21 r of2_e3;
#X obj 209 -21 r of2_f3;
#X msg 0 73 /contrast 3 \$1 \$2;
#X connect 1 0 2 0;
#X connect 2 0 5 0;
#X connect 3 0 4 0;
#X connect 4 0 5 1;
#X connect 4 0 6 0;
#X connect 5 0 9 0;
#X connect 6 0 2 0;
#X connect 7 0 1 0;
#X connect 8 0 3 0;
#X connect 9 0 0 0;
#X coords 0 -1 1 1 414 24 2 0 0;
#X restore -322 404 pd b;
#N canvas 317 363 457 135 rgb 0;
#X obj 3 0 hsl 200 24 0 255 0 0 empty empty empty -2 -8 0 10 -262144
-1 -1 0 0;
#X obj 212 0 hsl 200 24 0 255 0 0 empty empty empty -2 -8 0 10 -262144
-1 -1 0 0;
#X obj 0 54 s of2_e1;
#X obj 0 74 s of2_e2;
#X obj 0 95 s of2_e3;
#X obj 209 55 s of2_f1;
#X obj 209 76 s of2_f2;
#X obj 210 97 s of2_f3;
#X obj 0 31 t f f f;
#X obj 209 32 t f f f;
#X connect 0 0 8 0;
#X connect 1 0 9 0;
#X connect 8 0 2 0;
#X connect 8 1 3 0;
#X connect 8 2 4 0;
#X connect 9 0 5 0;
#X connect 9 1 6 0;
#X connect 9 2 7 0;
#X coords 0 -1 1 1 414 24 2 0 0;
#X restore -323 317 pd rgb;
#X text -323 66 Contraste da M치scara;
#N canvas 201 416 430 156 rgb_mascara 0;
#X obj 0 96 s of2_msgOSC;
#X obj 3 0 hsl 200 24 0 255 0 0 empty empty empty -2 -8 0 10 -262144
-1 -1 0 1;
#X floatatom 0 27 5 0 0 0 - - -;
#X obj 212 0 hsl 200 24 0 255 0 0 empty empty empty -2 -8 0 10 -262144
-1 -1 0 1;
#X floatatom 209 27 5 0 0 0 - - -;
#X obj 0 51 pack f f;
#X msg 209 48 bang;
#X msg 0 72 /contrast 0 \$1 \$2;
#X obj 0 -21 r of2_e0;
#X obj 208 -21 r of2_f0;
#X connect 1 0 2 0;
#X connect 2 0 5 0;
#X connect 3 0 4 0;
#X connect 4 0 5 1;
#X connect 4 0 6 0;
#X connect 5 0 7 0;
#X connect 6 0 2 0;
#X connect 7 0 0 0;
#X connect 8 0 1 0;
#X connect 9 0 3 0;
#X coords 0 -1 1 1 414 24 2 0 0;
#X restore -323 83 pd rgb_mascara;
#X text -321 298 Contraste da C치mara;
#N canvas 320 350 450 300 stela 0;
#X obj 0 150 s of2_msgOSC;
#X obj 3 0 hsl 200 24 1 1000 1 0 empty empty empty -2 -8 0 10 -262144
-1 -1 0 1;
#X floatatom 0 81 5 0 0 0 - - -;
#X obj 0 105 pack f;
#X msg 0 127 /stela \$1;
#X obj 0 -20 r of2_stela;
#X connect 1 0 2 0;
#X connect 2 0 3 0;
#X connect 3 0 4 0;
#X connect 4 0 0 0;
#X connect 5 0 1 0;
#X coords 0 -1 1 1 205 24 2 0 0;
#X restore -321 463 pd stela;
#X text -322 443 Stela;
#N canvas 233 194 94 132 salvar 0;
#X obj 0 0 tgl 24 0 empty empty empty 17 7 0 10 -258113 -1 -1 0 1;
#X obj 0 76 s of2_msgOSC;
#X obj 0 31 pack f;
#X msg 0 53 /save \$1;
#X obj 0 -21 r of2_save;
#X connect 0 0 2 0;
#X connect 2 0 3 0;
#X connect 3 0 1 0;
#X connect 4 0 0 0;
#X coords 0 -1 1 1 24 24 2 0 0;
#X restore 68 496 pd salvar;
#X text 98 499 Gravar;
#N canvas 543 290 598 513 reciveOSC 0;
#X obj -826 78 symbol;
#X obj -826 32 unpackOSC;
#X obj -740 125 s of2_show;
#X obj -757 102 s of2_stela;
#X obj -723 151 s of2_e0;
#X obj -706 173 s of2_f0;
#X obj -689 197 s of2_e1;
#X obj -672 221 s of2_f1;
#X obj -655 242 s of2_e2;
#X obj -638 266 s of2_f2;
#X obj -621 287 s of2_e3;
#X obj -533 246 delay 1;
#X msg -533 270 1;
#X obj -533 290 s loadbang_1;
#X obj -826 100 outlet;
#X obj -826 54 routeOSC /saved /of2_settings /grid;
#X obj -515 106 unpack f f;
#X obj -515 137 s of2_vector_x;
#X obj -458 166 s of2_vector_y;
#X obj -765 32 s of2_receiveOSC;
#X obj -826 9 udpreceive 8001;
#X obj -757 80 unpack f f f f f f f f f f f f f;
#X obj -556 378 s of2_recorte_max;
#X obj -573 354 s of2_recorte_min;
#X obj -590 333 s of2_blur;
#X obj -604 311 s of2_f3;
#X obj -515 81 routeOSC /vector /weight;
#X obj -423 114 unpack f;
#X obj -423 137 s of2_weight;
#X connect 0 0 14 0;
#X connect 1 0 15 0;
#X connect 1 0 19 0;
#X connect 11 0 12 0;
#X connect 12 0 13 0;
#X connect 15 0 0 0;
#X connect 15 1 21 0;
#X connect 15 2 26 0;
#X connect 16 0 17 0;
#X connect 16 1 18 0;
#X connect 20 0 1 0;
#X connect 21 0 3 0;
#X connect 21 1 2 0;
#X connect 21 2 4 0;
#X connect 21 3 5 0;
#X connect 21 4 6 0;
#X connect 21 5 7 0;
#X connect 21 6 8 0;
#X connect 21 7 9 0;
#X connect 21 8 10 0;
#X connect 21 9 25 0;
#X connect 21 10 24 0;
#X connect 21 11 23 0;
#X connect 21 12 22 0;
#X connect 21 12 11 0;
#X connect 26 0 16 0;
#X connect 26 1 27 0;
#X connect 27 0 28 0;
#X restore -123 8 pd reciveOSC;
#X symbolatom -123 29 40 0 0 0 - - -;
#N canvas 401 283 211 308 enviaOSC 0;
#X obj 20 -206 import mrpeach;
#X obj 18 -115 packOSC;
#X obj 0 -21 udpsend;
#X msg 11 -160 disconnect;
#X obj 0 0 tgl 15 0 empty empty connected 20 7 0 8 -24198 -1 -1 1 1
;
#X obj -19 -271 loadbang;
#X obj -19 -249 t b b b;
#X obj 18 -53 spigot;
#X obj 69 -114 print;
#X obj 79 0 tgl 15 0 empty empty sending 20 7 0 8 -24198 -1 -1 0 1
;
#X obj 18 -138 r of2_msgOSC;
#X obj 40 -271 inlet;
#X obj 79 -25 r of2_loadbang_1;
#X obj -19 -227 s of2_loadbang1;
#X msg 0 -182 connect localhost 9001;
#X obj 18 -74 spigot;
#X connect 1 0 15 0;
#X connect 2 0 4 0;
#X connect 3 0 2 0;
#X connect 4 0 7 1;
#X connect 5 0 6 0;
#X connect 6 0 13 0;
#X connect 6 1 14 0;
#X connect 6 2 0 0;
#X connect 7 0 2 0;
#X connect 9 0 15 1;
#X connect 10 0 1 0;
#X connect 10 0 8 0;
#X connect 11 0 14 0;
#X connect 12 0 9 0;
#X connect 14 0 2 0;
#X connect 15 0 7 0;
#X coords 0 -1 1 1 135 15 2 0 0;
#X restore -323 30 pd enviaOSC;
#N canvas 1221 371 450 300 mezcla 0;
#X obj 0 100 s of2_msgOSC;
#X obj 3 0 hsl 200 24 1 1000 1 0 empty empty empty -2 -8 0 10 -262144
-1 -1 0 1;
#X floatatom 0 31 5 0 0 0 - - -;
#X obj 0 55 pack f;
#X obj 0 -30 r of2_mixture;
#X msg 0 77 /mixture \$1;
#X connect 1 0 2 0;
#X connect 2 0 3 0;
#X connect 3 0 5 0;
#X connect 4 0 1 0;
#X connect 5 0 0 0;
#X coords 0 -1 1 1 205 24 2 0 0;
#X restore -321 529 pd mezcla;
#X text -322 504 Mestura coa grabaci칩n anterior;
#N canvas 1127 641 450 300 player 0;
#X obj 0 83 s of2_msgOSC;
#X obj 0 38 pack f f;
#X obj 0 0 tgl 24 0 empty empty empty 17 7 0 10 -262144 -1 -1 0 1;
#X obj 32 0 hradio 24 1 0 10 empty empty empty 0 -8 0 10 -262144 -1
-1 0;
#X obj 32 -21 loadbang;
#X msg 0 60 /play \$1 \$2;
#X connect 1 0 5 0;
#X connect 2 0 1 0;
#X connect 3 0 1 1;
#X connect 4 0 3 0;
#X connect 5 0 0 0;
#X coords 0 -1 1 1 272 24 2 0 0;
#X restore -321 559 pd player;
#X text -44 562 Reproducir material gravado;
#X text -323 166 blur;
#X text -321 212 recorte;
#N canvas 320 350 450 300 blur 0;
#X obj 0 150 s of2_msgOSC;
#X obj 3 0 hsl 200 24 0.1 10 1 0 empty empty empty -2 -8 0 10 -262144
-1 -1 0 1;
#X floatatom 0 81 5 0 0 0 - - -;
#X obj 0 105 pack f;
#X obj 0 -20 r of2_blur;
#X msg 0 127 /blur \$1;
#X connect 1 0 2 0;
#X connect 2 0 3 0;
#X connect 3 0 5 0;
#X connect 4 0 1 0;
#X connect 5 0 0 0;
#X coords 0 -1 1 1 205 24 2 0 0;
#X restore -322 186 pd blur;
#N canvas 320 350 450 300 recorte 0;
#X obj 0 220 s of2_msgOSC;
#X obj 3 0 hsl 200 24 0 1 0 0 empty empty empty -2 -8 0 10 -262144
-1 -1 0 0;
#X obj 3 28 hsl 200 24 0 1 0 0 empty empty empty -2 -8 0 10 -262144
-1 -1 19900 0;
#X obj 0 175 pack f f;
#X obj 18 146 t b f;
#X msg 0 197 /recorte \$1 \$2;
#X msg 209 77 255;
#X obj 209 55 loadbang;
#X obj 134 218 >;
#X obj 101 240 spigot;
#X obj 165 242 spigot;
#X obj 198 220 <;
#X obj 0 -31 r of2_recorte_min;
#X obj 110 -31 r of2_recorte_max;
#X connect 1 0 3 0;
#X connect 1 0 8 0;
#X connect 1 0 9 0;
#X connect 1 0 11 1;
#X connect 2 0 4 0;
#X connect 2 0 11 0;
#X connect 2 0 10 0;
#X connect 3 0 5 0;
#X connect 4 0 3 0;
#X connect 4 1 3 1;
#X connect 4 1 8 1;
#X connect 5 0 0 0;
#X connect 6 0 2 0;
#X connect 7 0 6 0;
#X connect 8 0 9 1;
#X connect 9 0 2 0;
#X connect 10 0 1 0;
#X connect 11 0 10 1;
#X connect 12 0 1 0;
#X connect 13 0 2 0;
#X coords 0 -1 1 1 205 52 2 0 0;
#X restore -322 232 pd recorte;
#N canvas 373 556 450 300 mode 0;
#X obj 0 83 s of2_msgOSC;
#X obj 0 0 hradio 24 1 0 5 empty empty empty 0 -8 0 10 -262144 -1 -1
0;
#X obj 0 38 pack f;
#X msg 0 60 /mode \$1;
#X obj 0 -24 r of2_mode;
#X connect 1 0 2 0;
#X connect 2 0 3 0;
#X connect 3 0 0 0;
#X connect 4 0 1 0;
#X coords 0 -1 1 1 120 24 2 0 0;
#X restore -321 626 pd mode;
#N canvas 280 459 331 199 color 0;
#X obj 1 140 s of2_msgOSC;
#X obj 3 27 hsl 200 24 0 255 0 0 empty empty empty -2 -8 0 10 -4034
-1 -1 0 1;
#X obj 3 1 hsl 200 24 0 255 0 0 empty empty empty -2 -8 0 10 -258113
-1 -1 0 1;
#X msg -79 69 bang;
#X obj 1 95 pack f f f;
#X obj 3 53 hsl 200 24 0 255 0 0 empty empty empty -2 -8 0 10 -4160
-1 -1 0 1;
#X msg -67 95 bang;
#X msg 1 117 /color \$1 \$2 \$3;
#X obj -105 -29 r of2_colorr;
#X obj -106 -9 r of2_colorg;
#X obj -106 11 r of2_colorb;
#X connect 1 0 3 0;
#X connect 1 0 4 1;
#X connect 2 0 4 0;
#X connect 3 0 2 0;
#X connect 4 0 7 0;
#X connect 5 0 6 0;
#X connect 5 0 4 2;
#X connect 6 0 2 0;
#X connect 7 0 0 0;
#X connect 8 0 2 0;
#X connect 9 0 1 0;
#X connect 10 0 5 0;
#X coords 0 -1 1 1 205 78 2 0 0;
#X restore 142 209 pd color;
#N canvas 113 578 450 300 maskMode 0;
#X obj 0 83 s of2_msgOSC;
#X obj 0 0 hradio 24 1 0 3 empty empty empty 0 -8 0 10 -262144 -1 -1
0;
#X obj 0 38 pack f;
#X msg 0 60 /maskMode \$1;
#X obj 0 -24 r c_of2_mask_mode;
#X obj 191 22 t b b;
#X obj 195 -8 bng 15 250 50 0 empty empty empty 17 7 0 10 -262144 -1
-1;
#X msg 191 85 0;
#X msg 126 86 1;
#X obj 141 55 delay 200;
#X obj 286 40 metro 1000;
#X obj 282 8 tgl 15 0 empty empty empty 17 7 0 10 -262144 -1 -1 0 1
;
#X obj 348 2 hsl 128 15 200 2000 0 0 empty empty empty -2 -8 0 10 -262144
-1 -1 0 1;
#X connect 1 0 2 0;
#X connect 2 0 3 0;
#X connect 3 0 0 0;
#X connect 4 0 1 0;
#X connect 5 0 9 0;
#X connect 5 1 7 0;
#X connect 6 0 5 0;
#X connect 7 0 1 0;
#X connect 8 0 1 0;
#X connect 9 0 8 0;
#X connect 10 0 6 0;
#X connect 11 0 10 0;
#X connect 12 0 10 1;
#X coords 0 -1 1 1 72 24 2 0 0;
#X restore 142 175 pd maskMode;
#N canvas 1015 22 653 981 sierpinski 0;
#X obj 2 3 VHPdataSierpinski1;
#X obj 2 655 VHPdataSierpinski2;
#X obj 2 329 VHPdataSierpinski3;
#X restore 363 430 pd sierpinski;
#N canvas 320 350 450 300 stela 0;
#X obj 0 96 s of2_msgOSC;
#X obj 3 0 hsl 200 24 0 255 0 0 empty empty empty -2 -8 0 10 -262144
-1 -1 0 0;
#X obj 0 51 pack f;
#X msg 0 73 /threshold \$1;
#X obj 0 -20 r of2_threshold;
#X obj 0 29 i;
#X connect 1 0 5 0;
#X connect 2 0 3 0;
#X connect 3 0 0 0;
#X connect 4 0 1 0;
#X connect 5 0 2 0;
#X coords 0 -1 1 1 205 24 2 0 0;
#X restore -78 845 pd stela;
#X text -79 825 threshold;
#X text -313 825 sierpinski;
#X obj -323 3 bng 24 250 50 0 empty empty empty 17 7 0 10 -262144 -1
-1;
#N canvas 320 350 450 300 sierpinskiAlpha 0;
#X obj 25 176 s of2_msgOSC;
#X obj 27 0 hsl 200 24 0 1 0 0 empty empty empty -2 -8 0 10 -262144
-1 -1 0 0;
#X obj 0 0 tgl 24 0 empty empty empty 17 7 0 10 -262144 -1 -1 0 1;
#X msg 25 153 /sierpinskiAlpha \$1 \$2;
#X obj 25 131 pack f f;
#X obj -108 -20 r of2_sierpinskiAlpha;
#X obj 25 -20 r of2_sierpinskiMixture;
#X msg -2 53 bang;
#X connect 1 0 4 1;
#X connect 1 0 7 0;
#X connect 2 0 4 0;
#X connect 3 0 0 0;
#X connect 4 0 3 0;
#X connect 5 0 2 0;
#X connect 6 0 1 0;
#X connect 7 0 4 0;
#X coords 0 -1 1 1 229 24 2 0 0;
#X restore -312 845 pd sierpinskiAlpha;
#X text -104 142 Usar material gravado como fondo;
#N canvas 1127 641 450 300 bkgPlayer 0;
#X obj 0 83 s of2_msgOSC;
#X obj 0 38 pack f f;
#X obj 0 0 tgl 24 0 empty empty empty 17 7 0 10 -262144 -1 -1 0 1;
#X obj 32 0 hradio 24 1 0 10 empty empty empty 0 -8 0 10 -262144 -1
-1 0;
#X obj 32 -21 loadbang;
#X msg 0 60 /playBkg \$1 \$2;
#X connect 1 0 5 0;
#X connect 2 0 1 0;
#X connect 3 0 1 1;
#X connect 4 0 3 0;
#X connect 5 0 0 0;
#X coords 0 300 1 299 272 24 2 0 0;
#X restore -181 115 pd bkgPlayer;
#N canvas 162 378 264 177 getBkg 0;
#X obj 0 52 s of2_msgOSC;
#X msg 0 29 /background 1;
#X obj 0 0 bng 24 250 50 0 empty empty empty 17 7 0 10 -262144 -1 -1
;
#X obj 0 -24 r of2_background;
#X connect 1 0 0 0;
#X connect 2 0 1 0;
#X connect 3 0 2 0;
#X coords 0 -1 1 1 24 24 2 0 0;
#X restore 95 83 pd getBkg;
#X text 25 63 capturar imagen como fondo;
#N canvas 1187 589 450 300 velocity 0;
#X obj 3 0 hsl 200 24 0 1 0 0 empty empty empty -2 -8 0 10 -262144
-1 -1 19900 1;
#X obj 0 55 pack f;
#X msg 0 77 /velocity \$1;
#X obj 0 -30 r of2_velocity;
#X obj 0 100 s of2_msgOSC;
#X msg 210 5 1;
#X obj 210 -17 loadbang;
#X connect 0 0 1 0;
#X connect 1 0 2 0;
#X connect 2 0 4 0;
#X connect 3 0 0 0;
#X connect 5 0 0 0;
#X connect 6 0 5 0;
#X coords 0 -1 1 1 205 24 2 0 0;
#X restore -322 589 pd velocity;
#N canvas 1187 589 450 300 velocityBkg 0;
#X obj 3 0 hsl 130 24 0 1 0 0 empty empty empty -2 -8 0 10 -262144
-1 -1 12900 1;
#X obj 0 55 pack f;
#X obj 0 100 s of2_msgOSC;
#X obj 0 -30 r of2_velocityBkg;
#X msg 0 77 /velocityBkg \$1;
#X msg 138 7 1;
#X obj 138 -15 loadbang;
#X connect 0 0 1 0;
#X connect 1 0 4 0;
#X connect 3 0 0 0;
#X connect 4 0 2 0;
#X connect 5 0 0 0;
#X connect 6 0 5 0;
#X coords 0 -1 1 1 135 24 2 0 0;
#X restore -323 115 pd velocityBkg;
#X text -323 143 velocidad fondo;
#X text -108 593 velocidad;
#X text 221 179 mask mode (background color \, stela \, video);
#X text -172 630 Mode (Interface \, Sierpinski \, mask \, narrative)
;
#X text 100 473 espejo;
#N canvas 1194 520 450 300 invert 0;
#X obj 0 0 tgl 24 0 empty empty empty 17 7 0 10 -262144 -1 -1 0 1;
#X obj 0 31 pack f;
#X msg 0 53 /invert \$1;
#X obj 0 76 s of2_msgOSC;
#X obj 0 -21 r of2_invert;
#X connect 0 0 1 0;
#X connect 1 0 2 0;
#X connect 2 0 3 0;
#X connect 4 0 0 0;
#X coords 0 -1 1 1 24 24 2 0 0;
#X restore 68 468 pd invert;
#N canvas 201 416 444 206 rgb_mascara 0;
#X obj 0 145 s of2_msgOSC;
#X obj 3 0 hsl 200 24 0 255 0 0 empty empty empty -2 -8 0 10 -262144
-1 -1 0 1;
#X obj 212 0 hsl 200 24 0 255 0 0 empty empty empty -2 -8 0 10 -262144
-1 -1 0 1;
#X obj 0 101 pack f f;
#X msg 209 98 bang;
#X obj 0 -21 r of2_e4;
#X obj 208 -21 r of2_f4;
#X msg 0 123 /contrast 4 \$1 \$2;
#X obj 3 28 hsl 200 24 0 255 0 0 empty empty empty -2 -8 0 10 -262144
-1 -1 0 1;
#X obj 212 28 hsl 200 24 0 255 0 0 empty empty empty -2 -8 0 10 -262144
-1 -1 0 1;
#X obj 0 56 pack f f;
#X msg 209 53 bang;
#X obj 60 -21 r of2_e5;
#X obj 268 -21 r of2_f5;
#X msg 0 78 /contrast 5 \$1 \$2;
#X connect 1 0 3 0;
#X connect 2 0 3 1;
#X connect 2 0 4 0;
#X connect 3 0 7 0;
#X connect 4 0 1 0;
#X connect 5 0 1 0;
#X connect 6 0 2 0;
#X connect 7 0 0 0;
#X connect 8 0 10 0;
#X connect 9 0 10 1;
#X connect 9 0 11 0;
#X connect 10 0 14 0;
#X connect 11 0 8 0;
#X connect 12 0 8 0;
#X connect 13 0 9 0;
#X connect 14 0 0 0;
#X coords 0 -1 1 1 414 52 2 0 0;
#X restore 98 318 pd rgb_mascara;
#X text 98 301 Contraste agujeros;
#X text 518 12 Stream data;
#N canvas 233 194 94 132 streaming 0;
#X obj 0 0 tgl 24 0 empty empty empty 17 7 0 10 -257985 -1 -1 0 1;
#X obj 0 76 s of2_msgOSC;
#X obj 0 31 pack f;
#X obj 0 -21 r of2_streaming;
#X msg 0 53 /streaming \$1;
#X connect 0 0 2 0;
#X connect 2 0 4 0;
#X connect 3 0 0 0;
#X connect 4 0 1 0;
#X coords 0 -1 1 1 24 24 2 0 0;
#X restore 488 9 pd streaming;
#N canvas 1201 627 450 300 invert 0;
#X obj 0 0 tgl 24 0 empty empty empty 17 7 0 10 -262144 -1 -1 0 1;
#X obj 0 31 pack f;
#X obj 0 76 s of2_msgOSC;
#X msg 0 53 /syphon \$1;
#X obj 0 -21 r of2_syphon;
#X connect 0 0 1 0;
#X connect 1 0 3 0;
#X connect 3 0 2 0;
#X connect 4 0 0 0;
#X coords 0 -1 1 1 24 24 2 0 0;
#X restore 68 439 pd invert;
#X text 101 444 syphon;
#X text 129 120 sustracci칩n;
#N canvas 1201 627 450 300 sustract 0;
#X obj 0 0 tgl 24 0 empty empty empty 17 7 0 10 -262144 -1 -1 1 1;
#X obj 0 31 pack f;
#X obj 0 76 s of2_msgOSC;
#X msg 0 53 /sustract \$1;
#X obj 0 -21 r of2_sustract;
#X obj 106 -20 loadbang;
#X msg 106 4 1;
#X connect 0 0 1 0;
#X connect 1 0 3 0;
#X connect 3 0 2 0;
#X connect 4 0 0 0;
#X connect 5 0 6 0;
#X connect 6 0 0 0;
#X coords 0 -1 1 1 24 24 2 0 0;
#X restore 96 115 pd sustract;
#X text -77 191 invertir en negativo;
#N canvas 329 520 450 300 negative 0;
#X obj 0 0 tgl 24 0 empty empty empty 17 7 0 10 -262144 -1 -1 0 1;
#X obj 0 31 pack f;
#X obj 0 76 s of2_msgOSC;
#X obj 0 -21 r of2_negative;
#X msg 0 53 /negative \$1;
#X connect 0 0 1 0;
#X connect 1 0 4 0;
#X connect 3 0 0 0;
#X connect 4 0 2 0;
#X coords 0 -1 1 1 24 24 2 0 0;
#X restore -110 186 pd negative;
#N canvas 917 591 433 250 Emperador 0;
#X obj 100 141 metro 500;
#X obj 100 163 s of2_background;
#X obj 130 100 hsl 200 24 20 5000 1 0 empty empty empty -2 -8 0 10
-262144 -1 -1 0 1;
#X obj 100 100 tgl 24 0 empty empty empty 17 7 0 10 -262144 -1 -1 0
1;
#X connect 0 0 1 0;
#X connect 2 0 0 1;
#X connect 3 0 0 0;
#X coords 0 -1 1 1 232 24 2 100 100;
#X restore 237 90 pd Emperador;
#X text 262 69 Emperador (Background metro);
#X obj 205 430 of2_contect_trigger_mago;
#N canvas 1041 615 295 276 reset 0;
#X obj 0 0 bng 15 250 50 0 empty empty empty 17 7 0 10 -262144 -1 -1
;
#X obj 0 85 s of2_msgOSC;
#X obj 0 40 pack f;
#X obj 0 -22 r of2_reset_save;
#X msg 0 62 /resetSave \$1;
#X msg 0 19 0;
#X connect 0 0 5 0;
#X connect 2 0 4 0;
#X connect 3 0 0 0;
#X connect 4 0 1 0;
#X connect 5 0 2 0;
#X coords 0 -1 1 1 15 15 2 0 0;
#X restore 76 523 pd reset;
#X text 96 521 reset num recording;
#X obj 205 454 of2_contect_trigger_fortuna;
#X connect 11 0 12 0;
#X connect 29 0 13 0;
