#N canvas 220 22 566 996 10;
#X floatatom 10 33 5 0 0 0 - - -;
#X floatatom 62 33 5 0 0 0 - - -;
#X floatatom 115 33 5 0 0 0 - - -;
#X obj 115 59 route 0 1;
#X obj 140 81 s start_sound_0;
#X obj 115 101 s stop_sound_0;
#X obj 10 10 VHPdataReceive 1 0;
#X floatatom 10 153 5 0 0 0 - - -;
#X floatatom 62 153 5 0 0 0 - - -;
#X floatatom 115 153 5 0 0 0 - - -;
#X obj 115 179 route 0 1;
#X obj 10 130 VHPdataReceive 1 1;
#X obj 140 201 s start_sound_1;
#X obj 115 221 s stop_sound_1;
#X floatatom 10 273 5 0 0 0 - - -;
#X floatatom 62 273 5 0 0 0 - - -;
#X floatatom 115 273 5 0 0 0 - - -;
#X obj 115 299 route 0 1;
#X floatatom 10 393 5 0 0 0 - - -;
#X floatatom 62 393 5 0 0 0 - - -;
#X floatatom 115 393 5 0 0 0 - - -;
#X obj 115 419 route 0 1;
#X obj 10 250 VHPdataReceive 1 2;
#X obj 10 370 VHPdataReceive 1 3;
#X obj 140 321 s start_sound_2;
#X obj 115 341 s stop_sound_2;
#X obj 140 441 s start_sound_3;
#X obj 115 461 s stop_sound_3;
#X floatatom 10 523 5 0 0 0 - - -;
#X floatatom 62 523 5 0 0 0 - - -;
#X floatatom 115 523 5 0 0 0 - - -;
#X obj 115 549 route 0 1;
#X floatatom 10 643 5 0 0 0 - - -;
#X floatatom 62 643 5 0 0 0 - - -;
#X floatatom 115 643 5 0 0 0 - - -;
#X obj 115 669 route 0 1;
#X floatatom 10 763 5 0 0 0 - - -;
#X floatatom 62 763 5 0 0 0 - - -;
#X floatatom 115 763 5 0 0 0 - - -;
#X obj 115 789 route 0 1;
#X floatatom 10 883 5 0 0 0 - - -;
#X floatatom 62 883 5 0 0 0 - - -;
#X floatatom 115 883 5 0 0 0 - - -;
#X obj 115 909 route 0 1;
#X obj 10 500 VHPdataReceive 1 4;
#X obj 10 620 VHPdataReceive 1 5;
#X obj 10 740 VHPdataReceive 1 6;
#X obj 10 860 VHPdataReceive 1 7;
#X obj 140 571 s start_sound_4;
#X obj 115 591 s stop_sound_4;
#X obj 140 691 s start_sound_5;
#X obj 115 711 s stop_sound_5;
#X obj 140 811 s start_sound_6;
#X obj 115 831 s stop_sound_6;
#X obj 140 931 s start_sound_7;
#X obj 115 951 s stop_sound_7;
#X floatatom 270 43 5 0 0 0 - - -;
#X floatatom 322 43 5 0 0 0 - - -;
#X floatatom 375 43 5 0 0 0 - - -;
#X obj 375 69 route 0 1;
#X floatatom 270 163 5 0 0 0 - - -;
#X floatatom 322 163 5 0 0 0 - - -;
#X floatatom 375 163 5 0 0 0 - - -;
#X obj 375 189 route 0 1;
#X floatatom 270 283 5 0 0 0 - - -;
#X floatatom 322 283 5 0 0 0 - - -;
#X floatatom 375 283 5 0 0 0 - - -;
#X obj 375 309 route 0 1;
#X floatatom 270 403 5 0 0 0 - - -;
#X floatatom 322 403 5 0 0 0 - - -;
#X floatatom 375 403 5 0 0 0 - - -;
#X obj 375 429 route 0 1;
#X floatatom 270 533 5 0 0 0 - - -;
#X floatatom 322 533 5 0 0 0 - - -;
#X floatatom 375 533 5 0 0 0 - - -;
#X obj 375 559 route 0 1;
#X floatatom 270 653 5 0 0 0 - - -;
#X floatatom 322 653 5 0 0 0 - - -;
#X floatatom 375 653 5 0 0 0 - - -;
#X obj 375 679 route 0 1;
#X floatatom 270 773 5 0 0 0 - - -;
#X floatatom 322 773 5 0 0 0 - - -;
#X floatatom 375 773 5 0 0 0 - - -;
#X obj 375 799 route 0 1;
#X floatatom 270 893 5 0 0 0 - - -;
#X floatatom 322 893 5 0 0 0 - - -;
#X floatatom 375 893 5 0 0 0 - - -;
#X obj 375 919 route 0 1;
#X obj 270 20 VHPdataReceive 1 8;
#X obj 400 91 s start_sound_8;
#X obj 375 111 s stop_sound_8;
#X obj 270 140 VHPdataReceive 1 9;
#X obj 400 211 s start_sound_9;
#X obj 375 231 s stop_sound_9;
#X obj 270 260 VHPdataReceive 1 10;
#X obj 400 331 s start_sound_10;
#X obj 375 351 s stop_sound_10;
#X obj 400 451 s start_sound_11;
#X obj 270 380 VHPdataReceive 1 11;
#X obj 375 471 s stop_sound_11;
#X obj 270 510 VHPdataReceive 1 12;
#X obj 400 581 s start_sound_12;
#X obj 375 601 s stop_sound_12;
#X obj 270 630 VHPdataReceive 1 13;
#X obj 400 701 s start_sound_13;
#X obj 375 721 s stop_sound_13;
#X obj 270 750 VHPdataReceive 1 14;
#X obj 400 821 s start_sound_14;
#X obj 375 841 s stop_sound_14;
#X obj 270 870 VHPdataReceive 1 15;
#X obj 400 941 s start_sound_15;
#X obj 375 961 s stop_sound_15;
#X connect 2 0 3 0;
#X connect 3 0 5 0;
#X connect 3 1 4 0;
#X connect 6 0 0 0;
#X connect 6 1 1 0;
#X connect 6 2 2 0;
#X connect 9 0 10 0;
#X connect 10 0 13 0;
#X connect 10 1 12 0;
#X connect 11 0 7 0;
#X connect 11 1 8 0;
#X connect 11 2 9 0;
#X connect 16 0 17 0;
#X connect 17 0 25 0;
#X connect 17 1 24 0;
#X connect 20 0 21 0;
#X connect 21 0 27 0;
#X connect 21 1 26 0;
#X connect 22 0 14 0;
#X connect 22 1 15 0;
#X connect 22 2 16 0;
#X connect 23 0 18 0;
#X connect 23 1 19 0;
#X connect 23 2 20 0;
#X connect 30 0 31 0;
#X connect 31 0 49 0;
#X connect 31 1 48 0;
#X connect 34 0 35 0;
#X connect 35 0 51 0;
#X connect 35 1 50 0;
#X connect 38 0 39 0;
#X connect 39 0 53 0;
#X connect 39 1 52 0;
#X connect 42 0 43 0;
#X connect 43 0 55 0;
#X connect 43 1 54 0;
#X connect 44 0 28 0;
#X connect 44 1 29 0;
#X connect 44 2 30 0;
#X connect 45 0 32 0;
#X connect 45 1 33 0;
#X connect 45 2 34 0;
#X connect 46 0 36 0;
#X connect 46 1 37 0;
#X connect 46 2 38 0;
#X connect 47 0 40 0;
#X connect 47 1 41 0;
#X connect 47 2 42 0;
#X connect 58 0 59 0;
#X connect 59 0 90 0;
#X connect 59 1 89 0;
#X connect 62 0 63 0;
#X connect 63 0 93 0;
#X connect 63 1 92 0;
#X connect 66 0 67 0;
#X connect 67 0 96 0;
#X connect 67 1 95 0;
#X connect 70 0 71 0;
#X connect 71 0 99 0;
#X connect 71 1 97 0;
#X connect 74 0 75 0;
#X connect 75 0 102 0;
#X connect 75 1 101 0;
#X connect 78 0 79 0;
#X connect 79 0 105 0;
#X connect 79 1 104 0;
#X connect 82 0 83 0;
#X connect 83 0 108 0;
#X connect 83 1 107 0;
#X connect 86 0 87 0;
#X connect 87 0 111 0;
#X connect 87 1 110 0;
#X connect 88 0 56 0;
#X connect 88 1 57 0;
#X connect 88 2 58 0;
#X connect 91 0 60 0;
#X connect 91 1 61 0;
#X connect 91 2 62 0;
#X connect 94 0 64 0;
#X connect 94 1 65 0;
#X connect 94 2 66 0;
#X connect 98 0 68 0;
#X connect 98 1 69 0;
#X connect 98 2 70 0;
#X connect 100 0 72 0;
#X connect 100 1 73 0;
#X connect 100 2 74 0;
#X connect 103 0 76 0;
#X connect 103 1 77 0;
#X connect 103 2 78 0;
#X connect 106 0 80 0;
#X connect 106 1 81 0;
#X connect 106 2 82 0;
#X connect 109 0 84 0;
#X connect 109 1 85 0;
#X connect 109 2 86 0;
