#N canvas 293 189 1253 805 10;
#X obj 0 0 cnv 15 648 324 empty empty empty 20 12 0 14 -99865 -66577
0;
#X obj 431 107 tgl 108 0 empty empty empty 17 7 0 10 -262144 -1 -1
0 1;
#X obj 35 251 tgl 36 0 empty empty empty 17 7 0 10 -262144 -1 -1 0
1;
#X obj 251 251 tgl 36 0 empty empty empty 17 7 0 10 -262144 -1 -1 0
1;
#X obj 359 251 tgl 36 0 empty empty empty 17 7 0 10 -262144 -1 -1 0
1;
#X obj 575 251 tgl 36 0 empty empty empty 17 7 0 10 -262144 -1 -1 0
1;
#X obj 251 143 tgl 36 0 empty empty empty 17 7 0 10 -262144 -1 -1 0
1;
#X obj 359 143 tgl 36 0 empty empty empty 17 7 0 10 -262144 -1 -1 0
1;
#X obj 35 143 tgl 36 0 empty empty empty 17 7 0 10 -262144 -1 -1 0
1;
#X obj 575 143 tgl 36 0 empty empty empty 17 7 0 10 -262144 -1 -1 0
1;
#X obj 11 11 tgl 12 0 empty empty empty 17 7 0 10 -262144 -1 -1 0 1
;
#X obj 47 11 tgl 12 0 empty empty empty 17 7 0 10 -262144 -1 -1 0 1
;
#X obj 83 11 tgl 12 0 empty empty empty 17 7 0 10 -262144 -1 -1 0 1
;
#X obj 119 11 tgl 12 0 empty empty empty 17 7 0 10 -262144 -1 -1 0
1;
#X obj 155 11 tgl 12 0 empty empty empty 17 7 0 10 -262144 -1 -1 0
1;
#X obj 191 11 tgl 12 0 empty empty empty 17 7 0 10 -262144 -1 -1 0
1;
#X obj 227 11 tgl 12 0 empty empty empty 17 7 0 10 -262144 -1 -1 0
1;
#X obj 263 11 tgl 12 0 empty empty empty 17 7 0 10 -262144 -1 -1 0
1;
#X obj 299 11 tgl 12 0 empty empty empty 17 7 0 10 -262144 -1 -1 0
1;
#X obj 335 11 tgl 12 0 empty empty empty 17 7 0 10 -262144 -1 -1 0
1;
#X obj 371 11 tgl 12 0 empty empty empty 17 7 0 10 -262144 -1 -1 0
1;
#X obj 407 11 tgl 12 0 empty empty empty 17 7 0 10 -262144 -1 -1 0
1;
#X obj 443 11 tgl 12 0 empty empty empty 17 7 0 10 -262144 -1 -1 0
1;
#X obj 479 11 tgl 12 0 empty empty empty 17 7 0 10 -262144 -1 -1 0
1;
#X obj 515 11 tgl 12 0 empty empty empty 17 7 0 10 -262144 -1 -1 0
1;
#X obj 551 11 tgl 12 0 empty empty empty 17 7 0 10 -262144 -1 -1 0
1;
#X obj 587 11 tgl 12 0 empty empty empty 17 7 0 10 -262144 -1 -1 0
1;
#X obj 623 11 tgl 12 0 empty empty empty 17 7 0 10 -262144 -1 -1 0
1;
#X obj 11 47 tgl 12 0 empty empty empty 17 7 0 10 -262144 -1 -1 0 1
;
#X obj 107 107 tgl 108 0 empty empty empty 17 7 0 10 -262144 -1 -1
0 1;
#X obj 83 47 tgl 12 0 empty empty empty 17 7 0 10 -262144 -1 -1 0 1
;
#X obj 227 47 tgl 12 0 empty empty empty 17 7 0 10 -262144 -1 -1 0
1;
#X obj 299 47 tgl 12 0 empty empty empty 17 7 0 10 -262144 -1 -1 0
1;
#X obj 335 47 tgl 12 0 empty empty empty 17 7 0 10 -262144 -1 -1 0
1;
#X obj 407 47 tgl 12 0 empty empty empty 17 7 0 10 -262144 -1 -1 0
1;
#X obj 551 47 tgl 12 0 empty empty empty 17 7 0 10 -262144 -1 -1 0
1;
#X obj 623 47 tgl 12 0 empty empty empty 17 7 0 10 -262144 -1 -1 0
1;
#X obj 467 35 tgl 36 0 empty empty empty 17 7 0 10 -262144 -1 -1 0
1;
#X obj 467 251 tgl 36 0 empty empty empty 17 7 0 10 -262144 -1 -1 0
1;
#X obj 143 35 tgl 36 0 empty empty empty 17 7 0 10 -262144 -1 -1 0
1;
#X obj 143 251 tgl 36 0 empty empty empty 17 7 0 10 -262144 -1 -1 0
1;
#X obj 119 47 tgl 12 0 empty empty empty 17 7 0 10 -262144 -1 -1 0
1;
#X obj 191 47 tgl 12 0 empty empty empty 17 7 0 10 -262144 -1 -1 0
1;
#X obj 443 47 tgl 12 0 empty empty empty 17 7 0 10 -262144 -1 -1 0
1;
#X obj 515 47 tgl 12 0 empty empty empty 17 7 0 10 -262144 -1 -1 0
1;
#X obj 35 35 tgl 36 0 empty empty empty 17 7 0 10 -262144 -1 -1 0 1
;
#X obj 251 35 tgl 36 0 empty empty empty 17 7 0 10 -262144 -1 -1 0
1;
#X obj 359 35 tgl 36 0 empty empty empty 17 7 0 10 -262144 -1 -1 0
1;
#X obj 575 35 tgl 36 0 empty empty empty 17 7 0 10 -262144 -1 -1 0
1;
#X text 3 -69 1 toggle \, 2 trigger \, 3 average;
#X obj 732 -20 VHPdataToggle 2 0 2;
#X obj 732 10 VHPdataMsg 2 0 2;
#X obj 853 -20 VHPdataToggle 2 1 2;
#X obj 853 10 VHPdataMsg 2 1 2;
#X obj 974 -20 VHPdataToggle 2 2 2;
#X obj 974 10 VHPdataMsg 2 2 2;
#X obj 1095 -19 VHPdataToggle 2 3 2;
#X obj 1095 11 VHPdataMsg 2 3 2;
#X obj 1216 -19 VHPdataToggle 2 4 2;
#X obj 1216 11 VHPdataMsg 2 4 2;
#X obj 1337 -19 VHPdataToggle 2 5 2;
#X obj 1337 11 VHPdataMsg 2 5 2;
#X obj 1458 -19 VHPdataToggle 2 6 2;
#X obj 1458 11 VHPdataMsg 2 6 2;
#X obj 1579 -19 VHPdataToggle 2 7 2;
#X obj 1579 11 VHPdataMsg 2 7 2;
#X obj 1700 -19 VHPdataToggle 2 8 2;
#X obj 1700 11 VHPdataMsg 2 8 2;
#X obj 1821 -18 VHPdataToggle 2 9 2;
#X obj 1821 12 VHPdataMsg 2 9 2;
#X obj 1942 -18 VHPdataToggle 2 10 2;
#X obj 1942 12 VHPdataMsg 2 10 2;
#X obj 2069 -18 VHPdataToggle 2 11 2;
#X obj 2069 12 VHPdataMsg 2 11 2;
#X obj 2196 -18 VHPdataToggle 2 12 2;
#X obj 2196 12 VHPdataMsg 2 12 2;
#X obj 2323 -18 VHPdataToggle 2 13 2;
#X obj 2323 12 VHPdataMsg 2 13 2;
#X obj 2450 -18 VHPdataToggle 2 14 2;
#X obj 2450 12 VHPdataMsg 2 14 2;
#X obj 2577 -18 VHPdataToggle 2 15 2;
#X obj 2577 12 VHPdataMsg 2 15 2;
#X obj 2704 -18 VHPdataToggle 2 16 2;
#X obj 2704 12 VHPdataMsg 2 16 2;
#X obj 2831 -18 VHPdataToggle 2 17 2;
#X obj 2831 12 VHPdataMsg 2 17 2;
#X obj 729 35 VHPdataToggle 2 18 2;
#X obj 729 65 VHPdataMsg 2 18 2;
#X obj 965 35 VHPdataToggle 2 19 2;
#X obj 965 65 VHPdataMsg 2 19 2;
#X obj 1092 36 VHPdataToggle 2 20 2;
#X obj 1092 66 VHPdataMsg 2 20 2;
#X obj 1328 36 VHPdataToggle 2 21 2;
#X obj 1328 66 VHPdataMsg 2 21 2;
#X obj 1455 36 VHPdataToggle 2 22 2;
#X obj 1455 66 VHPdataMsg 2 22 2;
#X obj 1691 36 VHPdataToggle 2 23 2;
#X obj 1691 66 VHPdataMsg 2 23 2;
#X obj 1818 37 VHPdataToggle 2 24 2;
#X obj 1818 67 VHPdataMsg 2 24 2;
#X obj 2066 37 VHPdataToggle 2 25 2;
#X obj 2066 66 VHPdataMsg 2 25 2;
#X obj 2193 37 VHPdataToggle 26 2;
#X obj 2193 67 VHPdataMsg 2 26 2;
#X obj 2447 37 VHPdataToggle 2 27 2;
#X obj 2447 67 VHPdataMsg 2 27 2;
#X obj 2574 37 VHPdataToggle 2 28 2;
#X obj 2574 67 VHPdataMsg 2 28 2;
#X obj 2828 37 VHPdataToggle 2 29 2;
#X obj 2828 67 VHPdataMsg 2 29 2;
#X obj 47 83 tgl 12 0 empty empty empty 17 7 0 10 -262144 -1 -1 0 1
;
#X obj 83 83 tgl 12 0 empty empty empty 17 7 0 10 -262144 -1 -1 0 1
;
#X obj 119 83 tgl 12 0 empty empty empty 17 7 0 10 -262144 -1 -1 0
1;
#X obj 155 83 tgl 12 0 empty empty empty 17 7 0 10 -262144 -1 -1 0
1;
#X obj 191 83 tgl 12 0 empty empty empty 17 7 0 10 -262144 -1 -1 0
1;
#X obj 227 83 tgl 12 0 empty empty empty 17 7 0 10 -262144 -1 -1 0
1;
#X obj 263 83 tgl 12 0 empty empty empty 17 7 0 10 -262144 -1 -1 0
1;
#X obj 299 83 tgl 12 0 empty empty empty 17 7 0 10 -262144 -1 -1 0
1;
#X obj 335 83 tgl 12 0 empty empty empty 17 7 0 10 -262144 -1 -1 0
1;
#X obj 371 83 tgl 12 0 empty empty empty 17 7 0 10 -262144 -1 -1 0
1;
#X obj 407 83 tgl 12 0 empty empty empty 17 7 0 10 -262144 -1 -1 0
1;
#X obj 443 83 tgl 12 0 empty empty empty 17 7 0 10 -262144 -1 -1 0
1;
#X obj 479 83 tgl 12 0 empty empty empty 17 7 0 10 -262144 -1 -1 0
1;
#X obj 515 83 tgl 12 0 empty empty empty 17 7 0 10 -262144 -1 -1 0
1;
#X obj 551 83 tgl 12 0 empty empty empty 17 7 0 10 -262144 -1 -1 0
1;
#X obj 587 83 tgl 12 0 empty empty empty 17 7 0 10 -262144 -1 -1 0
1;
#X obj 623 83 tgl 12 0 empty empty empty 17 7 0 10 -262144 -1 -1 0
1;
#X obj 11 83 tgl 12 0 empty empty empty 17 7 0 10 -262144 -1 -1 0 1
;
#X obj 724 86 VHPdataToggle 2 30 2;
#X obj 724 116 VHPdataMsg 2 30 2;
#X obj 851 86 VHPdataToggle 2 31 2;
#X obj 851 116 VHPdataMsg 2 31 2;
#X obj 978 86 VHPdataToggle 2 32 2;
#X obj 978 116 VHPdataMsg 2 32 2;
#X obj 1105 87 VHPdataToggle 2 33 2;
#X obj 1105 117 VHPdataMsg 2 33 2;
#X obj 1232 87 VHPdataToggle 2 34 2;
#X obj 1232 117 VHPdataMsg 2 34 2;
#X obj 1359 87 VHPdataToggle 2 35 2;
#X obj 1359 117 VHPdataMsg 2 35 2;
#X obj 1486 87 VHPdataToggle 2 36 2;
#X obj 1486 117 VHPdataMsg 2 36 2;
#X obj 1613 87 VHPdataToggle 2 37 2;
#X obj 1613 117 VHPdataMsg 2 37 2;
#X obj 1740 87 VHPdataToggle 2 38 2;
#X obj 1740 117 VHPdataMsg 2 38 2;
#X obj 1867 88 VHPdataToggle 2 39 2;
#X obj 1867 118 VHPdataMsg 2 39 2;
#X obj 1994 88 VHPdataToggle 2 40 2;
#X obj 1994 118 VHPdataMsg 2 40 2;
#X obj 2121 88 VHPdataToggle 2 41 2;
#X obj 2121 118 VHPdataMsg 2 41 2;
#X obj 2248 88 VHPdataToggle 2 42 2;
#X obj 2248 118 VHPdataMsg 2 42 2;
#X obj 2375 88 VHPdataToggle 2 43 2;
#X obj 2375 118 VHPdataMsg 2 43 2;
#X obj 2502 88 VHPdataToggle 2 44 2;
#X obj 2502 118 VHPdataMsg 2 44 2;
#X obj 2629 88 VHPdataToggle 2 45 2;
#X obj 2629 118 VHPdataMsg 2 45 2;
#X obj 2756 88 VHPdataToggle 2 46 2;
#X obj 2756 118 VHPdataMsg 2 46 2;
#X obj 2883 88 VHPdataToggle 2 47 2;
#X obj 2883 118 VHPdataMsg 2 47 2;
#X obj 47 119 tgl 12 0 empty empty empty 17 7 0 10 -262144 -1 -1 0
1;
#X obj 83 119 tgl 12 0 empty empty empty 17 7 0 10 -262144 -1 -1 0
1;
#X obj 227 119 tgl 12 0 empty empty empty 17 7 0 10 -262144 -1 -1 0
1;
#X obj 263 119 tgl 12 0 empty empty empty 17 7 0 10 -262144 -1 -1 0
1;
#X obj 299 119 tgl 12 0 empty empty empty 17 7 0 10 -262144 -1 -1 0
1;
#X obj 335 119 tgl 12 0 empty empty empty 17 7 0 10 -262144 -1 -1 0
1;
#X obj 371 119 tgl 12 0 empty empty empty 17 7 0 10 -262144 -1 -1 0
1;
#X obj 407 119 tgl 12 0 empty empty empty 17 7 0 10 -262144 -1 -1 0
1;
#X obj 551 119 tgl 12 0 empty empty empty 17 7 0 10 -262144 -1 -1 0
1;
#X obj 587 119 tgl 12 0 empty empty empty 17 7 0 10 -262144 -1 -1 0
1;
#X obj 623 119 tgl 12 0 empty empty empty 17 7 0 10 -262144 -1 -1 0
1;
#X obj 725 159 VHPdataToggle 2 48 2;
#X obj 725 189 VHPdataMsg 2 48 2;
#X obj 852 159 VHPdataToggle 2 49 2;
#X obj 852 189 VHPdataMsg 2 49 2;
#X obj 979 159 VHPdataToggle 2 50 2;
#X obj 979 189 VHPdataMsg 2 50 2;
#X obj 1487 160 VHPdataToggle 2 51 2;
#X obj 1487 190 VHPdataMsg 2 51 2;
#X obj 1614 160 VHPdataToggle 2 52 2;
#X obj 1614 190 VHPdataMsg 2 52 2;
#X obj 1741 160 VHPdataToggle 2 53 2;
#X obj 1741 190 VHPdataMsg 2 53 2;
#X obj 1868 161 VHPdataToggle 2 54 2;
#X obj 1868 191 VHPdataMsg 2 54 2;
#X obj 1995 161 VHPdataToggle 2 55 2;
#X obj 1995 191 VHPdataMsg 2 55 2;
#X obj 2122 161 VHPdataToggle 2 56 2;
#X obj 2122 191 VHPdataMsg 2 56 2;
#X obj 2630 161 VHPdataToggle 2 57 2;
#X obj 2630 191 VHPdataMsg 2 57 2;
#X obj 2757 161 VHPdataToggle 2 58 2;
#X obj 2757 191 VHPdataMsg 2 58 2;
#X obj 2884 161 VHPdataToggle 2 59 2;
#X obj 2884 191 VHPdataMsg 2 59 2;
#X obj 11 119 tgl 12 0 empty empty empty 17 7 0 10 -262144 -1 -1 0
1;
#X obj 83 155 tgl 12 0 empty empty empty 17 7 0 10 -262144 -1 -1 0
1;
#X obj 227 155 tgl 12 0 empty empty empty 17 7 0 10 -262144 -1 -1 0
1;
#X obj 299 155 tgl 12 0 empty empty empty 17 7 0 10 -262144 -1 -1 0
1;
#X obj 335 155 tgl 12 0 empty empty empty 17 7 0 10 -262144 -1 -1 0
1;
#X obj 407 155 tgl 12 0 empty empty empty 17 7 0 10 -262144 -1 -1 0
1;
#X obj 551 155 tgl 12 0 empty empty empty 17 7 0 10 -262144 -1 -1 0
1;
#X obj 623 155 tgl 12 0 empty empty empty 17 7 0 10 -262144 -1 -1 0
1;
#X obj 11 155 tgl 12 0 empty empty empty 17 7 0 10 -262144 -1 -1 0
1;
#X obj 726 216 VHPdataToggle 2 60 2;
#X obj 726 246 VHPdataMsg 2 60 2;
#X obj 980 216 VHPdataToggle 2 61 2;
#X obj 980 246 VHPdataMsg 2 61 2;
#X obj 1488 217 VHPdataToggle 2 62 2;
#X obj 1488 247 VHPdataMsg 2 62 2;
#X obj 1742 217 VHPdataToggle 2 63 2;
#X obj 1742 247 VHPdataMsg 2 63 2;
#X obj 1869 218 VHPdataToggle 2 64 2;
#X obj 1869 248 VHPdataMsg 2 64 2;
#X obj 2123 218 VHPdataToggle 2 65 2;
#X obj 2123 248 VHPdataMsg 2 65 2;
#X obj 2631 218 VHPdataToggle 2 66 2;
#X obj 2631 248 VHPdataMsg 2 66 2;
#X obj 2885 218 VHPdataToggle 2 67 2;
#X obj 2885 248 VHPdataMsg 2 67 2;
#X obj 47 191 tgl 12 0 empty empty empty 17 7 0 10 -262144 -1 -1 0
1;
#X obj 83 191 tgl 12 0 empty empty empty 17 7 0 10 -262144 -1 -1 0
1;
#X obj 227 191 tgl 12 0 empty empty empty 17 7 0 10 -262144 -1 -1 0
1;
#X obj 263 191 tgl 12 0 empty empty empty 17 7 0 10 -262144 -1 -1 0
1;
#X obj 299 191 tgl 12 0 empty empty empty 17 7 0 10 -262144 -1 -1 0
1;
#X obj 335 191 tgl 12 0 empty empty empty 17 7 0 10 -262144 -1 -1 0
1;
#X obj 371 191 tgl 12 0 empty empty empty 17 7 0 10 -262144 -1 -1 0
1;
#X obj 407 191 tgl 12 0 empty empty empty 17 7 0 10 -262144 -1 -1 0
1;
#X obj 551 191 tgl 12 0 empty empty empty 17 7 0 10 -262144 -1 -1 0
1;
#X obj 587 191 tgl 12 0 empty empty empty 17 7 0 10 -262144 -1 -1 0
1;
#X obj 623 191 tgl 12 0 empty empty empty 17 7 0 10 -262144 -1 -1 0
1;
#X obj 11 191 tgl 12 0 empty empty empty 17 7 0 10 -262144 -1 -1 0
1;
#X obj 731 280 VHPdataToggle 2 68 2;
#X obj 731 310 VHPdataMsg 2 68 2;
#X obj 858 280 VHPdataToggle 2 69 2;
#X obj 858 310 VHPdataMsg 2 69 2;
#X obj 985 280 VHPdataToggle 2 70 2;
#X obj 985 310 VHPdataMsg 2 70 2;
#X obj 1493 281 VHPdataToggle 2 71 2;
#X obj 1493 311 VHPdataMsg 2 71 2;
#X obj 1620 281 VHPdataToggle 2 72 2;
#X obj 1620 311 VHPdataMsg 2 72 2;
#X obj 1747 281 VHPdataToggle 2 73 2;
#X obj 1747 311 VHPdataMsg 2 73 2;
#X obj 1874 282 VHPdataToggle 2 74 2;
#X obj 1874 312 VHPdataMsg 2 74 2;
#X obj 2001 282 VHPdataToggle 2 75 2;
#X obj 2001 312 VHPdataMsg 2 75 2;
#X obj 2128 282 VHPdataToggle 2 76 2;
#X obj 2128 312 VHPdataMsg 2 76 2;
#X obj 2636 282 VHPdataToggle 2 77 2;
#X obj 2636 312 VHPdataMsg 2 77 2;
#X obj 2763 282 VHPdataToggle 2 78 2;
#X obj 2763 312 VHPdataMsg 2 78 2;
#X obj 2890 282 VHPdataToggle 2 79 2;
#X obj 2890 312 VHPdataMsg 2 79 2;
#X obj 47 227 tgl 12 0 empty empty empty 17 7 0 10 -262144 -1 -1 0
1;
#X obj 83 227 tgl 12 0 empty empty empty 17 7 0 10 -262144 -1 -1 0
1;
#X obj 119 227 tgl 12 0 empty empty empty 17 7 0 10 -262144 -1 -1 0
1;
#X obj 155 227 tgl 12 0 empty empty empty 17 7 0 10 -262144 -1 -1 0
1;
#X obj 191 227 tgl 12 0 empty empty empty 17 7 0 10 -262144 -1 -1 0
1;
#X obj 227 227 tgl 12 0 empty empty empty 17 7 0 10 -262144 -1 -1 0
1;
#X obj 263 227 tgl 12 0 empty empty empty 17 7 0 10 -262144 -1 -1 0
1;
#X obj 299 227 tgl 12 0 empty empty empty 17 7 0 10 -262144 -1 -1 0
1;
#X obj 335 227 tgl 12 0 empty empty empty 17 7 0 10 -262144 -1 -1 0
1;
#X obj 371 227 tgl 12 0 empty empty empty 17 7 0 10 -262144 -1 -1 0
1;
#X obj 407 227 tgl 12 0 empty empty empty 17 7 0 10 -262144 -1 -1 0
1;
#X obj 443 227 tgl 12 0 empty empty empty 17 7 0 10 -262144 -1 -1 0
1;
#X obj 479 227 tgl 12 0 empty empty empty 17 7 0 10 -262144 -1 -1 0
1;
#X obj 515 227 tgl 12 0 empty empty empty 17 7 0 10 -262144 -1 -1 0
1;
#X obj 551 227 tgl 12 0 empty empty empty 17 7 0 10 -262144 -1 -1 0
1;
#X obj 587 227 tgl 12 0 empty empty empty 17 7 0 10 -262144 -1 -1 0
1;
#X obj 623 227 tgl 12 0 empty empty empty 17 7 0 10 -262144 -1 -1 0
1;
#X obj 11 263 tgl 12 0 empty empty empty 17 7 0 10 -262144 -1 -1 0
1;
#X obj 83 263 tgl 12 0 empty empty empty 17 7 0 10 -262144 -1 -1 0
1;
#X obj 227 263 tgl 12 0 empty empty empty 17 7 0 10 -262144 -1 -1 0
1;
#X obj 299 263 tgl 12 0 empty empty empty 17 7 0 10 -262144 -1 -1 0
1;
#X obj 335 263 tgl 12 0 empty empty empty 17 7 0 10 -262144 -1 -1 0
1;
#X obj 407 263 tgl 12 0 empty empty empty 17 7 0 10 -262144 -1 -1 0
1;
#X obj 551 263 tgl 12 0 empty empty empty 17 7 0 10 -262144 -1 -1 0
1;
#X obj 623 263 tgl 12 0 empty empty empty 17 7 0 10 -262144 -1 -1 0
1;
#X obj 119 263 tgl 12 0 empty empty empty 17 7 0 10 -262144 -1 -1 0
1;
#X obj 191 263 tgl 12 0 empty empty empty 17 7 0 10 -262144 -1 -1 0
1;
#X obj 443 263 tgl 12 0 empty empty empty 17 7 0 10 -262144 -1 -1 0
1;
#X obj 515 263 tgl 12 0 empty empty empty 17 7 0 10 -262144 -1 -1 0
1;
#X obj 47 299 tgl 12 0 empty empty empty 17 7 0 10 -262144 -1 -1 0
1;
#X obj 83 299 tgl 12 0 empty empty empty 17 7 0 10 -262144 -1 -1 0
1;
#X obj 119 299 tgl 12 0 empty empty empty 17 7 0 10 -262144 -1 -1 0
1;
#X obj 155 299 tgl 12 0 empty empty empty 17 7 0 10 -262144 -1 -1 0
1;
#X obj 191 299 tgl 12 0 empty empty empty 17 7 0 10 -262144 -1 -1 0
1;
#X obj 227 299 tgl 12 0 empty empty empty 17 7 0 10 -262144 -1 -1 0
1;
#X obj 263 299 tgl 12 0 empty empty empty 17 7 0 10 -262144 -1 -1 0
1;
#X obj 299 299 tgl 12 0 empty empty empty 17 7 0 10 -262144 -1 -1 0
1;
#X obj 335 299 tgl 12 0 empty empty empty 17 7 0 10 -262144 -1 -1 0
1;
#X obj 371 299 tgl 12 0 empty empty empty 17 7 0 10 -262144 -1 -1 0
1;
#X obj 407 299 tgl 12 0 empty empty empty 17 7 0 10 -262144 -1 -1 0
1;
#X obj 443 299 tgl 12 0 empty empty empty 17 7 0 10 -262144 -1 -1 0
1;
#X obj 479 299 tgl 12 0 empty empty empty 17 7 0 10 -262144 -1 -1 0
1;
#X obj 515 299 tgl 12 0 empty empty empty 17 7 0 10 -262144 -1 -1 0
1;
#X obj 551 299 tgl 12 0 empty empty empty 17 7 0 10 -262144 -1 -1 0
1;
#X obj 587 299 tgl 12 0 empty empty empty 17 7 0 10 -262144 -1 -1 0
1;
#X obj 623 299 tgl 12 0 empty empty empty 17 7 0 10 -262144 -1 -1 0
1;
#X obj 730 331 VHPdataToggle 2 80 2;
#X obj 730 361 VHPdataMsg 2 80 2;
#X obj 857 331 VHPdataToggle 2 81 2;
#X obj 857 361 VHPdataMsg 2 81 2;
#X obj 984 331 VHPdataToggle 2 82 2;
#X obj 984 361 VHPdataMsg 2 82 2;
#X obj 1110 332 VHPdataToggle 2 83 2;
#X obj 1110 362 VHPdataMsg 2 83 2;
#X obj 1237 332 VHPdataToggle 2 84 2;
#X obj 1237 362 VHPdataMsg 2 84 2;
#X obj 1363 332 VHPdataToggle 2 85 2;
#X obj 1363 362 VHPdataMsg 2 85 2;
#X obj 1489 332 VHPdataToggle 2 86 2;
#X obj 1489 362 VHPdataMsg 2 86 2;
#X obj 1616 332 VHPdataToggle 2 87 2;
#X obj 1616 362 VHPdataMsg 2 87 2;
#X obj 1743 332 VHPdataToggle 2 88 2;
#X obj 1743 362 VHPdataMsg 2 88 2;
#X obj 1869 333 VHPdataToggle 2 89 2;
#X obj 1869 363 VHPdataMsg 2 89 2;
#X obj 1997 333 VHPdataToggle 2 90 2;
#X obj 1997 363 VHPdataMsg 2 90 2;
#X obj 2124 333 VHPdataToggle 2 91 2;
#X obj 2124 363 VHPdataMsg 2 91 2;
#X obj 2251 333 VHPdataToggle 2 92 2;
#X obj 2251 363 VHPdataMsg 2 92 2;
#X obj 2378 333 VHPdataToggle 2 93 2;
#X obj 2378 363 VHPdataMsg 2 93 2;
#X obj 2505 333 VHPdataToggle 2 94 2;
#X obj 2505 363 VHPdataMsg 2 94 2;
#X obj 2632 333 VHPdataToggle 2 95 2;
#X obj 2632 363 VHPdataMsg 2 95 2;
#X obj 2759 333 VHPdataToggle 2 96 2;
#X obj 2759 363 VHPdataMsg 2 96 2;
#X obj 2886 333 VHPdataToggle 2 97 2;
#X obj 2886 363 VHPdataMsg 2 97 2;
#X obj 11 227 tgl 12 0 empty empty empty 17 7 0 10 -262144 -1 -1 0
1;
#X obj 733 387 VHPdataToggle 2 98 2;
#X obj 733 417 VHPdataMsg 2 98 2;
#X obj 969 387 VHPdataToggle 2 99 2;
#X obj 969 417 VHPdataMsg 2 99 2;
#X obj 1096 388 VHPdataToggle 2 100 2;
#X obj 1096 418 VHPdataMsg 2 100 2;
#X obj 1332 388 VHPdataToggle 2 101 2;
#X obj 1332 418 VHPdataMsg 2 101 2;
#X obj 1465 388 VHPdataToggle 2 102 2;
#X obj 1465 418 VHPdataMsg 2 102 2;
#X obj 1695 388 VHPdataToggle 2 103 2;
#X obj 1695 418 VHPdataMsg 2 103 2;
#X obj 1828 389 VHPdataToggle 2 104 2;
#X obj 1828 419 VHPdataMsg 2 104 2;
#X obj 2070 389 VHPdataToggle 2 105 2;
#X obj 2070 418 VHPdataMsg 2 105 2;
#X obj 2203 389 VHPdataToggle 106 2;
#X obj 2203 419 VHPdataMsg 2 106 2;
#X obj 2451 389 VHPdataToggle 2 107 2;
#X obj 2451 419 VHPdataMsg 2 107 2;
#X obj 2584 389 VHPdataToggle 2 108 2;
#X obj 2584 419 VHPdataMsg 2 108 2;
#X obj 2832 389 VHPdataToggle 2 109 2;
#X obj 2832 419 VHPdataMsg 2 109 2;
#X obj 734 442 VHPdataToggle 2 110 2;
#X obj 734 472 VHPdataMsg 2 110 2;
#X obj 867 442 VHPdataToggle 2 111 2;
#X obj 867 472 VHPdataMsg 2 111 2;
#X obj 1001 442 VHPdataToggle 2 112 2;
#X obj 1001 472 VHPdataMsg 2 112 2;
#X obj 1134 443 VHPdataToggle 2 113 2;
#X obj 1134 473 VHPdataMsg 2 113 2;
#X obj 1267 443 VHPdataToggle 2 114 2;
#X obj 1267 473 VHPdataMsg 2 114 2;
#X obj 1401 443 VHPdataToggle 2 115 2;
#X obj 1401 473 VHPdataMsg 2 115 2;
#X obj 1535 443 VHPdataToggle 2 116 2;
#X obj 1535 473 VHPdataMsg 2 116 2;
#X obj 1669 443 VHPdataToggle 2 117 2;
#X obj 1669 473 VHPdataMsg 2 117 2;
#X obj 1802 443 VHPdataToggle 2 118 2;
#X obj 1802 473 VHPdataMsg 2 118 2;
#X obj 1935 444 VHPdataToggle 2 119 2;
#X obj 1935 474 VHPdataMsg 2 119 2;
#X obj 2068 444 VHPdataToggle 2 120 2;
#X obj 2068 474 VHPdataMsg 2 120 2;
#X obj 2201 444 VHPdataToggle 2 121 2;
#X obj 2201 474 VHPdataMsg 2 121 2;
#X obj 2333 444 VHPdataToggle 2 122 2;
#X obj 2333 474 VHPdataMsg 2 122 2;
#X obj 2466 444 VHPdataToggle 2 123 2;
#X obj 2466 474 VHPdataMsg 2 123 2;
#X obj 2599 445 VHPdataToggle 2 124 2;
#X obj 2599 474 VHPdataMsg 2 124 2;
#X obj 2732 444 VHPdataToggle 2 125 2;
#X obj 2732 474 VHPdataMsg 2 125 2;
#X obj 2865 444 VHPdataToggle 2 126 2;
#X obj 2865 474 VHPdataMsg 2 126 2;
#X obj 2998 444 VHPdataToggle 2 127 2;
#X obj 2998 474 VHPdataMsg 2 127 2;
#X obj 11 299 tgl 12 0 empty empty empty 17 7 0 10 -262144 -1 -1 0
1;
#X obj 289 -228 VHPdataToggle 1 0 2;
#X obj 289 -198 VHPdataMsg 1 0 2;
#X obj 418 -228 VHPdataToggle 1 1 2;
#X obj 418 -198 VHPdataMsg 1 1 2;
#X obj 547 -198 VHPdataMsg 1 2 2;
#X obj 547 -228 VHPdataToggle 1 2 2;
#X obj 675 -227 VHPdataToggle 1 3 2;
#X obj 675 -197 VHPdataMsg 1 3 2;
#X obj 802 -227 VHPdataToggle 1 4 2;
#X obj 802 -197 VHPdataMsg 1 4 2;
#X obj 929 -227 VHPdataToggle 1 5 2;
#X obj 929 -197 VHPdataMsg 1 5 2;
#X obj 286 -159 VHPdataToggle 1 6 2;
#X obj 286 -129 VHPdataMsg 1 6 2;
#X obj 544 -159 VHPdataToggle 1 7 2;
#X obj 544 -129 VHPdataMsg 1 7 2;
#X obj 672 -158 VHPdataToggle 1 8 2;
#X obj 672 -128 VHPdataMsg 1 8 2;
#X obj 926 -158 VHPdataToggle 1 9 2;
#X obj 926 -128 VHPdataMsg 1 9 2;
#X obj 288 -94 VHPdataToggle 1 10 2;
#X obj 288 -65 VHPdataMsg 1 10 2;
#X obj 417 -94 VHPdataToggle 1 11 2;
#X obj 417 -64 VHPdataMsg 1 11 2;
#X obj 546 -94 VHPdataToggle 1 12 2;
#X obj 546 -64 VHPdataMsg 1 12 2;
#X obj 674 -93 VHPdataToggle 1 13 2;
#X obj 674 -63 VHPdataMsg 1 13 2;
#X obj 801 -93 VHPdataToggle 1 14 2;
#X obj 801 -63 VHPdataMsg 1 14 2;
#X obj 928 -93 VHPdataToggle 1 15 2;
#X obj 928 -63 VHPdataMsg 1 15 2;
#X obj 449 449 VHPdataToggle 0 0 2;
#X obj 449 479 VHPdataMsg 0 0 2;
#X obj 578 449 VHPdataToggle 0 1 2;
#X obj 578 479 VHPdataMsg 0 1 2;
#X obj -444 -229 r of2_sierpinski_trigger_1_10;
#X obj -427 -208 r of2_sierpinski_trigger_1_11;
#X obj -404 -187 r of2_sierpinski_trigger_1_12;
#X obj -381 -164 r of2_sierpinski_trigger_1_13;
#X obj -363 -141 r of2_sierpinski_trigger_1_14;
#X obj -342 -118 r of2_sierpinski_trigger_1_15;
#X obj -161 -155 r of2_sierpinski_trigger_1_9;
#X obj -182 -176 r of2_sierpinski_trigger_1_8;
#X obj -207 -197 r of2_sierpinski_trigger_1_7;
#X obj -235 -218 r of2_sierpinski_trigger_1_6;
#X obj -41 -231 r of2_sierpinski_trigger_1_0;
#X obj -22 -208 r of2_sierpinski_trigger_1_1;
#X obj -1 -185 r of2_sierpinski_trigger_1_2;
#X obj 21 -162 r of2_sierpinski_trigger_1_3;
#X obj 40 -139 r of2_sierpinski_trigger_1_4;
#X obj 61 -116 r of2_sierpinski_trigger_1_5;
#X obj 32 -47 r of2_sierpinski_trigger_0_0;
#X obj 69 -27 r of2_sierpinski_trigger_0_1;
#X connect 1 0 438 0;
#X connect 2 0 424 0;
#X connect 3 0 428 0;
#X connect 4 0 430 0;
#X connect 5 0 434 0;
#X connect 6 0 418 0;
#X connect 7 0 420 0;
#X connect 8 0 416 0;
#X connect 9 0 422 0;
#X connect 10 0 50 0;
#X connect 11 0 52 0;
#X connect 12 0 54 0;
#X connect 13 0 56 0;
#X connect 14 0 58 0;
#X connect 15 0 60 0;
#X connect 16 0 62 0;
#X connect 17 0 64 0;
#X connect 18 0 66 0;
#X connect 19 0 68 0;
#X connect 20 0 70 0;
#X connect 21 0 72 0;
#X connect 22 0 74 0;
#X connect 23 0 76 0;
#X connect 24 0 78 0;
#X connect 25 0 80 0;
#X connect 26 0 82 0;
#X connect 27 0 84 0;
#X connect 28 0 86 0;
#X connect 29 0 436 0;
#X connect 30 0 88 0;
#X connect 31 0 94 0;
#X connect 32 0 96 0;
#X connect 33 0 98 0;
#X connect 34 0 100 0;
#X connect 35 0 106 0;
#X connect 36 0 108 0;
#X connect 37 0 412 0;
#X connect 38 0 432 0;
#X connect 39 0 406 0;
#X connect 40 0 426 0;
#X connect 41 0 90 0;
#X connect 42 0 92 0;
#X connect 43 0 102 0;
#X connect 44 0 104 0;
#X connect 45 0 404 0;
#X connect 46 0 409 0;
#X connect 47 0 410 0;
#X connect 48 0 414 0;
#X connect 50 0 51 0;
#X connect 50 1 10 0;
#X connect 52 0 53 0;
#X connect 52 1 11 0;
#X connect 54 0 55 0;
#X connect 54 1 12 0;
#X connect 56 0 57 0;
#X connect 56 1 13 0;
#X connect 58 0 59 0;
#X connect 58 1 14 0;
#X connect 60 0 61 0;
#X connect 60 1 15 0;
#X connect 62 0 63 0;
#X connect 62 1 16 0;
#X connect 64 0 65 0;
#X connect 64 1 17 0;
#X connect 66 0 67 0;
#X connect 66 1 18 0;
#X connect 68 0 69 0;
#X connect 68 1 19 0;
#X connect 70 0 71 0;
#X connect 70 1 20 0;
#X connect 72 0 73 0;
#X connect 72 1 21 0;
#X connect 74 0 75 0;
#X connect 74 1 22 0;
#X connect 76 0 77 0;
#X connect 76 1 23 0;
#X connect 78 0 79 0;
#X connect 78 1 24 0;
#X connect 80 0 81 0;
#X connect 80 1 25 0;
#X connect 82 0 83 0;
#X connect 82 1 26 0;
#X connect 84 0 85 0;
#X connect 84 1 27 0;
#X connect 86 0 87 0;
#X connect 86 1 28 0;
#X connect 88 0 89 0;
#X connect 88 1 30 0;
#X connect 90 0 91 0;
#X connect 90 1 41 0;
#X connect 92 0 93 0;
#X connect 92 1 42 0;
#X connect 94 0 95 0;
#X connect 94 1 31 0;
#X connect 96 0 97 0;
#X connect 96 1 32 0;
#X connect 98 0 99 0;
#X connect 98 1 33 0;
#X connect 100 0 101 0;
#X connect 100 1 34 0;
#X connect 102 0 103 0;
#X connect 102 1 43 0;
#X connect 104 0 105 0;
#X connect 104 1 44 0;
#X connect 106 0 107 0;
#X connect 106 1 35 0;
#X connect 108 0 109 0;
#X connect 108 1 36 0;
#X connect 110 0 130 0;
#X connect 111 0 132 0;
#X connect 112 0 134 0;
#X connect 113 0 136 0;
#X connect 114 0 138 0;
#X connect 115 0 140 0;
#X connect 116 0 142 0;
#X connect 117 0 144 0;
#X connect 118 0 146 0;
#X connect 119 0 148 0;
#X connect 120 0 150 0;
#X connect 121 0 152 0;
#X connect 122 0 154 0;
#X connect 123 0 156 0;
#X connect 124 0 158 0;
#X connect 125 0 160 0;
#X connect 126 0 162 0;
#X connect 127 0 128 0;
#X connect 128 0 129 0;
#X connect 128 1 127 0;
#X connect 130 0 131 0;
#X connect 130 1 110 0;
#X connect 132 0 133 0;
#X connect 132 1 111 0;
#X connect 134 0 135 0;
#X connect 134 1 112 0;
#X connect 136 0 137 0;
#X connect 136 1 113 0;
#X connect 138 0 139 0;
#X connect 138 1 114 0;
#X connect 140 0 141 0;
#X connect 140 1 115 0;
#X connect 142 0 143 0;
#X connect 142 1 116 0;
#X connect 144 0 145 0;
#X connect 144 1 117 0;
#X connect 146 0 147 0;
#X connect 146 1 118 0;
#X connect 148 0 149 0;
#X connect 148 1 119 0;
#X connect 150 0 151 0;
#X connect 150 1 120 0;
#X connect 152 0 153 0;
#X connect 152 1 121 0;
#X connect 154 0 155 0;
#X connect 154 1 122 0;
#X connect 156 0 157 0;
#X connect 156 1 123 0;
#X connect 158 0 159 0;
#X connect 158 1 124 0;
#X connect 160 0 161 0;
#X connect 160 1 125 0;
#X connect 162 0 163 0;
#X connect 162 1 126 0;
#X connect 164 0 177 0;
#X connect 165 0 179 0;
#X connect 166 0 181 0;
#X connect 167 0 183 0;
#X connect 168 0 185 0;
#X connect 169 0 187 0;
#X connect 170 0 189 0;
#X connect 171 0 191 0;
#X connect 172 0 193 0;
#X connect 173 0 195 0;
#X connect 174 0 197 0;
#X connect 175 0 176 0;
#X connect 175 1 199 0;
#X connect 177 0 178 0;
#X connect 177 1 164 0;
#X connect 179 0 180 0;
#X connect 179 1 165 0;
#X connect 181 0 182 0;
#X connect 181 1 166 0;
#X connect 183 0 184 0;
#X connect 183 1 167 0;
#X connect 185 0 186 0;
#X connect 185 1 168 0;
#X connect 187 0 188 0;
#X connect 187 1 169 0;
#X connect 189 0 190 0;
#X connect 189 1 170 0;
#X connect 191 0 192 0;
#X connect 191 1 171 0;
#X connect 193 0 194 0;
#X connect 193 1 172 0;
#X connect 195 0 196 0;
#X connect 195 1 173 0;
#X connect 197 0 198 0;
#X connect 197 1 174 0;
#X connect 199 0 175 0;
#X connect 200 0 210 0;
#X connect 201 0 212 0;
#X connect 202 0 214 0;
#X connect 203 0 216 0;
#X connect 204 0 218 0;
#X connect 205 0 220 0;
#X connect 206 0 222 0;
#X connect 207 0 208 0;
#X connect 208 0 209 0;
#X connect 208 1 207 0;
#X connect 210 0 211 0;
#X connect 210 1 200 0;
#X connect 212 0 213 0;
#X connect 212 1 201 0;
#X connect 214 0 215 0;
#X connect 214 1 202 0;
#X connect 216 0 217 0;
#X connect 216 1 203 0;
#X connect 218 0 219 0;
#X connect 218 1 204 0;
#X connect 220 0 221 0;
#X connect 220 1 205 0;
#X connect 222 0 223 0;
#X connect 222 1 206 0;
#X connect 224 0 238 0;
#X connect 225 0 240 0;
#X connect 226 0 242 0;
#X connect 227 0 244 0;
#X connect 228 0 246 0;
#X connect 229 0 248 0;
#X connect 230 0 250 0;
#X connect 231 0 252 0;
#X connect 232 0 254 0;
#X connect 233 0 256 0;
#X connect 234 0 258 0;
#X connect 235 0 236 0;
#X connect 236 0 237 0;
#X connect 236 1 235 0;
#X connect 238 0 239 0;
#X connect 238 1 224 0;
#X connect 240 0 241 0;
#X connect 240 1 225 0;
#X connect 242 0 243 0;
#X connect 242 1 226 0;
#X connect 244 0 245 0;
#X connect 244 1 227 0;
#X connect 246 0 247 0;
#X connect 246 1 228 0;
#X connect 248 0 249 0;
#X connect 248 1 229 0;
#X connect 250 0 251 0;
#X connect 250 1 230 0;
#X connect 252 0 253 0;
#X connect 252 1 231 0;
#X connect 254 0 255 0;
#X connect 254 1 232 0;
#X connect 256 0 257 0;
#X connect 256 1 233 0;
#X connect 258 0 259 0;
#X connect 258 1 234 0;
#X connect 260 0 308 0;
#X connect 261 0 310 0;
#X connect 262 0 312 0;
#X connect 263 0 314 0;
#X connect 264 0 316 0;
#X connect 265 0 318 0;
#X connect 266 0 320 0;
#X connect 267 0 322 0;
#X connect 268 0 324 0;
#X connect 269 0 326 0;
#X connect 270 0 328 0;
#X connect 271 0 330 0;
#X connect 272 0 332 0;
#X connect 273 0 334 0;
#X connect 274 0 336 0;
#X connect 275 0 338 0;
#X connect 276 0 340 0;
#X connect 277 0 343 0;
#X connect 278 0 345 0;
#X connect 279 0 351 0;
#X connect 280 0 353 0;
#X connect 281 0 355 0;
#X connect 282 0 357 0;
#X connect 283 0 363 0;
#X connect 284 0 365 0;
#X connect 285 0 347 0;
#X connect 286 0 349 0;
#X connect 287 0 359 0;
#X connect 288 0 361 0;
#X connect 289 0 369 0;
#X connect 290 0 371 0;
#X connect 291 0 373 0;
#X connect 292 0 375 0;
#X connect 293 0 377 0;
#X connect 294 0 379 0;
#X connect 295 0 381 0;
#X connect 296 0 383 0;
#X connect 297 0 385 0;
#X connect 298 0 387 0;
#X connect 299 0 389 0;
#X connect 300 0 391 0;
#X connect 301 0 393 0;
#X connect 302 0 395 0;
#X connect 303 0 397 0;
#X connect 304 0 399 0;
#X connect 305 0 401 0;
#X connect 306 0 307 0;
#X connect 306 1 342 0;
#X connect 308 0 309 0;
#X connect 308 1 260 0;
#X connect 310 0 311 0;
#X connect 310 1 261 0;
#X connect 312 0 313 0;
#X connect 312 1 262 0;
#X connect 314 0 315 0;
#X connect 314 1 263 0;
#X connect 316 0 317 0;
#X connect 316 1 264 0;
#X connect 318 0 319 0;
#X connect 318 1 265 0;
#X connect 320 0 321 0;
#X connect 320 1 266 0;
#X connect 322 0 323 0;
#X connect 322 1 267 0;
#X connect 324 0 325 0;
#X connect 324 1 268 0;
#X connect 326 0 327 0;
#X connect 326 1 269 0;
#X connect 328 0 329 0;
#X connect 328 1 270 0;
#X connect 330 0 331 0;
#X connect 330 1 271 0;
#X connect 332 0 333 0;
#X connect 332 1 272 0;
#X connect 334 0 335 0;
#X connect 334 1 273 0;
#X connect 336 0 337 0;
#X connect 336 1 274 0;
#X connect 338 0 339 0;
#X connect 338 1 275 0;
#X connect 340 0 341 0;
#X connect 340 1 276 0;
#X connect 342 0 306 0;
#X connect 343 0 344 0;
#X connect 343 1 277 0;
#X connect 345 0 346 0;
#X connect 345 1 278 0;
#X connect 347 0 348 0;
#X connect 347 1 285 0;
#X connect 349 0 350 0;
#X connect 349 1 286 0;
#X connect 351 0 352 0;
#X connect 351 1 279 0;
#X connect 353 0 354 0;
#X connect 353 1 280 0;
#X connect 355 0 356 0;
#X connect 355 1 281 0;
#X connect 357 0 358 0;
#X connect 357 1 282 0;
#X connect 359 0 360 0;
#X connect 359 1 287 0;
#X connect 361 0 362 0;
#X connect 361 1 288 0;
#X connect 363 0 364 0;
#X connect 363 1 283 0;
#X connect 365 0 366 0;
#X connect 365 1 284 0;
#X connect 367 0 368 0;
#X connect 367 1 403 0;
#X connect 369 0 370 0;
#X connect 369 1 289 0;
#X connect 371 0 372 0;
#X connect 371 1 290 0;
#X connect 373 0 374 0;
#X connect 373 1 291 0;
#X connect 375 0 376 0;
#X connect 375 1 292 0;
#X connect 377 0 378 0;
#X connect 377 1 293 0;
#X connect 379 0 380 0;
#X connect 379 1 294 0;
#X connect 381 0 382 0;
#X connect 381 1 295 0;
#X connect 383 0 384 0;
#X connect 383 1 296 0;
#X connect 385 0 386 0;
#X connect 385 1 297 0;
#X connect 387 0 388 0;
#X connect 387 1 298 0;
#X connect 389 0 390 0;
#X connect 389 1 299 0;
#X connect 391 0 392 0;
#X connect 391 1 300 0;
#X connect 393 0 394 0;
#X connect 393 1 301 0;
#X connect 395 0 396 0;
#X connect 395 1 302 0;
#X connect 397 0 398 0;
#X connect 397 1 303 0;
#X connect 399 0 400 0;
#X connect 399 1 304 0;
#X connect 401 0 402 0;
#X connect 401 1 305 0;
#X connect 403 0 367 0;
#X connect 404 0 405 0;
#X connect 404 1 45 0;
#X connect 406 0 407 0;
#X connect 406 1 39 0;
#X connect 409 0 408 0;
#X connect 409 1 46 0;
#X connect 410 0 411 0;
#X connect 410 1 47 0;
#X connect 412 0 413 0;
#X connect 412 1 37 0;
#X connect 414 0 415 0;
#X connect 414 1 48 0;
#X connect 416 0 417 0;
#X connect 416 1 8 0;
#X connect 418 0 419 0;
#X connect 418 1 6 0;
#X connect 420 0 421 0;
#X connect 420 1 7 0;
#X connect 422 0 423 0;
#X connect 422 1 9 0;
#X connect 424 0 425 0;
#X connect 424 1 2 0;
#X connect 426 0 427 0;
#X connect 426 1 40 0;
#X connect 428 0 429 0;
#X connect 428 1 3 0;
#X connect 430 0 431 0;
#X connect 430 1 4 0;
#X connect 432 0 433 0;
#X connect 432 1 38 0;
#X connect 434 0 435 0;
#X connect 434 1 5 0;
#X connect 436 0 437 0;
#X connect 436 1 29 0;
#X connect 438 0 439 0;
#X connect 438 1 1 0;
#X connect 440 0 2 0;
#X connect 441 0 40 0;
#X connect 442 0 3 0;
#X connect 443 0 4 0;
#X connect 444 0 38 0;
#X connect 445 0 5 0;
#X connect 446 0 9 0;
#X connect 447 0 7 0;
#X connect 448 0 6 0;
#X connect 449 0 8 0;
#X connect 450 0 45 0;
#X connect 451 0 39 0;
#X connect 452 0 46 0;
#X connect 453 0 47 0;
#X connect 454 0 37 0;
#X connect 455 0 48 0;
#X connect 456 0 29 0;
#X connect 457 0 1 0;
#X coords 0 -1 1 1 648 324 2 0 0;
