#N canvas 915 471 203 137 10;
#X obj 18 13 unpack f f f;
#X obj 18 36 outlet;
#X obj 52 57 outlet;
#X obj 87 77 outlet;
#X obj 18 -31 r of2_receiveOSC;
#X obj 18 -9 routeOSC /sierpinski_\$1/\$2;
#X obj 61 36 / 255;
#X connect 0 0 1 0;
#X connect 0 1 6 0;
#X connect 0 2 3 0;
#X connect 4 0 5 0;
#X connect 5 0 0 0;
#X connect 6 0 2 0;
