#N canvas 915 471 204 292 10;
#X obj 15 117 outlet;
#X obj 66 10 route 0 1;
#X obj 111 185 spigot;
#X msg 130 59 0;
#X msg 110 84 0;
#X msg 91 131 1;
#X obj 91 34 t b b b;
#X obj 111 163 r L_\$1_I_\$2;
#X obj 110 106 s L_\$1_I_\$2;
#X obj 15 -44 inlet;
#X obj 111 207 outlet;
#X obj 48 72 !=;
#X obj 15 95 spigot;
#X obj 15 -21 t f f f f;
#X connect 1 1 6 0;
#X connect 2 0 10 0;
#X connect 3 0 2 1;
#X connect 4 0 8 0;
#X connect 5 0 2 1;
#X connect 6 0 5 0;
#X connect 6 1 4 0;
#X connect 6 2 3 0;
#X connect 7 0 2 0;
#X connect 9 0 13 0;
#X connect 11 0 12 1;
#X connect 12 0 0 0;
#X connect 13 0 11 1;
#X connect 13 1 12 0;
#X connect 13 2 11 0;
#X connect 13 3 1 0;
