#N canvas 915 228 451 213 10;
#X obj 18 88 \$1;
#X obj 65 168 s of2_msgOSC;
#X msg 65 146 /sierpinski \$1 \$2 \$3 \$4;
#X text 221 147 Level \, Array Index \, Active \, Type;
#X obj 65 125 pack f f f f;
#X obj 46 88 \$2;
#X obj 80 18 inlet;
#X obj 58 53 t b b b;
#X obj 128 85 \$3;
#X connect 0 0 4 0;
#X connect 2 0 1 0;
#X connect 4 0 2 0;
#X connect 5 0 4 1;
#X connect 6 0 4 2;
#X connect 6 0 7 0;
#X connect 7 0 0 0;
#X connect 7 1 5 0;
#X connect 7 2 8 0;
#X connect 8 0 4 3;
