#N canvas 137 177 1347 762 10;
#X declare -lib mrpeach;
#X obj 134 -109 ctlin;
#X obj 63 61 spigot;
#X obj 96 26 == 0;
#X obj 76 87 spigot;
#X obj 109 52 == 1;
#X obj 87 112 spigot;
#X obj 100 138 spigot;
#X obj 120 77 == 2;
#X obj 133 103 == 3;
#X obj 114 165 spigot;
#X obj 127 191 spigot;
#X obj 138 216 spigot;
#X obj 151 242 spigot;
#X obj 147 130 == 4;
#X obj 160 156 == 5;
#X obj 171 181 == 6;
#X obj 184 207 == 7;
#X text 161 263 sliders;
#X obj 270 63 spigot;
#X obj 283 89 spigot;
#X obj 294 114 spigot;
#X obj 307 140 spigot;
#X obj 321 167 spigot;
#X obj 334 193 spigot;
#X obj 345 218 spigot;
#X obj 358 244 spigot;
#X obj 303 28 == 16;
#X obj 316 54 == 17;
#X obj 327 79 == 18;
#X obj 340 105 == 19;
#X obj 354 132 == 20;
#X obj 367 158 == 21;
#X obj 378 183 == 22;
#X obj 391 209 == 23;
#X text 361 271 potenciometer;
#X obj 525 48 spigot;
#X obj 558 13 == 32;
#X floatatom -11 8 5 0 0 0 - - -;
#X floatatom 32 8 5 0 0 0 - - -;
#N canvas 657 427 268 309 enviaOSC 0;
#X obj 20 -206 import mrpeach;
#X obj 18 -115 packOSC;
#X obj 0 -21 udpsend;
#X msg 11 -160 disconnect;
#X obj 0 0 tgl 15 0 empty empty connected 20 7 0 8 -24198 -1 -1 1 1
;
#X obj -19 -271 loadbang;
#X obj -19 -249 t b b b;
#X obj 18 -53 spigot;
#X obj 69 -114 print;
#X obj 79 0 tgl 15 0 empty empty sending 20 7 0 8 -24198 -1 -1 1 1
;
#X obj 18 -74 spigot;
#X obj 37 -271 inlet;
#X obj -19 -227 s of1_loadbang1;
#X msg 0 -182 connect 172.24.200.243 8000;
#X obj 18 -138 r of1_nano_msgOSC;
#X obj 87 -20 r of1_nano_loadbang_1;
#X connect 1 0 10 0;
#X connect 2 0 4 0;
#X connect 3 0 2 0;
#X connect 4 0 7 1;
#X connect 5 0 6 0;
#X connect 6 0 12 0;
#X connect 6 1 13 0;
#X connect 6 2 0 0;
#X connect 7 0 2 0;
#X connect 9 0 10 1;
#X connect 10 0 7 0;
#X connect 11 0 13 0;
#X connect 13 0 2 0;
#X connect 14 0 1 0;
#X connect 14 0 8 0;
#X connect 15 0 9 0;
#X coords 0 -1 1 1 135 15 2 0 0;
#X restore -252 14 pd enviaOSC;
#X obj -252 -14 bng 24 250 50 0 empty empty empty 17 7 0 10 -262144
-1 -1;
#X obj -339 127 * 2;
#X obj -104 12 tgl 15 0 empty empty empty 17 7 0 10 -262144 -1 -1 0
1;
#X obj -346 448 s of1_nano_msgOSC;
#X obj -339 152 pack f f;
#X msg -339 177 /nano/contraste \$1 \$2;
#X obj -286 127 * 2;
#X msg -273 151 bang;
#X obj -227 338 pack f;
#X obj -227 313 expr $f1*1000/127;
#X msg -227 363 /nano/stela \$1;
#X text 553 132 buttons;
#X obj 238 387 pack f;
#X msg 238 429 /nano/record \$1;
#X obj 238 362 == 127;
#X obj 521 376 pack f;
#X obj 521 351 == 127;
#X obj 543 82 spigot;
#X obj 576 47 == 33;
#X msg 521 419 /nano/invert \$1;
#X obj -107 339 pack f;
#X obj -107 314 expr $f1*1000/127;
#X msg -107 364 /nano/mixture \$1;
#X obj 32 345 pack f;
#X obj 32 320 expr $f1/127;
#X msg 32 370 /nano/velocity \$1;
#X obj -162 155 spigot;
#X obj -115 154 spigot;
#X obj -115 183 s of1_contraste_f;
#X obj -162 204 s of1_contraste_e;
#X obj -186 476 spigot;
#X obj -62 491 spigot;
#X obj -186 525 s of1_stela;
#X obj -62 520 s of1_mixture;
#X obj 150 510 spigot;
#X obj 283 387 spigot;
#X obj 150 559 s of1_velocity;
#X obj 566 375 spigot;
#X obj 566 397 s of1_invert;
#X obj 283 408 s of1_save;
#X connect 0 0 1 0;
#X connect 0 0 3 0;
#X connect 0 0 5 0;
#X connect 0 0 6 0;
#X connect 0 0 9 0;
#X connect 0 0 10 0;
#X connect 0 0 11 0;
#X connect 0 0 12 0;
#X connect 0 0 18 0;
#X connect 0 0 19 0;
#X connect 0 0 20 0;
#X connect 0 0 21 0;
#X connect 0 0 22 0;
#X connect 0 0 23 0;
#X connect 0 0 24 0;
#X connect 0 0 25 0;
#X connect 0 0 35 0;
#X connect 0 0 37 0;
#X connect 0 0 57 0;
#X connect 0 1 2 0;
#X connect 0 1 4 0;
#X connect 0 1 7 0;
#X connect 0 1 8 0;
#X connect 0 1 13 0;
#X connect 0 1 14 0;
#X connect 0 1 15 0;
#X connect 0 1 16 0;
#X connect 0 1 26 0;
#X connect 0 1 27 0;
#X connect 0 1 28 0;
#X connect 0 1 29 0;
#X connect 0 1 30 0;
#X connect 0 1 31 0;
#X connect 0 1 32 0;
#X connect 0 1 33 0;
#X connect 0 1 36 0;
#X connect 0 1 38 0;
#X connect 0 1 58 0;
#X connect 1 0 41 0;
#X connect 2 0 1 1;
#X connect 3 0 46 0;
#X connect 4 0 3 1;
#X connect 7 0 5 1;
#X connect 8 0 6 1;
#X connect 13 0 9 1;
#X connect 14 0 10 1;
#X connect 15 0 11 1;
#X connect 16 0 12 1;
#X connect 18 0 49 0;
#X connect 19 0 61 0;
#X connect 20 0 64 0;
#X connect 26 0 18 1;
#X connect 27 0 19 1;
#X connect 28 0 20 1;
#X connect 29 0 21 1;
#X connect 30 0 22 1;
#X connect 31 0 23 1;
#X connect 32 0 24 1;
#X connect 33 0 25 1;
#X connect 35 0 54 0;
#X connect 36 0 35 1;
#X connect 40 0 39 0;
#X connect 41 0 44 0;
#X connect 41 0 66 0;
#X connect 42 0 66 1;
#X connect 42 0 67 1;
#X connect 42 0 70 1;
#X connect 42 0 71 1;
#X connect 42 0 74 1;
#X connect 42 0 77 1;
#X connect 42 0 75 1;
#X connect 44 0 45 0;
#X connect 45 0 43 0;
#X connect 46 0 44 1;
#X connect 46 0 47 0;
#X connect 46 0 67 0;
#X connect 47 0 41 0;
#X connect 48 0 50 0;
#X connect 49 0 48 0;
#X connect 49 0 70 0;
#X connect 50 0 43 0;
#X connect 52 0 53 0;
#X connect 53 0 43 0;
#X connect 54 0 52 0;
#X connect 54 0 75 0;
#X connect 55 0 59 0;
#X connect 56 0 55 0;
#X connect 56 0 77 0;
#X connect 57 0 56 0;
#X connect 58 0 57 1;
#X connect 59 0 43 0;
#X connect 60 0 62 0;
#X connect 61 0 60 0;
#X connect 61 0 71 0;
#X connect 62 0 43 0;
#X connect 63 0 65 0;
#X connect 64 0 63 0;
#X connect 64 0 74 0;
#X connect 65 0 43 0;
#X connect 66 0 69 0;
#X connect 67 0 68 0;
#X connect 70 0 72 0;
#X connect 71 0 73 0;
#X connect 74 0 76 0;
#X connect 75 0 79 0;
#X connect 77 0 78 0;
