#N canvas 134 91 701 579 10;
#X obj 100 100 cnv 15 108 108 empty empty empty 20 12 0 14 -99865 -66577
0;
#X msg 103 55 1;
#X obj 103 32 loadbang;
#X obj 102 76 s grid_12_all_spigot;
#N canvas 845 160 755 540 toggle_sierpinski 0;
#X obj 100 184 s msgOSC;
#X obj 100 100 tgl 36 0 empty empty empty 17 7 0 10 -262144 -1 -1 0
1;
#X obj 100 141 pack f;
#X msg 100 162 /sierpinski_1 \$1 2 1;
#X connect 1 0 2 0;
#X connect 2 0 3 0;
#X connect 3 0 0 0;
#X coords 0 -1 1 1 36 36 2 100 100;
#X restore 136 136 pd toggle_sierpinski;
#X obj 232 521 s msgOSC;
#X obj 252 454 unpack f f f f;
#X msg 232 499 /sierpinski_2 \$1 \$2 \$3 \$4 \$5;
#X obj 232 478 pack f f f f f;
#X obj 183 112 grid_toggle_12;
#X obj 111 112 grid_toggle_12;
#X obj 183 148 grid_toggle_12;
#X obj 147 112 grid_toggle_12;
#X obj 111 184 grid_toggle_12;
#X obj 147 184 grid_toggle_12;
#X obj 183 184 grid_toggle_12;
#X obj 111 147 grid_toggle_12;
#X msg 279 220 2 1 0 0;
#X msg 399 326 2 1 2 2;
#X msg 279 275 2 1 0 1;
#X msg 280 326 2 1 0 2;
#X msg 339 326 2 1 1 2;
#X msg 338 220 2 1 1 0;
#X msg 398 220 2 1 2 0;
#X msg 399 275 2 1 2 1;
#X connect 1 0 3 0;
#X connect 2 0 1 0;
#X connect 6 0 8 1;
#X connect 6 1 8 2;
#X connect 6 2 8 3;
#X connect 6 3 8 4;
#X connect 7 0 5 0;
#X connect 8 0 7 0;
#X connect 9 0 23 0;
#X connect 9 0 8 0;
#X connect 10 0 17 0;
#X connect 10 0 8 0;
#X connect 11 0 24 0;
#X connect 11 0 8 0;
#X connect 12 0 22 0;
#X connect 12 0 8 0;
#X connect 13 0 20 0;
#X connect 13 0 8 0;
#X connect 14 0 21 0;
#X connect 14 0 8 0;
#X connect 15 0 18 0;
#X connect 15 0 8 0;
#X connect 16 0 19 0;
#X connect 16 0 8 0;
#X connect 17 0 6 0;
#X connect 18 0 6 0;
#X connect 19 0 6 0;
#X connect 20 0 6 0;
#X connect 21 0 6 0;
#X connect 22 0 6 0;
#X connect 23 0 6 0;
#X connect 24 0 6 0;
#X coords 0 -1 1 1 108 108 2 100 100;
