#N canvas 412 206 1268 799 10;
#X declare -lib mrpeach;
#X obj -10 98 unpackOSC;
#X obj -10 75 udpreceive 9000;
#X obj -9 45 import mrpeach;
#X obj -9 21 loadbang;
#X obj -9 121 routeOSC /horacio;
#X obj -9 145 routeOSC /test;
#X obj -9 169 routeOSC /bool;
#X floatatom -9 192 5 0 0 0 - - -;
#X connect 0 0 4 0;
#X connect 1 0 0 0;
#X connect 3 0 2 0;
#X connect 4 0 5 0;
#X connect 5 0 6 0;
#X connect 6 0 7 0;
