#N canvas 592 161 227 194 10;
#X msg 79 55 set open;
#X msg 52 75 add2 \$1;
#X obj 52 14 inlet;
#X obj 33 116 outlet;
#X msg 33 95 open ./wav/tranvia.wav;
#X obj 52 34 t a b;
#X obj 15 14 inlet;
#X msg 15 55 bang;
#X connect 0 0 4 0;
#X connect 1 0 4 0;
#X connect 2 0 5 0;
#X connect 4 0 3 0;
#X connect 5 0 1 0;
#X connect 5 1 0 0;
#X connect 6 0 7 0;
#X connect 7 0 4 0;
