#N canvas 1153 107 458 128 10;
#X declare -lib mrpeach;
#N canvas 233 194 138 129 salvar 0;
#X obj 0 0 tgl 24 0 empty empty empty 17 7 0 10 -258113 -1 -1 0 1;
#X obj 0 76 s ofbase_msgOSC;
#X obj 0 31 pack f;
#X msg 0 53 /save \$1;
#X obj 0 -21 r ofbase_save;
#X connect 0 0 2 0;
#X connect 2 0 3 0;
#X connect 3 0 1 0;
#X connect 4 0 0 0;
#X coords 0 -1 1 1 24 24 2 0 0;
#X restore -75 88 pd salvar;
#X text -45 91 Gravar;
#N canvas 953 249 417 439 reciveOSC 0;
#X obj -826 78 symbol;
#X obj -826 32 unpackOSC;
#X obj -826 54 routeOSC /saved /ofbase_settings;
#X obj -724 125 s ofbase_show;
#X obj -741 102 s ofbase_stela;
#X obj -707 151 s ofbase_e0;
#X obj -690 173 s ofbase_f0;
#X obj -673 197 s ofbase_e1;
#X obj -656 221 s ofbase_f1;
#X obj -639 242 s ofbase_e2;
#X obj -622 266 s ofbase_f2;
#X obj -605 287 s ofbase_e3;
#X obj -588 311 s ofbase_f3;
#X obj -741 80 unpack f f f f f f f f f f;
#X obj -567 122 delay 1;
#X msg -567 146 1;
#X obj -826 100 outlet;
#X obj -764 32 s ofbase_receiveOSC;
#X obj -567 166 s ofbase_loadbang_1;
#X obj -826 9 udpreceive 8003;
#X connect 0 0 16 0;
#X connect 1 0 2 0;
#X connect 1 1 17 0;
#X connect 2 0 0 0;
#X connect 2 1 13 0;
#X connect 13 0 4 0;
#X connect 13 1 3 0;
#X connect 13 2 5 0;
#X connect 13 3 6 0;
#X connect 13 4 7 0;
#X connect 13 5 8 0;
#X connect 13 6 9 0;
#X connect 13 7 10 0;
#X connect 13 8 11 0;
#X connect 13 9 12 0;
#X connect 13 9 14 0;
#X connect 14 0 15 0;
#X connect 15 0 18 0;
#X connect 19 0 1 0;
#X restore -123 8 pd reciveOSC;
#X symbolatom -123 29 40 0 0 0 - - -;
#N canvas 657 427 251 320 enviaOSC 0;
#X obj 20 -206 import mrpeach;
#X obj 18 -115 packOSC;
#X obj 0 -21 udpsend;
#X msg 11 -160 disconnect;
#X obj 0 0 tgl 15 0 empty empty connected 20 7 0 8 -24198 -1 -1 1 1
;
#X obj 18 -138 r ofbase_msgOSC;
#X obj -19 -271 loadbang;
#X obj -19 -249 t b b b;
#X obj 18 -53 spigot;
#X obj 69 -114 print;
#X obj 79 0 tgl 15 0 empty empty sending 20 7 0 8 -24198 -1 -1 1 1
;
#X obj 18 -74 spigot;
#X obj 37 -271 inlet;
#X obj 87 -20 r ofbase_loadbang_1;
#X obj -19 -227 s ofbase_loadbang1;
#X msg 0 -182 connect localhost 9003;
#X connect 1 0 11 0;
#X connect 2 0 4 0;
#X connect 3 0 2 0;
#X connect 4 0 8 1;
#X connect 5 0 1 0;
#X connect 5 0 9 0;
#X connect 6 0 7 0;
#X connect 7 0 14 0;
#X connect 7 1 15 0;
#X connect 7 2 0 0;
#X connect 8 0 2 0;
#X connect 10 0 11 1;
#X connect 11 0 8 0;
#X connect 12 0 15 0;
#X connect 13 0 10 0;
#X connect 15 0 2 0;
#X coords 0 -1 1 1 135 15 2 0 0;
#X restore -323 30 pd enviaOSC;
#N canvas 1127 641 450 300 player 0;
#X obj 0 83 s ofbase_msgOSC;
#X obj 0 38 pack f f;
#X obj 0 0 tgl 24 0 empty empty empty 17 7 0 10 -262144 -1 -1 1 1;
#X obj 32 0 hradio 24 1 0 10 empty empty empty 0 -8 0 10 -262144 -1
-1 0;
#X obj 32 -21 loadbang;
#X msg 0 60 /play \$1 \$2;
#X connect 1 0 5 0;
#X connect 2 0 1 0;
#X connect 3 0 1 1;
#X connect 4 0 3 0;
#X connect 5 0 0 0;
#X coords 0 -1 1 1 272 24 2 0 0;
#X restore -323 56 pd player;
#X text -46 59 Reproducir material gravado;
#X obj -323 2 bng 24 250 50 0 empty empty empty 17 7 0 10 -262144 -1
-1;
#N canvas 1187 589 292 181 velocity 0;
#X obj 0 100 s ofbase_msgOSC;
#X obj 3 0 hsl 200 24 0 1 0 0 empty empty empty -2 -8 0 10 -262144
-1 -1 4600 0;
#X obj 0 55 pack f;
#X msg 0 77 /velocity \$1;
#X obj 0 -30 r ofbase_velocity;
#X connect 1 0 2 0;
#X connect 2 0 3 0;
#X connect 3 0 0 0;
#X connect 4 0 1 0;
#X coords 0 -1 1 1 205 24 2 0 0;
#X restore -323 88 pd velocity;
#X connect 2 0 3 0;
#X connect 7 0 4 0;
