#N canvas 626 108 392 256 10;
#X declare -lib mrpeach;
#X obj 24 95 unpackOSC;
#X obj 25 48 import mrpeach;
#X obj 25 23 loadbang;
#X obj 24 162 unpack f f f;
#X floatatom 24 193 5 0 0 0 - - -;
#X floatatom 58 193 5 0 0 0 - - -;
#X floatatom 93 193 5 0 0 0 - - -;
#X obj 24 72 udpreceive 12002;
#X obj 135 160 unpack f f f;
#X floatatom 135 191 5 0 0 0 - - -;
#X floatatom 169 191 5 0 0 0 - - -;
#X floatatom 204 191 5 0 0 0 - - -;
#X obj 24 118 routeOSC /acc /ori /touch;
#X floatatom 246 192 5 0 0 0 - - -;
#X floatatom 303 193 5 0 0 0 - - -;
#X obj 246 161 unpack f f;
#X connect 0 0 12 0;
#X connect 2 0 1 0;
#X connect 3 0 4 0;
#X connect 3 1 5 0;
#X connect 3 2 6 0;
#X connect 7 0 0 0;
#X connect 8 0 9 0;
#X connect 8 1 10 0;
#X connect 8 2 11 0;
#X connect 12 0 3 0;
#X connect 12 1 8 0;
#X connect 12 2 15 0;
#X connect 15 0 13 0;
#X connect 15 1 14 0;
