#N canvas 495 146 840 739 10;
#X declare -lib mrpeach;
#X obj -110 49 import mrpeach;
#X obj -112 140 packOSC;
#X obj -130 184 udpsend;
#X msg -119 95 disconnect;
#X obj -130 205 tgl 15 0 empty empty connected 20 7 0 8 -24198 -241291
-1 1 1;
#X obj -112 117 r msgOSC;
#X obj -149 -16 loadbang;
#X obj -149 28 s loadbang1;
#X obj -149 6 t b b b;
#X obj -112 162 spigot;
#X obj 26 96 s msgOSC;
#X msg 26 73 /threshold \$1;
#X obj 26 51 pack f;
#X obj 29 6 hsl 128 15 0 255 0 0 empty empty empty -2 -8 0 10 -262144
-1 -1 0 1;
#X floatatom 26 27 5 0 0 0 - - -;
#X msg -130 73 connect localhost 9000;
#X obj -37 164 print;
#X obj 34 503 unpackOSC;
#X floatatom 34 573 5 0 0 0 - - -;
#X obj 34 526 routeOSC /sierpinski_0;
#X obj 34 480 udpreceive 8000;
#X floatatom 96 574 5 0 0 0 - - -;
#X obj 133 663 s led~9;
#X obj 258 124 grid_00;
#X obj 367 124 grid_01;
#X obj 476 124 grid_02;
#X obj 258 233 grid_10;
#X obj 476 233 grid_12;
#X obj 258 342 grid_20;
#X obj 367 342 grid_21;
#X obj 476 342 grid_22;
#N canvas 1116 121 341 405 toggle_sierpinski_0 0;
#X obj 100 100 tgl 108 0 empty empty empty 17 7 0 10 -262144 -1 -1
0 1;
#X obj 100 299 s msgOSC;
#X msg 100 276 /sierpinski_0 \$1 \$2;
#X obj 100 254 pack f f;
#X obj 145 233 r sierpinki_type;
#X connect 0 0 3 0;
#X connect 2 0 1 0;
#X connect 3 0 2 0;
#X connect 4 0 3 1;
#X coords 0 -1 1 1 108 108 2 100 100;
#X restore 367 233 pd toggle_sierpinski_0;
#X floatatom -133 575 5 0 0 0 - - -;
#X floatatom -71 576 5 0 0 0 - - -;
#X obj -133 528 routeOSC /sierpinski_1/2/0;
#X obj 34 548 unpack f f f;
#X obj -133 550 unpack f f f;
#X floatatom 133 575 5 0 0 0 - - -;
#N canvas 883 313 740 393 pruebas 0;
#X obj 90 -198 +;
#X obj 121 -199 f;
#X obj 90 -154 route 0 1;
#X obj 90 -176 == 2;
#X msg 121 -132 0;
#X msg 120 -112 bang;
#X obj 120 -92 tgl 15 0 empty empty empty 17 7 0 10 -262144 -1 -1 0
1;
#X obj 57 -176 == 1;
#X msg 50 -245 1;
#X obj 257 -102 s led~9;
#X obj 240 -151 route 0 1;
#X msg 220 -123 0;
#X obj 319 -120 f;
#X obj 326 -149 hsl 128 15 0 255 0 0 empty empty empty -2 -8 0 10 -262144
-1 -1 0 1;
#X msg 260 -127 bang;
#X obj -28 -303 metro 500;
#X obj 27 -323 hsl 128 15 0 5000 0 0 empty empty empty -2 -8 0 10 -262144
-1 -1 0 1;
#X obj -27 -281 bng 15 250 50 0 empty empty empty 17 7 0 10 -262144
-1 -1;
#X obj -19 -338 tgl 15 0 empty empty empty 17 7 0 10 -262144 -1 -1
0 1;
#X obj -6 -36 spigot;
#X connect 0 0 1 0;
#X connect 0 0 3 0;
#X connect 0 0 7 0;
#X connect 1 0 0 1;
#X connect 2 1 4 0;
#X connect 2 1 5 0;
#X connect 3 0 2 0;
#X connect 4 0 1 0;
#X connect 5 0 6 0;
#X connect 6 0 10 0;
#X connect 6 0 19 1;
#X connect 7 0 6 0;
#X connect 8 0 0 0;
#X connect 10 0 11 0;
#X connect 10 1 14 0;
#X connect 11 0 9 0;
#X connect 12 0 9 0;
#X connect 13 0 12 1;
#X connect 14 0 12 0;
#X connect 15 0 17 0;
#X connect 16 0 15 1;
#X connect 17 0 19 0;
#X connect 18 0 15 0;
#X restore 493 495 pd pruebas;
#X obj 258 67 hradio 24 1 0 3 empty empty empty 0 -8 0 10 -262144 -1
-1 1;
#X obj 258 99 s sierpinki_type;
#X obj 258 24 loadbang;
#X msg 258 45 0;
#X text 340 70 trigger toggle average;
#X obj 133 598 route 0 1;
#X obj 158 620 s start_sound_0;
#X obj 133 640 s stop_sound_0;
#X connect 1 0 9 0;
#X connect 2 0 4 0;
#X connect 3 0 2 0;
#X connect 4 0 9 1;
#X connect 5 0 1 0;
#X connect 5 0 16 0;
#X connect 6 0 8 0;
#X connect 8 0 7 0;
#X connect 8 1 15 0;
#X connect 8 2 0 0;
#X connect 9 0 2 0;
#X connect 11 0 10 0;
#X connect 12 0 11 0;
#X connect 13 0 14 0;
#X connect 14 0 12 0;
#X connect 15 0 2 0;
#X connect 17 0 19 0;
#X connect 17 0 34 0;
#X connect 19 0 35 0;
#X connect 20 0 17 0;
#X connect 34 0 36 0;
#X connect 35 0 18 0;
#X connect 35 1 21 0;
#X connect 35 2 37 0;
#X connect 36 0 32 0;
#X connect 36 1 33 0;
#X connect 37 0 44 0;
#X connect 39 0 40 0;
#X connect 41 0 42 0;
#X connect 42 0 39 0;
#X connect 44 0 46 0;
#X connect 44 1 45 0;
