#N canvas 943 56 536 570 10;
#X obj 100 100 cnv 15 108 108 empty empty empty 20 12 0 14 -99865 -66577
0;
#X msg 103 55 1;
#X obj 103 32 loadbang;
#X obj 102 76 s grid_20_all_spigot;
#X obj 111 112 grid_toggle_20;
#N canvas 845 160 355 299 toggle_sierpinski 0;
#X obj 100 184 s msgOSC;
#X obj 100 100 tgl 36 0 empty empty empty 17 7 0 10 -262144 -1 -1 0
1;
#X obj 100 141 pack f f;
#X msg 100 162 /sierpinski_1 \$1 \$2 0 2;
#X obj 145 116 r sierpinki_type;
#X connect 1 0 2 0;
#X connect 2 0 3 0;
#X connect 3 0 0 0;
#X connect 4 0 2 1;
#X coords 0 -1 1 1 36 36 2 100 100;
#X restore 136 136 pd toggle_sierpinski;
#X obj 232 521 s msgOSC;
#X obj 269 454 unpack f f f f;
#X msg 279 220 0 2 0 0;
#X msg 399 326 0 2 2 2;
#X msg 279 275 0 2 0 1;
#X msg 280 326 0 2 0 2;
#X msg 339 326 0 2 1 2;
#X msg 338 220 0 2 1 0;
#X msg 398 220 0 2 2 0;
#X msg 399 275 0 2 2 1;
#X obj 183 148 grid_toggle_20;
#X obj 147 112 grid_toggle_20;
#X obj 183 112 grid_toggle_20;
#X obj 111 184 grid_toggle_20;
#X obj 147 184 grid_toggle_20;
#X obj 183 184 grid_toggle_20;
#X obj 111 147 grid_toggle_20;
#X obj 250 432 r sierpinki_type;
#X obj 232 478 pack f f f f f f;
#X msg 232 499 /sierpinski_2 \$1 \$2 \$3 \$4 \$5 \$6;
#X connect 1 0 3 0;
#X connect 2 0 1 0;
#X connect 4 0 8 0;
#X connect 4 0 24 0;
#X connect 7 0 24 2;
#X connect 7 1 24 3;
#X connect 7 2 24 4;
#X connect 7 3 24 5;
#X connect 8 0 7 0;
#X connect 9 0 7 0;
#X connect 10 0 7 0;
#X connect 11 0 7 0;
#X connect 12 0 7 0;
#X connect 13 0 7 0;
#X connect 14 0 7 0;
#X connect 15 0 7 0;
#X connect 16 0 15 0;
#X connect 16 0 24 0;
#X connect 17 0 13 0;
#X connect 17 0 24 0;
#X connect 18 0 14 0;
#X connect 18 0 24 0;
#X connect 19 0 11 0;
#X connect 19 0 24 0;
#X connect 20 0 12 0;
#X connect 20 0 24 0;
#X connect 21 0 9 0;
#X connect 21 0 24 0;
#X connect 22 0 10 0;
#X connect 22 0 24 0;
#X connect 23 0 24 1;
#X connect 24 0 25 0;
#X connect 25 0 6 0;
#X coords 0 -1 1 1 108 108 2 100 100;
