#N canvas 623 468 450 300 10;
#X obj 100 100 tgl 24 0 empty empty empty 17 7 0 10 -262144 -1 -1 0
1;
#X obj 100 79 spigot;
#X msg 176 174 0;
#X msg 159 195 0;
#X obj 100 36 r grid_01_all;
#X obj 159 218 s grid_01_all;
#X msg 125 258 1;
#X obj 133 56 r grid_01_all_spigot;
#X obj 100 129 route 0 1;
#X obj 125 152 t b b b b;
#X obj 142 238 outlet;
#X connect 0 0 8 0;
#X connect 1 0 0 0;
#X connect 2 0 1 1;
#X connect 3 0 5 0;
#X connect 4 0 1 0;
#X connect 6 0 1 1;
#X connect 7 0 1 1;
#X connect 8 1 9 0;
#X connect 9 0 6 0;
#X connect 9 1 10 0;
#X connect 9 2 3 0;
#X connect 9 3 2 0;
#X coords 0 -1 1 1 24 24 2 100 100;
