#N canvas 487 149 835 384 10;
#X declare -lib mrpeach;
#X obj 63 86 import mrpeach;
#X obj 61 177 packOSC;
#X obj 43 221 udpsend;
#X msg 54 132 disconnect;
#X obj 43 242 tgl 15 0 empty empty connected 20 7 0 8 -24198 -241291
-1 1 1;
#X obj 61 154 r msgOSC;
#X obj 24 21 loadbang;
#X obj 24 65 s loadbang1;
#X obj 24 43 t b b b;
#X obj 61 199 spigot;
#X obj 236 129 s msgOSC;
#X obj 236 84 pack f;
#X obj 239 39 hsl 128 15 -255 255 0 0 empty empty empty -2 -8 0 10
-262144 -1 -1 8500 1;
#X floatatom 236 60 5 0 0 0 - - -;
#X msg 43 110 connect localhost 9000;
#X obj 136 201 print;
#X msg 236 106 /contrast \$1;
#X symbolatom 464 129 40 0 0 0 - - -;
#X obj 464 105 symbol;
#X obj 399 53 tgl 24 0 empty empty empty 17 7 0 10 -262144 -1 -1 0
1;
#X obj 399 129 s msgOSC;
#X obj 399 84 pack f;
#X msg 399 106 /save \$1;
#X obj 464 59 unpackOSC;
#X obj 464 36 udpreceive 8000;
#X obj 464 82 routeOSC /saved;
#X connect 1 0 9 0;
#X connect 2 0 4 0;
#X connect 3 0 2 0;
#X connect 4 0 9 1;
#X connect 5 0 1 0;
#X connect 5 0 15 0;
#X connect 6 0 8 0;
#X connect 8 0 7 0;
#X connect 8 1 14 0;
#X connect 8 2 0 0;
#X connect 9 0 2 0;
#X connect 11 0 16 0;
#X connect 12 0 13 0;
#X connect 13 0 11 0;
#X connect 14 0 2 0;
#X connect 16 0 10 0;
#X connect 18 0 17 0;
#X connect 19 0 21 0;
#X connect 21 0 22 0;
#X connect 22 0 20 0;
#X connect 23 0 25 0;
#X connect 24 0 23 0;
#X connect 25 0 18 0;
