#N canvas -231 137 1195 867 10;
#X declare -lib mrpeach;
#X obj 63 86 import mrpeach;
#X obj 61 177 packOSC;
#X obj 43 271 udpsend;
#X msg 54 132 disconnect;
#X obj 43 292 tgl 15 0 empty empty connected 20 7 0 8 -24198 -1 -1
1 1;
#X obj 61 154 r msgOSC;
#X obj 24 21 loadbang;
#X obj 24 65 s loadbang1;
#X obj 24 43 t b b b;
#X obj 61 239 spigot;
#X obj 280 310 s msgOSC;
#X obj 283 220 hsl 128 15 0 255 0 0 empty empty empty -2 -8 0 10 -262144
-1 -1 6973 1;
#X floatatom 280 241 5 0 0 0 - - -;
#X msg 43 110 connect localhost 9000;
#X obj 94 272 print;
#X symbolatom 464 128 40 0 0 0 - - -;
#X obj 464 104 symbol;
#X obj 337 54 tgl 24 0 empty empty empty 17 7 0 10 -262144 -1 -1 0
1;
#X obj 337 130 s msgOSC;
#X obj 337 85 pack f;
#X msg 337 107 /save \$1;
#X obj 464 59 unpackOSC;
#X obj 464 36 udpreceive 8000;
#X obj 421 220 hsl 128 15 0 255 0 0 empty empty empty -2 -8 0 10 -262144
-1 -1 8566 1;
#X floatatom 418 241 5 0 0 0 - - -;
#X obj 280 265 pack f f;
#X msg 418 262 bang;
#X obj 633 413 s msgOSC;
#X obj 636 323 hsl 128 15 1 1000 1 0 empty empty empty -2 -8 0 10 -262144
-1 -1 12700 1;
#X floatatom 633 344 5 0 0 0 - - -;
#X obj 633 368 pack f;
#X msg 633 390 /stela \$1;
#X msg 280 287 /contrast 0 \$1 \$2;
#X obj 280 442 s msgOSC;
#X obj 283 352 hsl 128 15 0 255 0 0 empty empty empty -2 -8 0 10 -258113
-1 -1 8218 1;
#X floatatom 280 373 5 0 0 0 - - -;
#X obj 421 352 hsl 128 15 0 255 0 0 empty empty empty -2 -8 0 10 -258113
-1 -1 9313 1;
#X floatatom 418 373 5 0 0 0 - - -;
#X obj 280 397 pack f f;
#X msg 418 394 bang;
#X msg 280 419 /contrast 1 \$1 \$2;
#X obj 280 574 s msgOSC;
#X obj 283 484 hsl 128 15 0 255 0 0 empty empty empty -2 -8 0 10 -4034
-1 -1 8218 1;
#X floatatom 280 505 5 0 0 0 - - -;
#X obj 421 484 hsl 128 15 0 255 0 0 empty empty empty -2 -8 0 10 -4034
-1 -1 9313 1;
#X floatatom 418 505 5 0 0 0 - - -;
#X obj 280 529 pack f f;
#X msg 418 526 bang;
#X obj 276 745 s msgOSC;
#X obj 279 655 hsl 128 15 0 255 0 0 empty empty empty -2 -8 0 10 -4160
-1 -1 8218 1;
#X floatatom 276 676 5 0 0 0 - - -;
#X obj 417 655 hsl 128 15 0 255 0 0 empty empty empty -2 -8 0 10 -4160
-1 -1 9313 1;
#X floatatom 414 676 5 0 0 0 - - -;
#X obj 276 700 pack f f;
#X msg 414 697 bang;
#X msg 280 551 /contrast 2 \$1 \$2;
#X msg 276 722 /contrast 3 \$1 \$2;
#X obj 257 54 tgl 24 0 empty empty empty 17 7 0 10 -262144 -1 -1 0
1;
#X obj 257 130 s msgOSC;
#X obj 257 85 pack f;
#X obj 464 81 routeOSC /saved /of1_settings;
#X msg 257 107 /show \$1;
#X obj 732 172 s c_of1_show;
#X obj 715 149 s c_of1_stela;
#X obj 749 198 s c_of1_e0;
#X obj 766 220 s c_of1_f0;
#X obj 280 197 r c_of1_e0;
#X obj 418 197 r c_of1_f0;
#X obj 280 331 r c_of1_e1;
#X obj 418 331 r c_of1_f1;
#X obj 783 244 s c_of1_e1;
#X obj 800 268 s c_of1_f1;
#X obj 99 198 tgl 15 0 empty empty ready 20 7 0 8 -24198 -1 -1 1 1
;
#X obj 61 218 spigot;
#X obj 280 463 r c_of1_e2;
#X obj 418 463 r c_of1_f2;
#X obj 817 289 s c_of1_e2;
#X obj 834 313 s c_of1_f2;
#X obj 851 334 s c_of1_e3;
#X obj 868 358 s c_of1_f3;
#X obj 715 127 unpack f f f f f f f f f f;
#X obj 889 169 delay 1;
#X msg 889 193 bang;
#X obj 276 634 r c_of1_e3;
#X obj 414 634 r c_of1_f3;
#X obj 657 490 hsl 128 15 0 255 0 0 empty empty empty -2 -8 0 10 -262144
-1 -1 7200 1;
#X obj 795 490 hsl 128 15 0 255 0 0 empty empty empty -2 -8 0 10 -262144
-1 -1 10300 1;
#X obj 661 513 s c_of1_e1;
#X obj 661 533 s c_of1_e2;
#X obj 661 554 s c_of1_e3;
#X obj 795 514 s c_of1_f1;
#X obj 795 535 s c_of1_f2;
#X obj 796 556 s c_of1_f3;
#X obj 633 303 r c_of1_stela;
#X obj 257 33 r c_of1_show;
#X obj 337 33 r c_of1_save;
#X obj 617 729 s msgOSC;
#X obj 620 639 hsl 128 15 1 1000 1 0 empty empty empty -2 -8 0 10 -262144
-1 -1 0 1;
#X floatatom 617 660 5 0 0 0 - - -;
#X obj 617 684 pack f;
#X msg 617 706 /stela \$1;
#X obj 617 619 r c_of1_mixture;
#X connect 1 0 73 0;
#X connect 2 0 4 0;
#X connect 3 0 2 0;
#X connect 4 0 9 1;
#X connect 5 0 1 0;
#X connect 6 0 8 0;
#X connect 8 0 7 0;
#X connect 8 1 13 0;
#X connect 8 2 0 0;
#X connect 9 0 2 0;
#X connect 9 0 14 0;
#X connect 11 0 12 0;
#X connect 12 0 25 0;
#X connect 13 0 2 0;
#X connect 16 0 15 0;
#X connect 17 0 19 0;
#X connect 19 0 20 0;
#X connect 20 0 18 0;
#X connect 21 0 60 0;
#X connect 22 0 21 0;
#X connect 23 0 24 0;
#X connect 24 0 25 1;
#X connect 24 0 26 0;
#X connect 25 0 32 0;
#X connect 26 0 12 0;
#X connect 28 0 29 0;
#X connect 29 0 30 0;
#X connect 30 0 31 0;
#X connect 31 0 27 0;
#X connect 32 0 10 0;
#X connect 34 0 35 0;
#X connect 35 0 38 0;
#X connect 36 0 37 0;
#X connect 37 0 38 1;
#X connect 37 0 39 0;
#X connect 38 0 40 0;
#X connect 39 0 35 0;
#X connect 40 0 33 0;
#X connect 42 0 43 0;
#X connect 43 0 46 0;
#X connect 44 0 45 0;
#X connect 45 0 46 1;
#X connect 45 0 47 0;
#X connect 46 0 55 0;
#X connect 47 0 43 0;
#X connect 49 0 50 0;
#X connect 50 0 53 0;
#X connect 51 0 52 0;
#X connect 52 0 53 1;
#X connect 52 0 54 0;
#X connect 53 0 56 0;
#X connect 54 0 50 0;
#X connect 55 0 41 0;
#X connect 56 0 48 0;
#X connect 57 0 59 0;
#X connect 59 0 61 0;
#X connect 60 0 16 0;
#X connect 60 1 80 0;
#X connect 61 0 58 0;
#X connect 66 0 11 0;
#X connect 67 0 23 0;
#X connect 68 0 34 0;
#X connect 69 0 36 0;
#X connect 72 0 73 1;
#X connect 73 0 9 0;
#X connect 74 0 42 0;
#X connect 75 0 44 0;
#X connect 80 0 63 0;
#X connect 80 1 62 0;
#X connect 80 2 64 0;
#X connect 80 3 65 0;
#X connect 80 4 70 0;
#X connect 80 5 71 0;
#X connect 80 6 76 0;
#X connect 80 7 77 0;
#X connect 80 8 78 0;
#X connect 80 9 79 0;
#X connect 80 9 81 0;
#X connect 81 0 82 0;
#X connect 82 0 72 0;
#X connect 83 0 49 0;
#X connect 84 0 51 0;
#X connect 85 0 87 0;
#X connect 85 0 88 0;
#X connect 85 0 89 0;
#X connect 86 0 90 0;
#X connect 86 0 91 0;
#X connect 86 0 92 0;
#X connect 93 0 28 0;
#X connect 94 0 57 0;
#X connect 95 0 17 0;
#X connect 97 0 98 0;
#X connect 98 0 99 0;
#X connect 99 0 100 0;
#X connect 100 0 96 0;
#X connect 101 0 97 0;
