#N canvas 888 332 596 513 10;
#X declare -lib mrpeach;
#N canvas 571 438 430 156 r 0;
#X obj 0 96 s of1_msgOSC;
#X obj 3 0 hsl 200 24 0 255 0 0 empty empty empty -2 -8 0 10 -258113
-1 -1 0 1;
#X floatatom 0 27 5 0 0 0 - - -;
#X obj 212 0 hsl 200 24 0 255 0 0 empty empty empty -2 -8 0 10 -258113
-1 -1 0 1;
#X floatatom 209 27 5 0 0 0 - - -;
#X obj 0 51 pack f f;
#X msg 209 48 bang;
#X msg 0 73 /contrast 1 \$1 \$2;
#X obj 0 -21 r of1_e1;
#X obj 209 -21 r of1_f1;
#X connect 1 0 2 0;
#X connect 2 0 5 0;
#X connect 3 0 4 0;
#X connect 4 0 5 1;
#X connect 4 0 6 0;
#X connect 5 0 7 0;
#X connect 6 0 2 0;
#X connect 7 0 0 0;
#X connect 8 0 1 0;
#X connect 9 0 3 0;
#X coords 0 -1 1 1 414 24 2 0 0;
#X restore -322 171 pd r;
#N canvas 241 465 430 156 g 0;
#X obj 0 96 s of1_msgOSC;
#X obj 3 0 hsl 200 24 0 255 0 0 empty empty empty -2 -8 0 10 -4034
-1 -1 0 1;
#X floatatom 0 27 5 0 0 0 - - -;
#X obj 212 0 hsl 200 24 0 255 0 0 empty empty empty -2 -8 0 10 -4034
-1 -1 0 1;
#X floatatom 209 27 5 0 0 0 - - -;
#X obj 0 51 pack f f;
#X msg 209 48 bang;
#X obj 0 -21 r of1_e2;
#X obj 209 -21 r of1_f2;
#X msg 0 73 /contrast 2 \$1 \$2;
#X connect 1 0 2 0;
#X connect 2 0 5 0;
#X connect 3 0 4 0;
#X connect 4 0 5 1;
#X connect 4 0 6 0;
#X connect 5 0 9 0;
#X connect 6 0 2 0;
#X connect 7 0 1 0;
#X connect 8 0 3 0;
#X connect 9 0 0 0;
#X coords 0 -1 1 1 414 24 2 0 0;
#X restore -322 200 pd g;
#N canvas 36 580 430 156 b 0;
#X obj 0 96 s of1_msgOSC;
#X obj 3 0 hsl 200 24 0 255 0 0 empty empty empty -2 -8 0 10 -4160
-1 -1 0 1;
#X floatatom 0 27 5 0 0 0 - - -;
#X obj 212 0 hsl 200 24 0 255 0 0 empty empty empty -2 -8 0 10 -4160
-1 -1 0 1;
#X floatatom 209 27 5 0 0 0 - - -;
#X obj 0 51 pack f f;
#X msg 209 48 bang;
#X obj 0 -21 r of1_e3;
#X obj 209 -21 r of1_f3;
#X msg 0 73 /contrast 3 \$1 \$2;
#X connect 1 0 2 0;
#X connect 2 0 5 0;
#X connect 3 0 4 0;
#X connect 4 0 5 1;
#X connect 4 0 6 0;
#X connect 5 0 9 0;
#X connect 6 0 2 0;
#X connect 7 0 1 0;
#X connect 8 0 3 0;
#X connect 9 0 0 0;
#X coords 0 -1 1 1 414 24 2 0 0;
#X restore -322 229 pd b;
#N canvas 317 363 477 196 rgb 0;
#X obj 3 0 hsl 200 24 0 255 0 0 empty empty empty -2 -8 0 10 -262144
-1 -1 0 0;
#X obj 212 0 hsl 200 24 0 255 0 0 empty empty empty -2 -8 0 10 -262144
-1 -1 0 0;
#X obj 0 54 s of1_e1;
#X obj 0 74 s of1_e2;
#X obj 0 95 s of1_e3;
#X obj 209 55 s of1_f1;
#X obj 209 76 s of1_f2;
#X obj 210 97 s of1_f3;
#X obj 0 31 t f f f;
#X obj 209 32 t f f f;
#X obj 209 -24 r of1_contraste_f;
#X obj 0 -27 r of1_contraste_e;
#X connect 0 0 8 0;
#X connect 1 0 9 0;
#X connect 8 0 2 0;
#X connect 8 1 3 0;
#X connect 8 2 4 0;
#X connect 9 0 5 0;
#X connect 9 1 6 0;
#X connect 9 2 7 0;
#X connect 10 0 1 0;
#X connect 11 0 0 0;
#X coords 0 -1 1 1 414 24 2 0 0;
#X restore -323 142 pd rgb;
#X text -294 66 Contraste da M치scara;
#N canvas 201 416 430 156 rgb_mascara 0;
#X obj 0 96 s of1_msgOSC;
#X obj 3 0 hsl 200 24 0 255 0 0 empty empty empty -2 -8 0 10 -262144
-1 -1 0 1;
#X floatatom 0 27 5 0 0 0 - - -;
#X obj 212 0 hsl 200 24 0 255 0 0 empty empty empty -2 -8 0 10 -262144
-1 -1 0 1;
#X floatatom 209 27 5 0 0 0 - - -;
#X obj 0 51 pack f f;
#X msg 209 48 bang;
#X msg 0 72 /contrast 0 \$1 \$2;
#X obj 0 -21 r of1_e0;
#X obj 208 -21 r of1_f0;
#X connect 1 0 2 0;
#X connect 2 0 5 0;
#X connect 3 0 4 0;
#X connect 4 0 5 1;
#X connect 4 0 6 0;
#X connect 5 0 7 0;
#X connect 6 0 2 0;
#X connect 7 0 0 0;
#X connect 8 0 1 0;
#X connect 9 0 3 0;
#X coords 0 -1 1 1 414 24 2 0 0;
#X restore -294 83 pd rgb_mascara;
#N canvas 1194 520 450 300 show 0;
#X obj 0 0 tgl 24 0 empty empty empty 17 7 0 10 -262144 -1 -1 0 1;
#X obj 0 76 s of1_msgOSC;
#X obj 0 31 pack f;
#X msg 0 53 /show \$1;
#X obj 0 -21 r of1_show;
#X connect 0 0 2 0;
#X connect 2 0 3 0;
#X connect 3 0 1 0;
#X connect 4 0 0 0;
#X coords 0 300 1 299 24 24 2 0 0;
#X restore 125 83 pd show;
#X text 157 88 Amosar a M치scara;
#X text -321 123 Contraste da C치mara;
#N canvas 320 350 450 300 stela 0;
#X obj 0 150 s of1_msgOSC;
#X obj 3 0 hsl 200 24 1 1000 1 0 empty empty empty -2 -8 0 10 -262144
-1 -1 0 1;
#X floatatom 0 81 5 0 0 0 - - -;
#X obj 0 105 pack f;
#X msg 0 127 /stela \$1;
#X obj 0 -20 r of1_stela;
#X connect 1 0 2 0;
#X connect 2 0 3 0;
#X connect 3 0 4 0;
#X connect 4 0 0 0;
#X connect 5 0 1 0;
#X coords 0 -1 1 1 205 24 2 0 0;
#X restore -321 288 pd stela;
#X text -322 268 Stela;
#N canvas 233 194 94 132 salvar 0;
#X obj 0 0 tgl 24 0 empty empty empty 17 7 0 10 -258113 -1 -1 0 1;
#X obj 0 76 s of1_msgOSC;
#X obj 0 31 pack f;
#X msg 0 53 /save \$1;
#X obj 0 -21 r of1_save;
#X connect 0 0 2 0;
#X connect 2 0 3 0;
#X connect 3 0 1 0;
#X connect 4 0 0 0;
#X coords 0 -1 1 1 24 24 2 0 0;
#X restore 68 321 pd salvar;
#X text 98 324 Gravar;
#N canvas 824 245 843 435 reciveOSC 0;
#X obj -826 118 symbol;
#X obj -826 32 unpackOSC;
#X obj -826 9 udpreceive 8000;
#X obj -724 165 s of1_show;
#X obj -741 142 s of1_stela;
#X obj -707 191 s of1_e0;
#X obj -690 213 s of1_f0;
#X obj -673 237 s of1_e1;
#X obj -656 261 s of1_f1;
#X obj -639 282 s of1_e2;
#X obj -622 306 s of1_f2;
#X obj -605 327 s of1_e3;
#X obj -588 351 s of1_f3;
#X obj -741 120 unpack f f f f f f f f f f;
#X obj -567 162 delay 1;
#X msg -567 186 1;
#X obj -826 140 outlet;
#X obj -764 32 s of2_receiveOSC;
#X obj -567 206 s of1_loadbang_1;
#X obj -499 119 unpack f;
#X obj -499 141 s of1_framerate;
#X obj -393 396 s of1_contraste_e;
#X obj -282 394 s of1_contraste_f;
#X obj -393 372 unpack f f;
#X obj -342 326 unpack f;
#X obj -342 349 s of1_stela;
#X obj -287 273 unpack f;
#X obj -287 296 s of1_save;
#X obj -239 223 unpack f;
#X obj -239 246 s of1_invert;
#X obj -188 174 unpack f;
#X obj -188 197 s of1_mixture;
#X obj -395 123 routeOSC /contraste /stela /record /invert /mixture
/velocity;
#X obj -94 176 unpack f;
#X obj -94 199 s of1_velocity;
#X obj -826 54 routeOSC /saved /of1_settings /framerate /nano;
#X connect 0 0 16 0;
#X connect 1 0 35 0;
#X connect 1 1 17 0;
#X connect 2 0 1 0;
#X connect 13 0 4 0;
#X connect 13 1 3 0;
#X connect 13 2 5 0;
#X connect 13 3 6 0;
#X connect 13 4 7 0;
#X connect 13 5 8 0;
#X connect 13 6 9 0;
#X connect 13 7 10 0;
#X connect 13 8 11 0;
#X connect 13 9 12 0;
#X connect 13 9 14 0;
#X connect 14 0 15 0;
#X connect 15 0 18 0;
#X connect 19 0 20 0;
#X connect 23 0 21 0;
#X connect 23 1 22 0;
#X connect 24 0 25 0;
#X connect 26 0 27 0;
#X connect 28 0 29 0;
#X connect 30 0 31 0;
#X connect 32 0 23 0;
#X connect 32 1 24 0;
#X connect 32 2 26 0;
#X connect 32 3 28 0;
#X connect 32 4 30 0;
#X connect 32 5 33 0;
#X connect 33 0 34 0;
#X connect 35 0 0 0;
#X connect 35 1 13 0;
#X connect 35 2 19 0;
#X connect 35 3 32 0;
#X restore -123 8 pd reciveOSC;
#X symbolatom -123 29 40 0 0 0 - - -;
#N canvas 657 427 211 308 enviaOSC 0;
#X obj 20 -206 import mrpeach;
#X obj 18 -115 packOSC;
#X obj 0 -21 udpsend;
#X msg 11 -160 disconnect;
#X obj 0 0 tgl 15 0 empty empty connected 20 7 0 8 -24198 -1 -1 1 1
;
#X obj 18 -138 r of1_msgOSC;
#X obj -19 -271 loadbang;
#X obj -19 -249 t b b b;
#X obj 18 -53 spigot;
#X msg 0 -182 connect localhost 9000;
#X obj 69 -114 print;
#X obj 79 0 tgl 15 0 empty empty sending 20 7 0 8 -24198 -1 -1 0 1
;
#X obj 18 -74 spigot;
#X obj 37 -271 inlet;
#X obj 87 -20 r of1_loadbang_1;
#X obj -19 -227 s of1_loadbang1;
#X connect 1 0 12 0;
#X connect 2 0 4 0;
#X connect 3 0 2 0;
#X connect 4 0 8 1;
#X connect 5 0 1 0;
#X connect 5 0 10 0;
#X connect 6 0 7 0;
#X connect 7 0 15 0;
#X connect 7 1 9 0;
#X connect 7 2 0 0;
#X connect 8 0 2 0;
#X connect 9 0 2 0;
#X connect 11 0 12 1;
#X connect 12 0 8 0;
#X connect 13 0 9 0;
#X connect 14 0 11 0;
#X coords 0 -1 1 1 135 15 2 0 0;
#X restore -323 30 pd enviaOSC;
#N canvas 1146 418 450 300 mezcla 0;
#X obj 0 100 s of1_msgOSC;
#X obj 3 0 hsl 200 24 1 1000 1 0 empty empty empty -2 -8 0 10 -262144
-1 -1 0 1;
#X floatatom 0 31 5 0 0 0 - - -;
#X obj 0 55 pack f;
#X obj 0 -30 r of1_mixture;
#X msg 0 77 /mixture \$1;
#X connect 1 0 2 0;
#X connect 2 0 3 0;
#X connect 3 0 5 0;
#X connect 4 0 1 0;
#X connect 5 0 0 0;
#X coords 0 -1 1 1 205 24 2 0 0;
#X restore -321 354 pd mezcla;
#X text -322 329 Mestura coa grabaci칩n anterior;
#N canvas 1127 641 450 300 player 0;
#X obj 0 83 s of1_msgOSC;
#X obj 0 38 pack f f;
#X obj 0 0 tgl 24 0 empty empty empty 17 7 0 10 -262144 -1 -1 0 1;
#X obj 32 0 hradio 24 1 0 10 empty empty empty 0 -8 0 10 -262144 -1
-1 0;
#X obj 32 -21 loadbang;
#X msg 0 60 /play \$1 \$2;
#X connect 1 0 5 0;
#X connect 2 0 1 0;
#X connect 3 0 1 1;
#X connect 4 0 3 0;
#X connect 5 0 0 0;
#X coords 0 -1 1 1 272 24 2 0 0;
#X restore -180 408 pd player;
#X text 97 411 Reproducir material gravado;
#X text 100 445 Amosar a reprodutor pequeno;
#N canvas 1194 520 450 300 showplayer 0;
#X obj 0 0 tgl 24 0 empty empty empty 17 7 0 10 -262144 -1 -1 0 1;
#X obj 0 76 s of1_msgOSC;
#X obj 0 31 pack f;
#X msg 0 53 /showplayer \$1;
#X obj 0 -21 r of1_showplayer;
#X connect 0 0 2 0;
#X connect 2 0 3 0;
#X connect 3 0 1 0;
#X connect 4 0 0 0;
#X coords 0 -1 1 1 24 24 2 0 0;
#X restore 69 440 pd showplayer;
#X obj -323 2 bng 24 250 50 0 empty empty empty 17 7 0 10 -262144 -1
-1;
#X text -326 65 on/of;
#N canvas 1194 520 450 300 adjust 0;
#X obj 0 0 tgl 24 0 empty empty empty 17 7 0 10 -262144 -1 -1 0 1;
#X obj 0 76 s of1_msgOSC;
#X obj 0 31 pack f;
#X obj 0 -21 r of1_adjust;
#X msg 0 53 /adjust \$1;
#X connect 0 0 2 0;
#X connect 2 0 4 0;
#X connect 3 0 0 0;
#X connect 4 0 1 0;
#X coords 0 -1 1 1 24 24 2 0 0;
#X restore -323 83 pd adjust;
#N canvas 1187 589 450 300 velocity 0;
#X obj 0 100 s of1_msgOSC;
#X obj 3 0 hsl 200 24 0 1 0 0 empty empty empty -2 -8 0 10 -262144
-1 -1 0 1;
#X obj 0 55 pack f;
#X msg 0 77 /velocity \$1;
#X obj 0 -30 r of1_velocity;
#X connect 1 0 2 0;
#X connect 2 0 3 0;
#X connect 3 0 0 0;
#X connect 4 0 1 0;
#X coords 0 -1 1 1 205 24 2 0 0;
#X restore -180 440 pd velocity;
#X text 100 296 espejo;
#N canvas 1194 520 450 300 invert 0;
#X obj 0 0 tgl 24 0 empty empty empty 17 7 0 10 -262144 -1 -1 0 1;
#X obj 0 76 s of1_msgOSC;
#X obj 0 31 pack f;
#X msg 0 53 /invert \$1;
#X obj 0 -21 r of1_invert;
#X connect 0 0 2 0;
#X connect 2 0 3 0;
#X connect 3 0 1 0;
#X connect 4 0 0 0;
#X coords 0 -1 1 1 24 24 2 0 0;
#X restore 68 291 pd invert;
#X obj 147 16 r of1_framerate;
#X floatatom 147 42 5 0 0 0 - - -;
#N canvas 1041 615 295 276 reset 0;
#X obj 0 0 bng 15 250 50 0 empty empty empty 17 7 0 10 -262144 -1 -1
;
#X obj 0 40 pack f;
#X msg 0 62 /resetSave \$1;
#X msg 0 19 0;
#X obj 0 -22 r of1_reset_save;
#X obj 0 85 s of1_msgOSC;
#X connect 0 0 3 0;
#X connect 1 0 2 0;
#X connect 2 0 5 0;
#X connect 3 0 1 0;
#X connect 4 0 0 0;
#X coords 0 -1 1 1 15 15 2 0 0;
#X restore 77 349 pd reset;
#X text 97 347 reset num recording;
#X connect 13 0 14 0;
#X connect 22 0 15 0;
#X connect 28 0 29 0;
