#N canvas 760 116 999 750 10;
#X declare -lib mrpeach;
#X obj -3 35 import mrpeach;
#X obj -5 126 packOSC;
#X obj -23 170 udpsend;
#X msg -12 81 disconnect;
#X obj -23 191 tgl 15 0 empty empty connected 20 7 0 8 -24198 -241291
-1 1 1;
#X obj -5 103 r msgOSC;
#X obj -42 -30 loadbang;
#X obj -42 14 s loadbang1;
#X obj -42 -8 t b b b;
#X obj -5 148 spigot;
#X obj 185 89 s msgOSC;
#X msg 185 66 /threshold \$1;
#X obj 185 44 pack f;
#X obj 188 -21 hsl 128 15 0 255 0 0 empty empty empty -2 -8 0 10 -262144
-1 -1 4600 0;
#X floatatom 185 0 5 0 0 0 - - -;
#X msg -23 59 connect localhost 9000;
#X obj 186 209 s msgOSC;
#X obj 186 164 pack f;
#X floatatom 186 140 5 0 0 0 - - -;
#X obj 186 120 tgl 15 0 empty empty empty 17 7 0 10 -262144 -1 -1 0
1;
#X obj 45 126 print;
#X obj 342 11 unpackOSC;
#X floatatom 342 59 5 0 0 0 - - -;
#X obj 522 38 print;
#X obj 342 -12 udpreceive 8000;
#X obj 342 83 route 0 1;
#X msg 342 111 0;
#X msg 371 111 255;
#X obj 342 138 s sierpinski_data;
#X msg 187 186 /trigger \$1;
#X obj 342 34 routeOSC /trigger;
#X obj 185 21 i;
#X obj 235 513 s msgOSC;
#X msg 235 490 /position \$1 \$2;
#X obj 235 468 pack f f;
#X floatatom 235 448 5 0 0 0 - - -;
#X floatatom 280 449 5 0 0 0 - - -;
#X obj -13 269 grid grid1 300 0 100 150 0 100 1 0.2 0.2 10 10 146 325
;
#X obj 280 426 expr 100 - $f1;
#X obj 430 469 s msgOSC;
#X obj 430 424 pack f;
#X obj 433 381 hsl 128 15 1 100 0 0 empty empty empty -2 -8 0 10 -262144
-1 -1 3800 0;
#X floatatom 430 402 5 0 0 0 - - -;
#X msg 430 446 /width \$1;
#X obj 570 469 s msgOSC;
#X obj 570 424 pack f;
#X obj 573 381 hsl 128 15 1 100 0 0 empty empty empty -2 -8 0 10 -262144
-1 -1 2600 0;
#X floatatom 570 402 5 0 0 0 - - -;
#X msg 570 446 /height \$1;
#X obj 16 625 s msgOSC;
#X msg 17 602 /background 1;
#X obj 162 648 s msgOSC;
#X obj 165 558 hsl 128 15 0 400 0 0 empty empty empty -2 -8 0 10 -262144
-1 -1 5000 1;
#X floatatom 162 579 5 0 0 0 - - -;
#X obj 304 557 hsl 128 15 0.1 2550 1 0 empty empty empty -2 -8 0 10
-262144 -1 -1 4600 1;
#X floatatom 301 578 5 0 0 0 - - -;
#X obj 162 603 pack f f;
#X obj 734 642 s msgOSC;
#X obj 737 552 hsl 128 15 0 100 0 0 empty empty empty -2 -8 0 10 -262144
-1 -1 12700 1;
#X floatatom 734 573 5 0 0 0 - - -;
#X obj 734 597 pack f;
#X msg 734 619 /stela \$1;
#X obj 305 627 t b;
#X obj 442 645 s msgOSC;
#X obj 445 555 hsl 128 15 0 400 0 0 empty empty empty -2 -8 0 10 -262144
-1 -1 6100 1;
#X floatatom 442 576 5 0 0 0 - - -;
#X obj 584 554 hsl 128 15 0.1 2550 1 0 empty empty empty -2 -8 0 10
-262144 -1 -1 6300 1;
#X floatatom 581 575 5 0 0 0 - - -;
#X obj 442 600 pack f f;
#X obj 585 624 t b;
#X msg 162 625 /contrast1 \$1 \$2;
#X msg 442 622 /contrast2 \$1 \$2;
#X obj 620 58 hsl 128 15 0 1 0 0 empty empty empty -2 -8 0 10 -262144
-1 -1 12700 0;
#X obj 633 88 hsl 128 15 0 1 0 0 empty empty empty -2 -8 0 10 -262144
-1 -1 12700 0;
#X obj 655 118 hsl 128 15 0 1 0 0 empty empty empty -2 -8 0 10 -262144
-1 -1 12700 0;
#X obj 485 235 expr $f1 + $f2 + $f3;
#X obj 669 297 /;
#X obj 703 296 /;
#X obj 734 295 /;
#X floatatom 666 325 5 0 0 0 - - -;
#X floatatom 705 326 5 0 0 0 - - -;
#X floatatom 747 326 5 0 0 0 - - -;
#X obj 507 125 t b f f;
#X obj 635 170 t b f b f;
#X obj 570 149 t b f b f;
#X obj 746 377 pack f f f;
#X obj 746 422 s msgOSC;
#X msg 746 399 /color \$1 \$2 \$3;
#X connect 1 0 9 0;
#X connect 2 0 4 0;
#X connect 3 0 2 0;
#X connect 4 0 9 1;
#X connect 5 0 1 0;
#X connect 5 0 20 0;
#X connect 6 0 8 0;
#X connect 8 0 7 0;
#X connect 8 1 15 0;
#X connect 8 2 0 0;
#X connect 9 0 2 0;
#X connect 11 0 10 0;
#X connect 12 0 11 0;
#X connect 13 0 14 0;
#X connect 14 0 31 0;
#X connect 15 0 2 0;
#X connect 17 0 29 0;
#X connect 18 0 17 0;
#X connect 19 0 18 0;
#X connect 21 0 23 0;
#X connect 21 0 30 0;
#X connect 22 0 25 0;
#X connect 24 0 21 0;
#X connect 25 0 26 0;
#X connect 25 1 27 0;
#X connect 26 0 28 0;
#X connect 27 0 28 0;
#X connect 29 0 16 0;
#X connect 30 0 22 0;
#X connect 31 0 12 0;
#X connect 33 0 32 0;
#X connect 34 0 33 0;
#X connect 35 0 34 0;
#X connect 36 0 34 1;
#X connect 37 0 35 0;
#X connect 37 1 38 0;
#X connect 38 0 36 0;
#X connect 40 0 43 0;
#X connect 41 0 42 0;
#X connect 42 0 40 0;
#X connect 43 0 39 0;
#X connect 45 0 48 0;
#X connect 46 0 47 0;
#X connect 47 0 45 0;
#X connect 48 0 44 0;
#X connect 50 0 49 0;
#X connect 52 0 53 0;
#X connect 53 0 56 0;
#X connect 54 0 55 0;
#X connect 55 0 56 1;
#X connect 55 0 62 0;
#X connect 56 0 70 0;
#X connect 58 0 59 0;
#X connect 59 0 60 0;
#X connect 60 0 61 0;
#X connect 61 0 57 0;
#X connect 62 0 52 0;
#X connect 64 0 65 0;
#X connect 65 0 68 0;
#X connect 66 0 67 0;
#X connect 67 0 68 1;
#X connect 67 0 69 0;
#X connect 68 0 71 0;
#X connect 69 0 64 0;
#X connect 70 0 51 0;
#X connect 71 0 63 0;
#X connect 72 0 82 0;
#X connect 73 0 84 0;
#X connect 74 0 83 0;
#X connect 75 0 78 1;
#X connect 75 0 77 1;
#X connect 75 0 76 1;
#X connect 76 0 79 0;
#X connect 77 0 80 0;
#X connect 78 0 81 0;
#X connect 79 0 85 0;
#X connect 80 0 85 1;
#X connect 81 0 85 2;
#X connect 82 0 77 0;
#X connect 82 0 78 0;
#X connect 82 1 76 0;
#X connect 82 2 75 0;
#X connect 83 0 77 0;
#X connect 83 0 76 0;
#X connect 83 1 78 0;
#X connect 83 2 75 0;
#X connect 83 3 75 2;
#X connect 84 0 76 0;
#X connect 84 0 78 0;
#X connect 84 1 77 0;
#X connect 84 2 75 0;
#X connect 84 3 75 1;
#X connect 85 0 87 0;
#X connect 87 0 86 0;
