#N canvas 1071 31 584 776 10;
#X declare -lib mrpeach;
#N canvas 571 438 430 156 r 0;
#X obj 0 96 s of3_msgOSC;
#X obj 3 0 hsl 200 24 0 255 0 0 empty empty empty -2 -8 0 10 -258113
-1 -1 7900 1;
#X floatatom 0 27 5 0 0 0 - - -;
#X obj 212 0 hsl 200 24 0 255 0 0 empty empty empty -2 -8 0 10 -258113
-1 -1 13400 1;
#X floatatom 209 27 5 0 0 0 - - -;
#X obj 0 51 pack f f;
#X msg 209 48 bang;
#X msg 0 73 /contrast 1 \$1 \$2;
#X obj 0 -21 r of3_e1;
#X obj 209 -21 r of3_f1;
#X connect 1 0 2 0;
#X connect 2 0 5 0;
#X connect 3 0 4 0;
#X connect 4 0 5 1;
#X connect 4 0 6 0;
#X connect 5 0 7 0;
#X connect 6 0 2 0;
#X connect 7 0 0 0;
#X connect 8 0 1 0;
#X connect 9 0 3 0;
#X coords 0 -1 1 1 414 24 2 0 0;
#X restore -322 171 pd r;
#N canvas 241 465 430 156 g 0;
#X obj 0 96 s of3_msgOSC;
#X obj 3 0 hsl 200 24 0 255 0 0 empty empty empty -2 -8 0 10 -4034
-1 -1 7900 1;
#X floatatom 0 27 5 0 0 0 - - -;
#X obj 212 0 hsl 200 24 0 255 0 0 empty empty empty -2 -8 0 10 -4034
-1 -1 13400 1;
#X floatatom 209 27 5 0 0 0 - - -;
#X obj 0 51 pack f f;
#X msg 209 48 bang;
#X msg 0 73 /contrast 2 \$1 \$2;
#X obj 0 -21 r of3_e2;
#X obj 209 -21 r of3_f2;
#X connect 1 0 2 0;
#X connect 2 0 5 0;
#X connect 3 0 4 0;
#X connect 4 0 5 1;
#X connect 4 0 6 0;
#X connect 5 0 7 0;
#X connect 6 0 2 0;
#X connect 7 0 0 0;
#X connect 8 0 1 0;
#X connect 9 0 3 0;
#X coords 0 -1 1 1 414 24 2 0 0;
#X restore -322 200 pd g;
#N canvas 36 580 430 156 b 0;
#X obj 0 96 s of3_msgOSC;
#X obj 3 0 hsl 200 24 0 255 0 0 empty empty empty -2 -8 0 10 -4160
-1 -1 7900 1;
#X floatatom 0 27 5 0 0 0 - - -;
#X obj 212 0 hsl 200 24 0 255 0 0 empty empty empty -2 -8 0 10 -4160
-1 -1 13400 1;
#X floatatom 209 27 5 0 0 0 - - -;
#X obj 0 51 pack f f;
#X msg 209 48 bang;
#X msg 0 73 /contrast 3 \$1 \$2;
#X obj 0 -21 r of3_e3;
#X obj 209 -21 r of3_f3;
#X connect 1 0 2 0;
#X connect 2 0 5 0;
#X connect 3 0 4 0;
#X connect 4 0 5 1;
#X connect 4 0 6 0;
#X connect 5 0 7 0;
#X connect 6 0 2 0;
#X connect 7 0 0 0;
#X connect 8 0 1 0;
#X connect 9 0 3 0;
#X coords 0 -1 1 1 414 24 2 0 0;
#X restore -322 229 pd b;
#N canvas 317 363 457 135 rgb 0;
#X obj 3 0 hsl 200 24 0 255 0 0 empty empty empty -2 -8 0 10 -262144
-1 -1 7900 0;
#X obj 212 0 hsl 200 24 0 255 0 0 empty empty empty -2 -8 0 10 -262144
-1 -1 13400 0;
#X obj 0 31 t f f f;
#X obj 209 32 t f f f;
#X obj 0 54 s of3_e1;
#X obj 0 74 s of3_e2;
#X obj 0 95 s of3_e3;
#X obj 209 55 s of3_f1;
#X obj 209 76 s of3_f2;
#X obj 210 97 s of3_f3;
#X connect 0 0 2 0;
#X connect 1 0 3 0;
#X connect 2 0 4 0;
#X connect 2 1 5 0;
#X connect 2 2 6 0;
#X connect 3 0 7 0;
#X connect 3 1 8 0;
#X connect 3 2 9 0;
#X coords 0 -1 1 1 414 24 2 0 0;
#X restore -323 142 pd rgb;
#X text -323 66 Contraste da M치scara;
#N canvas 201 416 430 156 rgb_mascara 0;
#X obj 0 96 s of3_msgOSC;
#X obj 3 0 hsl 200 24 0 255 0 0 empty empty empty -2 -8 0 10 -262144
-1 -1 10925 1;
#X floatatom 0 27 5 0 0 0 - - -;
#X obj 212 0 hsl 200 24 0 255 0 0 empty empty empty -2 -8 0 10 -262144
-1 -1 13423 1;
#X floatatom 209 27 5 0 0 0 - - -;
#X obj 0 51 pack f f;
#X msg 209 48 bang;
#X msg 0 72 /contrast 0 \$1 \$2;
#X obj 0 -21 r of3_e0;
#X obj 208 -21 r of3_f0;
#X connect 1 0 2 0;
#X connect 2 0 5 0;
#X connect 3 0 4 0;
#X connect 4 0 5 1;
#X connect 4 0 6 0;
#X connect 5 0 7 0;
#X connect 6 0 2 0;
#X connect 7 0 0 0;
#X connect 8 0 1 0;
#X connect 9 0 3 0;
#X coords 0 -1 1 1 414 24 2 0 0;
#X restore -323 83 pd rgb_mascara;
#N canvas 1194 520 450 300 show 0;
#X obj 0 0 tgl 24 0 empty empty empty 17 7 0 10 -262144 -1 -1 0 1;
#X obj 0 76 s of3_msgOSC;
#X obj 0 31 pack f;
#X msg 0 53 /show \$1;
#X obj 0 -21 r of3_show;
#X connect 0 0 2 0;
#X connect 2 0 3 0;
#X connect 3 0 1 0;
#X connect 4 0 0 0;
#X coords 0 -1 1 1 24 24 2 0 0;
#X restore 96 83 pd show;
#X text 128 88 Amosar a M치scara;
#X text -321 123 Contraste da C치mara;
#N canvas 320 350 450 300 stela 0;
#X obj 0 80 s of3_msgOSC;
#X obj 3 0 hsl 200 24 1 1000 1 0 empty empty empty -2 -8 0 10 -262144
-1 -1 19900 0;
#X obj 0 35 pack f;
#X msg 0 57 /stela \$1;
#X msg 208 8 1000;
#X obj 208 -13 loadbang;
#X obj 0 -20 r of3_stela;
#X connect 1 0 2 0;
#X connect 2 0 3 0;
#X connect 3 0 0 0;
#X connect 4 0 1 0;
#X connect 5 0 4 0;
#X connect 6 0 1 0;
#X coords 0 -1 1 1 205 24 2 0 0;
#X restore -321 288 pd stela;
#X text -322 268 Stela;
#N canvas 233 194 94 132 salvar 0;
#X obj 0 0 tgl 24 0 empty empty empty 17 7 0 10 -258113 -1 -1 0 1;
#X obj 0 76 s of3_msgOSC;
#X obj 0 31 pack f;
#X msg 0 53 /save \$1;
#X obj 0 -21 r of3_save;
#X connect 0 0 2 0;
#X connect 2 0 3 0;
#X connect 3 0 1 0;
#X connect 4 0 0 0;
#X coords 0 -1 1 1 24 24 2 0 0;
#X restore 68 321 pd salvar;
#X text 98 324 Gravar;
#N canvas 856 239 743 374 reciveOSC 0;
#X obj -826 101 symbol;
#X obj -826 32 unpackOSC;
#X obj -741 101 unpack f f f f f f f f f f;
#X obj -567 143 delay 1;
#X msg -567 167 1;
#X obj -567 187 s loadbang_1;
#X obj -826 123 outlet;
#X obj -826 8 udpreceive 8002;
#X obj -473 101 unpack f;
#X obj -473 172 s of3_play;
#X obj -406 172 s of3_play_num;
#X msg -473 149 1;
#X obj -473 125 t b f;
#X obj -281 138 unpack f f;
#X obj -826 54 routeOSC /saved /of3_settings /triggerVideo /grid;
#X obj -281 169 s of3_vector_x;
#X obj -224 198 s of3_vector_y;
#X obj -187 146 unpack f;
#X obj -281 113 routeOSC /vector /weight;
#X obj -187 169 s of3_weight;
#X obj -741 123 s of3_stela;
#X obj -724 146 s of3_show;
#X obj -707 172 s of3_e0;
#X obj -690 194 s of3_f0;
#X obj -673 218 s of3_e1;
#X obj -656 242 s of3_f1;
#X obj -639 263 s of3_e2;
#X obj -622 287 s of3_f2;
#X obj -605 308 s of3_e3;
#X obj -588 332 s of3_f3;
#X connect 0 0 6 0;
#X connect 1 0 14 0;
#X connect 2 0 20 0;
#X connect 2 1 21 0;
#X connect 2 2 22 0;
#X connect 2 3 23 0;
#X connect 2 4 24 0;
#X connect 2 5 25 0;
#X connect 2 6 26 0;
#X connect 2 7 27 0;
#X connect 2 8 28 0;
#X connect 2 9 3 0;
#X connect 2 9 29 0;
#X connect 3 0 4 0;
#X connect 4 0 5 0;
#X connect 7 0 1 0;
#X connect 8 0 12 0;
#X connect 11 0 9 0;
#X connect 12 0 11 0;
#X connect 12 1 10 0;
#X connect 13 0 15 0;
#X connect 13 1 16 0;
#X connect 14 0 0 0;
#X connect 14 1 2 0;
#X connect 14 2 8 0;
#X connect 14 3 18 0;
#X connect 17 0 19 0;
#X connect 18 0 13 0;
#X connect 18 1 17 0;
#X restore -123 8 pd reciveOSC;
#X symbolatom -123 29 40 0 0 0 - - -;
#N canvas 657 427 211 308 enviaOSC 0;
#X obj 20 -206 import mrpeach;
#X obj 18 -115 packOSC;
#X obj 0 -21 udpsend;
#X msg 11 -160 disconnect;
#X obj 0 0 tgl 15 0 empty empty connected 20 7 0 8 -24198 -1 -1 0 1
;
#X obj -19 -271 loadbang;
#X obj -19 -249 t b b b;
#X obj 18 -53 spigot;
#X obj 69 -114 print;
#X obj 79 0 tgl 15 0 empty empty sending 20 7 0 8 -24198 -1 -1 1 1
;
#X obj 18 -74 spigot;
#X obj 113 -206 inlet;
#X obj 18 -138 r of3_msgOSC;
#X obj 87 -20 r of3_loadbang_1;
#X obj -19 -227 s of3_loadbang1;
#X msg 0 -182 connect localhost 9002;
#X connect 1 0 10 0;
#X connect 2 0 4 0;
#X connect 3 0 2 0;
#X connect 4 0 7 1;
#X connect 5 0 6 0;
#X connect 6 0 14 0;
#X connect 6 1 15 0;
#X connect 6 2 0 0;
#X connect 7 0 2 0;
#X connect 9 0 10 1;
#X connect 10 0 7 0;
#X connect 11 0 15 0;
#X connect 12 0 1 0;
#X connect 12 0 8 0;
#X connect 13 0 9 0;
#X connect 15 0 2 0;
#X coords 0 -1 1 1 135 15 2 0 0;
#X restore -322 38 pd enviaOSC;
#N canvas 1146 418 450 300 mezcla 0;
#X obj 0 100 s of3_msgOSC;
#X obj 3 0 hsl 200 24 1 1000 1 0 empty empty empty -2 -8 0 10 -262144
-1 -1 0 1;
#X floatatom 0 31 5 0 0 0 - - -;
#X obj 0 55 pack f;
#X msg 0 77 /mixture \$1;
#X obj 0 -30 r of3_mixture;
#X connect 1 0 2 0;
#X connect 2 0 3 0;
#X connect 3 0 4 0;
#X connect 4 0 0 0;
#X connect 5 0 1 0;
#X coords 0 -1 1 1 205 24 2 0 0;
#X restore -321 354 pd mezcla;
#X text -322 329 Mestura coa grabaci칩n anterior;
#N canvas 1127 641 450 300 player 0;
#X obj 0 83 s of3_msgOSC;
#X obj 0 38 pack f f;
#X obj 0 0 tgl 24 0 empty empty empty 17 7 0 10 -262144 -1 -1 1 1;
#X obj 32 0 hradio 24 1 0 10 empty empty empty 0 -8 0 10 -262144 -1
-1 0;
#X obj 32 -21 loadbang;
#X msg 0 60 /play \$1 \$2;
#X obj 67 -46 r of3_play_num;
#X obj 0 -46 r of3_play;
#X connect 1 0 5 0;
#X connect 2 0 1 0;
#X connect 3 0 1 1;
#X connect 4 0 3 0;
#X connect 5 0 0 0;
#X connect 6 0 3 0;
#X connect 7 0 2 0;
#X coords 0 -1 1 1 272 24 2 0 0;
#X restore -321 397 pd player;
#X text -44 400 Reproducir material gravado;
#X text -41 434 Amosar a reprodutor pequeno;
#N canvas 1194 520 450 300 showplayer 0;
#X obj 0 0 tgl 24 0 empty empty empty 17 7 0 10 -262144 -1 -1 0 1;
#X obj 0 76 s of3_msgOSC;
#X obj 0 31 pack f;
#X msg 0 53 /showplayer \$1;
#X obj 0 -21 r c_of3_showplayer;
#X connect 0 0 2 0;
#X connect 2 0 3 0;
#X connect 3 0 1 0;
#X connect 4 0 0 0;
#X coords 0 -1 1 1 24 24 2 0 0;
#X restore -72 429 pd showplayer;
#N canvas 561 591 450 300 webcam 0;
#X obj 0 0 tgl 24 0 empty empty empty 17 7 0 10 -262144 -1 -1 0 1;
#X obj 0 76 s of3_msgOSC;
#X obj 0 31 pack f;
#X msg 0 53 /cam \$1;
#X obj 0 -21 r c_of3_webcam;
#X connect 0 0 2 0;
#X connect 2 0 3 0;
#X connect 3 0 1 0;
#X connect 4 0 0 0;
#X coords 0 -1 1 1 24 24 2 0 0;
#X restore 58 489 pd webcam;
#X text 91 496 webcam;
#N canvas 378 580 636 319 position 0;
#X obj 240 245 s of3_msgOSC;
#X msg 240 222 /position \$1 \$2;
#X obj 240 200 pack f f;
#X obj 0 0 grid grid1 300 0 100 150 0 100 1 0.2 0.2 10 10 -178.684
552.196;
#X obj 285 158 expr 100 - $f1;
#X obj 339 78 pack f f;
#X msg 339 109 goto \$1 \$2;
#X obj 339 31 inlet;
#X obj 384 31 inlet;
#X obj 339 53 * 300;
#X obj 384 53 * 150;
#X obj 361 -26 r of2_vector_x;
#X obj 361 -5 average 10;
#X obj 453 -26 r of3_vector_x;
#X obj 439 2 r of2_vector_y;
#X obj 439 23 average 10;
#X obj 531 2 r of3_vector_y;
#X obj 439 44 * 2;
#X connect 1 0 0 0;
#X connect 2 0 1 0;
#X connect 3 0 2 0;
#X connect 3 1 4 0;
#X connect 4 0 2 1;
#X connect 5 0 6 0;
#X connect 6 0 3 0;
#X connect 7 0 9 0;
#X connect 8 0 10 0;
#X connect 9 0 5 0;
#X connect 10 0 5 1;
#X connect 11 0 12 0;
#X connect 12 0 9 0;
#X connect 13 0 12 0;
#X connect 14 0 15 0;
#X connect 15 0 17 0;
#X connect 16 0 15 0;
#X connect 17 0 10 0;
#X coords 0 -1 1 1 300 150 2 0 0;
#X restore -321 477 pd position;
#X text -321 673 zoom;
#X obj -322 10 bng 24 250 50 0 empty empty empty 17 7 0 10 -262144
-1 -1;
#N canvas 320 350 450 300 zoom 0;
#X obj 3 0 hsl 200 24 1 4 1 0 empty empty empty -2 -8 0 10 -262144
-1 -1 0 1;
#X floatatom 0 81 5 0 0 0 - - -;
#X obj 0 105 pack f;
#X obj 0 -20 r c_of3_zoom;
#X msg 0 127 /zoom \$1;
#X obj 0 150 s of3_msgOSC;
#X connect 0 0 1 0;
#X connect 1 0 2 0;
#X connect 2 0 4 0;
#X connect 3 0 0 0;
#X connect 4 0 5 0;
#X coords 0 -1 1 1 205 24 2 0 0;
#X restore -320 693 pd zoom;
#X text -43 739 seleccionar arcano;
#N canvas 1127 641 450 300 tarot 0;
#X obj 0 77 s of3_msgOSC;
#X obj 0 0 hradio 24 1 0 6 empty empty empty 0 -8 0 10 -262144 -1 -1
0;
#X obj 0 -21 loadbang;
#X obj 0 32 pack f;
#X msg 0 54 /tarot \$1;
#X connect 1 0 3 0;
#X connect 2 0 1 0;
#X connect 3 0 4 0;
#X connect 4 0 0 0;
#X coords 0 -1 1 1 272 24 2 0 0;
#X restore -320 731 pd tarot;
#N canvas 1187 589 450 300 velocity 0;
#X obj 3 0 hsl 200 24 0 1 0 0 empty empty empty -2 -8 0 10 -262144
-1 -1 3400 0;
#X obj 0 55 pack f;
#X msg 0 77 /velocity \$1;
#X obj 0 100 s of3_msgOSC;
#X obj 0 -30 r of3_velocity;
#X connect 0 0 1 0;
#X connect 1 0 2 0;
#X connect 2 0 3 0;
#X connect 4 0 0 0;
#X coords 0 -1 1 1 205 24 2 0 0;
#X restore -321 429 pd velocity;
#X text 99 297 espejo;
#N canvas 1194 520 450 300 invert 0;
#X obj 0 0 tgl 24 0 empty empty empty 17 7 0 10 -262144 -1 -1 0 1;
#X obj 0 31 pack f;
#X msg 0 53 /invert \$1;
#X obj 0 76 s of3_msgOSC;
#X obj 0 -21 r of3_invert;
#X connect 0 0 1 0;
#X connect 1 0 2 0;
#X connect 2 0 3 0;
#X connect 4 0 0 0;
#X coords 0 -1 1 1 24 24 2 0 0;
#X restore 67 292 pd invert;
#N canvas 373 556 450 300 mode 0;
#X obj 0 0 hradio 24 1 0 2 empty empty empty 0 -8 0 10 -262144 -1 -1
0;
#X obj 0 38 pack f;
#X msg 0 60 /mode \$1;
#X obj 0 -24 r c_of3_mode;
#X obj 0 83 s of3_msgOSC;
#X connect 0 0 1 0;
#X connect 1 0 2 0;
#X connect 2 0 4 0;
#X connect 3 0 0 0;
#X coords 0 -1 1 1 120 24 2 0 0;
#X restore -322 640 pd mode;
#X text -194 642 Mode (narrative \, oscFace);
#N canvas 980 689 250 316 emperador 0;
#X obj 74 -23 r of2_weight;
#X floatatom 52 4 5 0 0 0 - - -;
#X floatatom 64 58 5 0 0 0 - - -;
#X floatatom 103 58 5 0 0 0 - - -;
#X obj 64 36 min-max;
#X obj 52 -44 r of3_weight;
#X obj 52 99 /;
#X text 145 191 1 - 1000;
#X text 109 235 0 - 1;
#X obj 13 214 expr 1 - ($f1 * 0.8);
#X obj 64 169 expr 1000 - ($f1 * 950);
#X obj 64 191 s of3_stela;
#X obj 13 236 s of3_velocity;
#X obj 100 100 tgl 24 0 empty empty empty 17 7 0 10 -262144 -1 -1 0
1;
#X obj 64 147 spigot;
#X obj 13 193 spigot;
#X floatatom -3 137 5 0 0 0 - - -;
#X connect 0 0 1 0;
#X connect 1 0 4 0;
#X connect 1 0 6 0;
#X connect 3 0 6 1;
#X connect 4 0 2 0;
#X connect 4 1 3 0;
#X connect 5 0 1 0;
#X connect 6 0 14 0;
#X connect 6 0 15 0;
#X connect 6 0 16 0;
#X connect 9 0 12 0;
#X connect 10 0 11 0;
#X connect 13 0 14 1;
#X connect 13 0 15 1;
#X connect 14 0 10 0;
#X connect 15 0 9 0;
#X coords 0 -1 1 1 24 24 2 100 100;
#X restore 187 662 pd emperador;
#X text 12 698 Emperador (weight to stela & velocity);
#X connect 13 0 14 0;
#X connect 26 0 15 0;
