#N canvas 280 168 1158 570 10;
#X obj 191 -13 textfile;
#X msg 152 -49 bang;
#X msg 171 -79 rewind;
#X msg 371 61 set \$1;
#X msg 116 68 set move;
#X msg 57 68 add2 \$2;
#X obj 38 43 t b a b;
#X obj 371 82 t b a;
#X msg 371 105 19;
#X obj 152 -105 t b b a;
#X obj 191 83 delay 200;
#X text 298 -38 < le a lista do disco duro (manual).;
#X text 217 -80 < resetea a lista e a pon ao principio.;
#X text 258 -60 < activa a lectura da lista. Play.;
#X text 247 -13 < fai un loop para que pasa á seguinte liña. Espera
200 miliseguntos entre lectura de liña e liña;
#X msg 198 -37 read lista.txt;
#X obj 50 119 print;
#X msg 191 61 bang;
#X msg 38 96 move ./wav/tranvia.wav;
#X obj 152 -126 inlet;
#X obj 38 140 demux 1 2 3 4 5 6 7 8 9 10 11 12 13 14 15 16 17 18 19
20;
#X obj 38 180 s read-list_0;
#X obj 55 200 s read-list_1;
#X obj 73 220 s read-list_2;
#X obj 90 240 s read-list_3;
#X obj 108 261 s read-list_4;
#X obj 125 180 s read-list_5;
#X obj 143 200 s read-list_6;
#X obj 160 220 s read-list_7;
#X obj 178 240 s read-list_8;
#X obj 195 261 s read-list_9;
#X obj 213 180 s read-list_10;
#X obj 230 200 s read-list_11;
#X obj 248 220 s read-list_12;
#X obj 265 240 s read-list_13;
#X obj 283 261 s read-list_14;
#X obj 300 180 s read-list_15;
#X obj 318 200 s read-list_16;
#X obj 335 220 s read-list_17;
#X obj 353 240 s read-list_18;
#X obj 371 261 s read-list_19;
#X obj 413 143 == 19;
#X obj 413 165 route 0 1;
#X obj 438 189 outlet;
#X obj 594 145 scrolllist 100 400 200 {Courier 24 bold} white black
red;
#X msg 608 71 add \$1;
#X msg 737 90 font Courier bold 24;
#X msg 682 47 clear;
#X msg 736 30 bgcolor white;
#N canvas 1187 402 451 224 ver 1;
#X obj 161 4 inlet;
#X obj 250 100 cnv 15 145 17 empty \$0-version_cnv empty 4 10 0 12
-203904 -1 0;
#X msg 252 78 label \$1;
#X obj 85 130 zexy/makesymbol %s;
#X symbolatom 201 41 25 0 0 0 - - -;
#X obj 113 75 symbol;
#X obj 90 175 print;
#X obj 113 104 print;
#X obj 88 35 route move;
#X connect 0 0 8 0;
#X connect 3 0 2 0;
#X connect 3 0 6 0;
#X connect 5 0 7 0;
#X connect 5 0 4 0;
#X connect 8 0 5 0;
#X connect 8 0 3 0;
#X coords 0 -1 1 1 145 17 1 250 100;
#X restore 780 -91 pd ver;
#X connect 0 0 3 0;
#X connect 0 0 6 0;
#X connect 0 0 17 0;
#X connect 1 0 0 0;
#X connect 2 0 0 0;
#X connect 3 0 7 0;
#X connect 4 0 18 0;
#X connect 5 0 18 0;
#X connect 6 0 18 0;
#X connect 6 1 5 0;
#X connect 6 2 4 0;
#X connect 7 0 8 0;
#X connect 7 1 8 0;
#X connect 8 0 20 1;
#X connect 8 0 41 0;
#X connect 9 0 1 0;
#X connect 9 1 2 0;
#X connect 9 2 0 0;
#X connect 10 0 1 0;
#X connect 15 0 0 0;
#X connect 17 0 10 0;
#X connect 18 0 20 0;
#X connect 18 0 45 0;
#X connect 18 0 49 0;
#X connect 19 0 9 0;
#X connect 20 0 21 0;
#X connect 20 1 22 0;
#X connect 20 2 23 0;
#X connect 20 3 24 0;
#X connect 20 4 25 0;
#X connect 20 5 26 0;
#X connect 20 6 27 0;
#X connect 20 7 28 0;
#X connect 20 8 29 0;
#X connect 20 9 30 0;
#X connect 20 10 31 0;
#X connect 20 11 32 0;
#X connect 20 12 33 0;
#X connect 20 13 34 0;
#X connect 20 14 35 0;
#X connect 20 15 36 0;
#X connect 20 16 37 0;
#X connect 20 17 38 0;
#X connect 20 18 39 0;
#X connect 20 19 40 0;
#X connect 41 0 42 0;
#X connect 42 1 43 0;
#X connect 45 0 44 0;
#X connect 46 0 44 0;
#X connect 47 0 44 0;
#X connect 48 0 44 0;
