#N canvas 1281 373 267 344 10;
#X msg 55 -154 start;
#X msg 92 -219 stop;
#X obj 55 -198 t b b;
#X obj 55 -177 delay 1000;
#X obj 55 -128 readsf~ 2;
#X obj 55 -239 inlet;
#X obj 92 -239 inlet;
#X obj 130 -106 print;
#X obj 80 -49 *~ 0.1;
#X obj 55 -4 *~ 0.1;
#X obj 98 -154 open;
#X msg 55 -219 bang;
#X obj 129 -239 inlet;
#X obj 88 -80 clip 0 1;
#X obj 165 -239 inlet;
#X obj 55 17 outlet~;
#X obj 80 -28 outlet~;
#X connect 0 0 4 0;
#X connect 1 0 4 0;
#X connect 1 0 7 0;
#X connect 2 0 3 0;
#X connect 2 1 10 0;
#X connect 3 0 0 0;
#X connect 4 0 9 0;
#X connect 4 1 8 0;
#X connect 4 2 7 0;
#X connect 5 0 11 0;
#X connect 6 0 1 0;
#X connect 8 0 16 0;
#X connect 9 0 15 0;
#X connect 10 0 4 0;
#X connect 10 0 7 0;
#X connect 11 0 2 0;
#X connect 12 0 13 0;
#X connect 13 0 8 1;
#X connect 13 0 9 1;
#X connect 14 0 10 1;
