#N canvas 399 261 1144 727 10;
#X declare -lib mrpeach;
#X obj -3 35 import mrpeach;
#X obj -5 126 packOSC;
#X obj -23 170 udpsend;
#X msg -12 81 disconnect;
#X obj -23 191 tgl 15 0 empty empty connected 20 7 0 8 -24198 -241291
-1 1 1;
#X obj -5 103 r msgOSC;
#X obj -42 -30 loadbang;
#X obj -42 14 s loadbang1;
#X obj -42 -8 t b b b;
#X obj -5 148 spigot;
#X obj 185 89 s msgOSC;
#X msg 185 66 /threshold \$1;
#X obj 185 44 pack f;
#X obj 188 -21 hsl 128 15 0 255 0 0 empty empty empty -2 -8 0 10 -262144
-1 -1 6200 0;
#X floatatom 185 0 5 0 0 0 - - -;
#X msg -23 59 connect localhost 9000;
#X obj 186 209 s msgOSC;
#X obj 186 164 pack f;
#X floatatom 186 140 5 0 0 0 - - -;
#X obj 186 120 tgl 15 0 empty empty empty 17 7 0 10 -262144 -1 -1 1
1;
#X obj 45 126 print;
#X obj 342 11 unpackOSC;
#X floatatom 342 59 5 0 0 0 - - -;
#X obj 522 38 print;
#X obj 342 -12 udpreceive 8000;
#X obj 342 83 route 0 1;
#X msg 342 111 0;
#X msg 371 111 255;
#X obj 342 138 s sierpinski_data;
#X msg 187 186 /trigger \$1;
#X obj 342 34 routeOSC /trigger;
#X obj 185 21 i;
#X obj 235 513 s msgOSC;
#X msg 235 490 /position \$1 \$2;
#X obj 235 468 pack f f;
#X floatatom 235 448 5 0 0 0 - - -;
#X floatatom 280 449 5 0 0 0 - - -;
#X obj -13 269 grid grid1 300 0 100 150 0 100 1 0.2 0.2 10 10 164 285
;
#X obj 280 426 expr 100 - $f1;
#X obj 415 384 s msgOSC;
#X obj 415 339 pack f;
#X obj 418 296 hsl 128 15 0 100 0 0 empty empty empty -2 -8 0 10 -262144
-1 -1 4900 0;
#X floatatom 415 317 5 0 0 0 - - -;
#X msg 415 361 /width \$1;
#X obj 555 384 s msgOSC;
#X obj 555 339 pack f;
#X obj 558 296 hsl 128 15 0 100 0 0 empty empty empty -2 -8 0 10 -262144
-1 -1 3300 0;
#X floatatom 555 317 5 0 0 0 - - -;
#X msg 555 361 /height \$1;
#X connect 1 0 9 0;
#X connect 2 0 4 0;
#X connect 3 0 2 0;
#X connect 4 0 9 1;
#X connect 5 0 1 0;
#X connect 5 0 20 0;
#X connect 6 0 8 0;
#X connect 8 0 7 0;
#X connect 8 1 15 0;
#X connect 8 2 0 0;
#X connect 9 0 2 0;
#X connect 11 0 10 0;
#X connect 12 0 11 0;
#X connect 13 0 14 0;
#X connect 14 0 31 0;
#X connect 15 0 2 0;
#X connect 17 0 29 0;
#X connect 18 0 17 0;
#X connect 19 0 18 0;
#X connect 21 0 23 0;
#X connect 21 0 30 0;
#X connect 22 0 25 0;
#X connect 24 0 21 0;
#X connect 25 0 26 0;
#X connect 25 1 27 0;
#X connect 26 0 28 0;
#X connect 27 0 28 0;
#X connect 29 0 16 0;
#X connect 30 0 22 0;
#X connect 31 0 12 0;
#X connect 33 0 32 0;
#X connect 34 0 33 0;
#X connect 35 0 34 0;
#X connect 36 0 34 1;
#X connect 37 0 35 0;
#X connect 37 1 38 0;
#X connect 38 0 36 0;
#X connect 40 0 43 0;
#X connect 41 0 42 0;
#X connect 42 0 40 0;
#X connect 43 0 39 0;
#X connect 45 0 48 0;
#X connect 46 0 47 0;
#X connect 47 0 45 0;
#X connect 48 0 44 0;
